<?xml version="1.0" encoding="UTF-8"?>
<svg id="_레이어_1" data-name="레이어 1" xmlns="http://www.w3.org/2000/svg" viewBox="0 0 283.46 125.24">
  <defs>
    <style>
      .cls-1 {
        fill: #44b0e6;
      }

      .cls-1, .cls-2, .cls-3, .cls-4, .cls-5 {
        stroke-width: 0px;
      }

      .cls-2 {
        fill: #84c367;
      }

      .cls-3 {
        fill: #fff;
      }

      .cls-4 {
        fill: #e9494f;
      }

      .cls-5 {
        fill: #040000;
      }
    </style>
  </defs>
  <g>
    <path class="cls-3" d="m43.49,120.12c-21.76,0-39.47-22.6-39.47-50.38v-14.22C4.02,27.73,21.72,5.13,43.49,5.13h196.49c21.76,0,39.47,22.6,39.47,50.38v14.22c0,27.78-17.71,50.38-39.47,50.38H43.49Z"/>
    <path class="cls-5" d="m239.98,10.26c19.55,0,35.45,20.3,35.45,45.26v14.22c0,24.95-15.9,45.26-35.45,45.26H43.49c-19.55,0-35.45-20.3-35.45-45.26v-14.22c0-24.95,15.9-45.26,35.45-45.26h196.49m0-10.26H43.49C19.47,0,0,24.85,0,55.51v14.22c0,30.66,19.47,55.51,43.49,55.51h196.49c24.02,0,43.49-24.85,43.49-55.51v-14.22c0-30.66-19.47-55.51-43.49-55.51h0Z"/>
  </g>
  <g>
    <path class="cls-5" d="m72.95,92.69c-1.73,6.63-6.67,11.56-15.54,11.56-11.68,0-17.57-8.86-17.57-19.9s5.9-20.2,17.76-20.2c9.21,0,14.2,5.25,15.36,11.78h-5.18c-1.4-4.25-4.21-7.46-10.39-7.46-8.61,0-12.13,7.83-12.13,15.73s3.35,15.74,12.36,15.74c6.02,0,8.66-3.45,10.13-7.24h5.2Z"/>
    <path class="cls-5" d="m76.17,83.03c0-3.98-.04-6.22-.06-7.73h4.82c.08.8.15,3.03.15,5.81,1.49-3.85,4.88-6.34,9.59-6.48v4.9c-5.84.17-9.59,3.22-9.59,10.42v13.82h-4.91v-20.73Z"/>
    <path class="cls-5" d="m95.61,90.42c.04,5.79,2.95,9.9,7.78,9.9,4.5,0,5.96-2.32,6.87-4.4h4.95c-1.12,3.64-4.17,8.51-11.97,8.51-8.95,0-12.6-7.27-12.6-14.6,0-8.46,4.26-15.21,12.91-15.21,9.18,0,12.19,7.37,12.19,13.44,0,.87,0,1.59-.08,2.36h-20.06Zm15.15-3.46c-.06-4.68-2.41-8.44-7.28-8.44s-7.21,3.48-7.7,8.44h14.98Z"/>
    <path class="cls-5" d="m121.76,75.3c3.54,13.35,5.55,20.98,6.04,23.9h.08c.51-2.64,2.52-9.74,6.56-23.9h4.82c4.44,16.11,5.78,20.79,6.24,23.35h.06c.71-3.05,1.84-7.32,6.29-23.35h4.98l-8.77,28.46h-5.31c-2.77-10.37-5.51-19.99-6.11-23.06h-.06c-.52,3.11-3.06,11.76-6.28,23.06h-5.49l-8.25-28.46h5.2Z"/>
    <path class="cls-5" d="m47.36,48.53l-4.2,11.71h-5.15l13.91-39.05h6.37l14.5,39.05h-5.52l-4.33-11.71h-15.58Zm14.25-4.44c-3.72-10.26-5.77-15.72-6.61-18.69h-.06c-.95,3.31-3.24,9.91-6.24,18.69h12.91Z"/>
    <path class="cls-5" d="m76.22,19.04h4.91v6.14h-4.91v-6.14Zm0,12.74h4.91v28.46h-4.91v-28.46Z"/>
    <path class="cls-5" d="m111.17,19.04v33.16c0,2.67,0,5.3.06,8.04h-4.72c-.13-.75-.23-2.93-.25-4.04-1.4,2.97-4.29,4.71-8.95,4.71-7.32,0-11.81-5.93-11.81-14.61s4.85-15.2,12.72-15.2c5.04,0,7.28,2.04,8.04,3.63v-15.7h4.91Zm-20.58,27.12c0,6.87,3.27,10.59,7.74,10.59,6.65,0,8.12-4.91,8.12-11.15s-1.32-10.32-7.73-10.32c-5.02,0-8.12,3.98-8.12,10.88Z"/>
    <path class="cls-5" d="m120.47,46.91c.04,5.79,2.95,9.9,7.78,9.9,4.5,0,5.96-2.32,6.87-4.4h4.95c-1.12,3.64-4.17,8.51-11.97,8.51-8.95,0-12.6-7.27-12.6-14.6,0-8.46,4.26-15.21,12.91-15.21,9.18,0,12.19,7.37,12.19,13.44,0,.87,0,1.59-.08,2.36h-20.06Zm15.15-3.46c-.06-4.68-2.41-8.44-7.28-8.44s-7.21,3.48-7.7,8.44h14.98Z"/>
    <path class="cls-5" d="m144.93,38.95c0-2.47,0-4.97-.06-7.17h4.78c.13.84.21,3.83.19,4.68,1.13-2.44,3.46-5.35,8.96-5.35s9.51,3.26,9.51,10.83v18.3h-4.91v-17.68c0-4.3-1.68-7.2-6.03-7.2-5.37,0-7.53,4.09-7.53,9.81v15.07h-4.91v-21.29Z"/>
    <path class="cls-5" d="m170.66,31.78h4.92v-8.4h4.91v8.4h6.28v4.01h-6.28v16.67c0,2.77.67,4.18,3.25,4.18.68,0,1.7-.04,2.48-.24v3.7c-1.21.45-2.9.52-4.25.52-4.43,0-6.39-2.29-6.39-7.02v-17.82h-4.92v-4.01Z"/>
    <path class="cls-5" d="m192.75,46.91c.04,5.79,2.95,9.9,7.78,9.9,4.5,0,5.96-2.32,6.87-4.4h4.95c-1.12,3.64-4.17,8.51-11.97,8.51-8.95,0-12.6-7.27-12.6-14.6,0-8.46,4.26-15.21,12.91-15.21,9.18,0,12.19,7.37,12.19,13.44,0,.87,0,1.59-.08,2.36h-20.06Zm15.15-3.46c-.06-4.68-2.41-8.44-7.28-8.44s-7.21,3.48-7.7,8.44h14.98Z"/>
    <path class="cls-5" d="m213.76,31.78h4.92v-8.4h4.91v8.4h6.28v4.01h-6.28v16.67c0,2.77.67,4.18,3.25,4.18.68,0,1.7-.04,2.48-.24v3.7c-1.21.45-2.9.52-4.25.52-4.43,0-6.39-2.29-6.39-7.02v-17.82h-4.92v-4.01Z"/>
    <path class="cls-5" d="m233.07,19.04h4.91v6.14h-4.91v-6.14Zm0,12.74h4.91v28.46h-4.91v-28.46Z"/>
  </g>
  <g>
    <path class="cls-4" d="m212.49,85.83c.9-1.4,1.45-3.05,1.46-4.83.02-3.11-1.53-5.85-3.91-7.49-.04.02-.09.05-.13.07.76,1.33,1.19,2.88,1.18,4.53-.01,1.73-.52,3.34-1.38,4.71-4.11-3.15-9.83-3.19-13.98-.09-.84-1.38-1.32-2.99-1.31-4.73.01-1.65.46-3.19,1.24-4.52-.04-.03-.09-.05-.13-.08-2.4,1.61-3.98,4.34-4,7.44-.01,1.79.51,3.45,1.4,4.85-2.91,4.47-2.45,10.52,1.45,14.48,4.5,4.58,11.86,4.65,16.44.15,3.98-3.91,4.55-9.98,1.68-14.5Z"/>
    <path class="cls-2" d="m187.09,78.68l-7.61,2.46c-2.84-1.2-6.06-1.22-8.91-.06l-7.58-2.56,1.61,8.05c-2.21,4.33-1.54,9.76,2.06,13.42,4.5,4.58,11.86,4.65,16.44.15,3.67-3.61,4.44-9.06,2.27-13.44l1.72-8.02Z"/>
    <path class="cls-1" d="m238.67,85.14c.09-.49.15-.99.16-1.5.03-3.47-1.94-6.48-4.83-7.95.57,1.19.89,2.52.87,3.92,0,.79-.12,1.56-.33,2.29-3.08-1.45-6.65-1.47-9.75-.06-.19-.73-.3-1.5-.3-2.3,0-1.4.34-2.73.92-3.91-2.91,1.43-4.92,4.42-4.93,7.89,0,.51.05,1.01.14,1.5-3.74,4.53-3.53,11.25.68,15.53,4.5,4.58,11.86,4.65,16.44.15,4.3-4.22,4.62-10.96.92-15.56Z"/>
    <circle class="cls-3" cx="229.6" cy="92.56" r="4.34"/>
    <path class="cls-3" d="m203.66,88.48l.18.23.28-.08c.77-.22,1.54.35,1.57,1.15v.29s.28.1.28.1c.75.28,1.04,1.19.59,1.85l-.16.24.16.24c.45.67.14,1.58-.61,1.85l-.27.1v.29c-.04.8-.82,1.36-1.59,1.13l-.28-.08-.18.23c-.5.63-1.46.62-1.95-.01l-.18-.23-.28.08c-.77.22-1.54-.35-1.57-1.15v-.29s-.28-.1-.28-.1c-.75-.28-1.04-1.19-.59-1.85l.16-.24-.16-.24c-.45-.67-.14-1.58.61-1.85l.27-.1v-.29c.04-.8.82-1.36,1.59-1.13l.28.08.18-.23c.5-.63,1.46-.62,1.95.01Z"/>
    <polygon class="cls-3" points="174.99 86.83 176.13 88.31 177.94 87.8 177.99 89.68 179.74 90.33 178.69 91.87 179.72 93.43 177.96 94.05 177.88 95.93 176.09 95.4 174.93 96.87 173.79 95.38 171.98 95.89 171.93 94.02 170.18 93.37 171.23 91.82 170.2 90.26 171.96 89.64 172.04 87.77 173.83 88.3 174.99 86.83"/>
  </g>
</svg>