<?xml version="1.0" encoding="UTF-8"?>
<svg id="Layer_1" data-name="Layer 1" xmlns="http://www.w3.org/2000/svg" viewBox="0 0 1920 512">
  <defs>
    <style>
      .cls-1 {
        fill: #fff;
      }
    </style>
  </defs>
  <g>
    <g>
      <rect class="cls-1" x="1692.2" y="204.85" width="18.75" height="132.29"/>
      <rect class="cls-1" x="1690.74" y="153.7" width="22.17" height="23.89"/>
    </g>
    <path class="cls-1" d="M1496.25,204.97h-17.81v23.79c-11.75-17.03-31.61-26.73-54.95-26.73-37.63,0-67.1,28.84-67.1,65.66s30.1,65.41,67.1,65.41c22.16,0,40.84-8.36,52.89-23.61v12.28c0,28.15-18.62,44.95-49.81,44.95-18.65,0-40.18-8.3-46.25-26.85l-.25-.78-19.04,6.4.3.79c8.45,22.26,34.68,37.23,65.25,37.23,42.32,0,69.67-24.24,69.67-61.74v-116.8ZM1476.38,267.7c0,28.17-21.27,48.62-50.58,48.62s-50.06-21.36-50.06-48.62,21.99-48.62,50.06-48.62,50.58,20.45,50.58,48.62Z"/>
    <path class="cls-1" d="M1597,202.28c-23.09,0-42.96,9.48-54.95,26.1v-74.31h-19.61v183.19h17.81v-26.09c11.89,18.34,32.4,28.79,56.75,28.79,38.78,0,69.16-30.34,69.16-69.08s-30.38-68.6-69.16-68.6ZM1646.29,270.88c0,28.77-22.78,51.31-51.86,51.31s-52.38-21.58-52.38-51.31,22.03-50.83,52.38-50.83,51.86,22.33,51.86,50.83Z"/>
    <path class="cls-1" d="M504.95,202.16c-23.1,0-42.96,9.48-54.95,26.1v-74.3h-19.61v183.19h17.81v-26.09c11.89,18.34,32.4,28.79,56.75,28.79,38.78,0,69.16-30.34,69.16-69.08s-30.38-68.6-69.16-68.6ZM554.24,270.76c0,28.77-22.78,51.31-51.86,51.31s-52.38-21.58-52.38-51.31,22.03-50.83,52.38-50.83,51.86,22.33,51.86,50.83Z"/>
    <rect class="cls-1" x="600.55" y="153.95" width="18.75" height="183.19"/>
    <path class="cls-1" d="M714.09,202.03c-38.46,0-68.59,30.34-68.59,69.08s30.13,68.6,68.59,68.6,68.84-30.13,68.84-68.6-30.24-69.08-68.84-69.08ZM763.94,271.12c0,28.37-21.89,50.58-49.85,50.58s-49.6-22.22-49.6-50.58,21.32-51.31,49.6-51.31,49.85,22.06,49.85,51.31Z"/>
    <path class="cls-1" d="M867.58,202.16c-38.47,0-68.6,30.34-68.6,69.08s30.13,68.6,68.6,68.6,68.84-30.13,68.84-68.6-30.24-69.08-68.84-69.08ZM917.43,271.24c0,28.37-21.89,50.58-49.85,50.58s-49.6-22.22-49.6-50.58,21.32-51.31,49.6-51.31,49.85,22.06,49.85,51.31Z"/>
    <path class="cls-1" d="M1099.21,202.16c-19.73,0-36.21,9.25-45.46,25.45-8.05-16.66-22.76-25.45-42.64-25.45-18.58,0-33.74,8.8-41.28,23.73v-21.04h-17.28v132.29h18.75v-70.8c0-31.89,17.91-46.17,35.65-46.17,25.23,0,34.18,22.24,34.18,41.28v75.69h18.75v-75.69c0-30.43,18.42-41.28,35.65-41.28,20.78,0,33.69,15.82,33.69,41.28v75.69h18.99v-78.63c0-34.76-18.78-56.36-49.01-56.36Z"/>
    <g>
      <rect class="cls-1" x="1174.62" y="205.15" width="18.75" height="132.29"/>
      <rect class="cls-1" x="1173.15" y="154.01" width="22.17" height="23.89"/>
    </g>
    <path class="cls-1" d="M1283.02,202.16c-18.9,0-35.58,9.3-46.17,25.61v-22.92h-17.28v132.29h18.75v-64.9c1.14-33.58,16.33-52.07,42.75-52.07,23.3,0,39.57,17.27,39.57,42.01v74.96h19v-75.69c0-34.36-23.81-59.29-56.6-59.29Z"/>
    <path class="cls-1" d="M1824.47,318.02l-1.36.62c-5.22,2.51-10.47,3.79-15.62,3.79-15.54,0-23.42-9.36-23.42-27.82v-73.34l39.74-.37v-16.06l-39.74.37v-35.21l-19.48-.4v35.25h-27.46v16.06h27.46v74.81c0,27.82,14.63,43.15,41.18,43.15,10.61,0,17.89-2.79,20.52-3.99l.55-.25-2.39-16.6Z"/>
  </g>
  <g>
    <path class="cls-1" d="M100.41,254.31h109.59c12.87,0,23.33-10.38,23.44-23.25h0c.05-6.32-2.45-12.39-6.94-16.84l-55.85-55.37-11.93,20.94,51.69,51.69-117.28-.48,7.28,23.32Z"/>
    <path class="cls-1" d="M243.89,120.76v109.59c0,12.87,10.38,23.33,23.25,23.44h0c6.32.05,12.39-2.45,16.84-6.94l55.37-55.85-20.94-11.93-51.69,51.69.48-117.28-23.32,7.28Z"/>
    <path class="cls-1" d="M376.84,263.85h-109.59c-12.87,0-23.33,10.38-23.44,23.25h0c-.05,6.32,2.45,12.39,6.94,16.84l55.85,55.37,11.93-20.94-51.69-51.69,117.28.48-7.28-23.32Z"/>
    <path class="cls-1" d="M233.49,397.24v-109.59c0-12.87-10.38-23.33-23.25-23.44h0c-6.32-.05-12.39,2.45-16.84,6.94l-55.37,55.85,20.94,11.93,51.69-51.69-.48,117.28,23.32-7.28Z"/>
  </g>
</svg>