<svg width="166" height="30" viewBox="0 0 166 30" fill="none" xmlns="http://www.w3.org/2000/svg">
<path d="M151.643 16.5571C151.643 16.1679 151.776 15.8761 152.043 15.6815C152.312 15.4839 152.658 15.3851 153.08 15.3851C153.634 15.3851 154.056 15.4749 154.346 15.6545L154.086 15.8521C153.891 15.7563 153.556 15.7084 153.08 15.7084C152.745 15.7084 152.475 15.7758 152.272 15.9105C152.068 16.0422 151.966 16.2577 151.966 16.5571V18.5059C151.966 18.6376 151.987 18.7513 152.029 18.8471C152.074 18.9399 152.129 19.0133 152.195 19.0671C152.264 19.121 152.354 19.1629 152.465 19.1929C152.578 19.2198 152.686 19.2378 152.788 19.2468C152.893 19.2557 153.02 19.2602 153.17 19.2602C153.762 19.2602 154.059 19.1285 154.059 18.8651C154.059 18.7124 153.999 18.6017 153.879 18.5328C153.759 18.4639 153.605 18.4295 153.417 18.4295C152.986 18.4295 152.584 18.5133 152.213 18.681V18.3577C152.587 18.205 152.99 18.1287 153.421 18.1287C153.696 18.1287 153.925 18.1885 154.108 18.3083C154.291 18.425 154.382 18.6106 154.382 18.8651C154.382 19.1046 154.268 19.2842 154.041 19.4039C153.816 19.5237 153.526 19.5835 153.17 19.5835C152.993 19.5835 152.833 19.5745 152.689 19.5566C152.545 19.5356 152.406 19.5012 152.272 19.4533C152.14 19.4024 152.029 19.3381 151.939 19.2602C151.849 19.1794 151.778 19.0761 151.724 18.9504C151.67 18.8217 151.643 18.6735 151.643 18.5059V16.5571ZM150.996 16.5571C150.996 16.1649 151.091 15.8297 151.279 15.5513C151.471 15.2699 151.721 15.0648 152.029 14.9361C152.337 14.8044 152.688 14.7385 153.08 14.7385C153.84 14.7385 154.43 14.9091 154.849 15.2504L154.593 15.448C154.237 15.1905 153.732 15.0618 153.08 15.0618C152.568 15.0618 152.146 15.192 151.814 15.4525C151.484 15.7099 151.32 16.0781 151.32 16.5571V18.5059C151.32 18.7573 151.366 18.9758 151.459 19.1614C151.555 19.347 151.689 19.4937 151.863 19.6015C152.037 19.7063 152.231 19.7841 152.447 19.835C152.662 19.8829 152.903 19.9068 153.17 19.9068C153.613 19.9068 153.979 19.8155 154.27 19.6329C154.56 19.4503 154.705 19.1944 154.705 18.8651C154.705 18.5298 154.584 18.2724 154.342 18.0928C154.099 17.9101 153.804 17.8188 153.457 17.8188C153.017 17.8188 152.602 17.8982 152.213 18.0568V17.7156C152.617 17.5809 153.033 17.5135 153.461 17.5135C153.899 17.5135 154.268 17.6347 154.571 17.8772C154.876 18.1167 155.029 18.446 155.029 18.8651C155.029 19.2872 154.852 19.6209 154.499 19.8664C154.146 20.1089 153.702 20.2301 153.17 20.2301C152.864 20.2301 152.583 20.1972 152.325 20.1313C152.068 20.0625 151.839 19.9607 151.638 19.826C151.438 19.6913 151.281 19.5117 151.167 19.2872C151.053 19.0627 150.996 18.8022 150.996 18.5059V16.5571ZM150.35 16.5571C150.35 16.1679 150.422 15.8162 150.565 15.5019C150.709 15.1845 150.905 14.9256 151.153 14.725C151.402 14.5215 151.691 14.3658 152.02 14.2581C152.349 14.1473 152.703 14.0919 153.08 14.0919C153.541 14.0919 153.969 14.1578 154.364 14.2895C154.759 14.4212 155.09 14.6068 155.356 14.8463L155.105 15.0483C154.865 14.8448 154.569 14.6891 154.216 14.5814C153.866 14.4706 153.487 14.4152 153.08 14.4152C152.748 14.4152 152.436 14.4631 152.146 14.5589C151.855 14.6517 151.6 14.7864 151.378 14.963C151.159 15.1396 150.987 15.3657 150.862 15.6411C150.736 15.9135 150.673 16.2188 150.673 16.5571V18.5059C150.673 18.8441 150.737 19.1465 150.866 19.4129C150.998 19.6763 151.177 19.8904 151.405 20.055C151.635 20.2196 151.899 20.3439 152.195 20.4277C152.495 20.5115 152.819 20.5534 153.17 20.5534C153.789 20.5534 154.307 20.4008 154.723 20.0954C155.142 19.7871 155.352 19.377 155.352 18.8651C155.352 18.5178 155.262 18.2155 155.082 17.958C154.906 17.7006 154.678 17.5105 154.4 17.3878C154.122 17.265 153.815 17.2037 153.479 17.2037C153.039 17.2037 152.617 17.274 152.213 17.4147V17.0869C152.635 16.9582 153.06 16.8938 153.488 16.8938C153.887 16.8938 154.252 16.9777 154.584 17.1453C154.919 17.3129 155.184 17.5479 155.379 17.8503C155.576 18.1526 155.675 18.4909 155.675 18.8651C155.675 19.2632 155.561 19.618 155.334 19.9293C155.109 20.2376 154.807 20.4726 154.427 20.6343C154.05 20.7959 153.631 20.8767 153.17 20.8767C152.777 20.8767 152.412 20.8258 152.074 20.7241C151.739 20.6223 151.441 20.4756 151.18 20.284C150.923 20.0894 150.719 19.841 150.57 19.5386C150.423 19.2333 150.35 18.889 150.35 18.5059V16.5571ZM149.703 16.5571C149.703 16.0841 149.791 15.6515 149.968 15.2594C150.148 14.8642 150.39 14.5365 150.695 14.276C151.001 14.0126 151.359 13.809 151.769 13.6653C152.179 13.5187 152.616 13.4453 153.08 13.4453C153.64 13.4453 154.16 13.5336 154.642 13.7102C155.127 13.8839 155.533 14.1278 155.859 14.4422L155.599 14.6352C155.303 14.3598 154.934 14.1473 154.494 13.9976C154.057 13.8449 153.586 13.7686 153.08 13.7686C152.658 13.7686 152.263 13.8315 151.894 13.9572C151.526 14.0799 151.203 14.2566 150.924 14.4871C150.646 14.7146 150.426 15.0064 150.264 15.3627C150.106 15.7189 150.026 16.117 150.026 16.5571V18.5059C150.026 18.8471 150.08 19.1644 150.188 19.4578C150.296 19.7482 150.446 19.9996 150.637 20.2122C150.829 20.4247 151.055 20.6058 151.315 20.7555C151.579 20.9052 151.866 21.0174 152.177 21.0923C152.492 21.1641 152.822 21.2 153.17 21.2C153.556 21.2 153.921 21.1446 154.265 21.0339C154.612 20.9201 154.913 20.763 155.168 20.5624C155.422 20.3618 155.624 20.1149 155.774 19.8215C155.924 19.5281 155.998 19.2093 155.998 18.8651C155.998 18.5238 155.927 18.2065 155.783 17.9131C155.639 17.6198 155.449 17.3773 155.213 17.1857C154.979 16.9911 154.713 16.84 154.413 16.7322C154.114 16.6244 153.806 16.5705 153.488 16.5705C153.033 16.5705 152.608 16.6379 152.213 16.7726V16.4403C152.623 16.3236 153.054 16.2652 153.506 16.2652C153.875 16.2652 154.228 16.3281 154.566 16.4538C154.907 16.5765 155.207 16.7487 155.464 16.9702C155.725 17.1887 155.933 17.4626 156.088 17.7919C156.244 18.1212 156.322 18.4789 156.322 18.8651C156.322 19.2542 156.238 19.6165 156.07 19.9517C155.906 20.284 155.681 20.5654 155.397 20.7959C155.112 21.0234 154.777 21.2015 154.391 21.3302C154.008 21.459 153.601 21.5233 153.17 21.5233C152.688 21.5233 152.237 21.456 151.818 21.3213C151.402 21.1866 151.035 20.9935 150.718 20.742C150.404 20.4906 150.155 20.1732 149.973 19.7901C149.793 19.4039 149.703 18.9758 149.703 18.5059V16.5571Z" fill="white"/>
<path d="M144.359 19.9113V19.588H148.741V19.9113H144.359ZM144.359 20.5579V20.2346H148.741V20.5579H144.359ZM144.359 21.2045V20.8812H148.741V21.2045H144.359ZM144.857 19.4084H144.48C144.69 19.124 144.896 18.8456 145.1 18.5732C145.303 18.3008 145.473 18.0748 145.607 17.8952C145.745 17.7126 145.878 17.5345 146.007 17.3608C146.136 17.1872 146.239 17.048 146.317 16.9432C146.398 16.8385 146.474 16.7367 146.546 16.6379C146.618 16.5391 146.671 16.4628 146.707 16.4089C146.743 16.352 146.775 16.2981 146.802 16.2472C146.832 16.1964 146.851 16.1559 146.86 16.126C146.869 16.0931 146.873 16.0616 146.873 16.0317C146.873 15.894 146.817 15.8057 146.703 15.7668C146.589 15.7279 146.389 15.7084 146.101 15.7084C145.634 15.7084 145.167 15.7698 144.7 15.8925L144.633 15.5827C144.708 15.5498 144.896 15.5078 145.199 15.457C145.504 15.4031 145.797 15.3761 146.079 15.3761C146.249 15.3761 146.398 15.3866 146.523 15.4076C146.649 15.4255 146.763 15.4585 146.865 15.5064C146.969 15.5513 147.049 15.6186 147.102 15.7084C147.156 15.7952 147.183 15.903 147.183 16.0317C147.183 16.1604 147.117 16.3251 146.986 16.5256C146.854 16.7262 146.516 17.1902 145.971 17.9176C145.528 18.5074 145.157 19.0043 144.857 19.4084ZM145.589 19.4084H145.212C146.329 17.9057 146.948 17.066 147.071 16.8894C147.323 16.5301 147.463 16.2742 147.493 16.1215C147.502 16.0796 147.507 16.0347 147.507 15.9868C147.507 15.3672 147.037 15.0573 146.097 15.0573C145.809 15.0573 145.517 15.0828 145.221 15.1337C144.925 15.1845 144.708 15.2354 144.57 15.2863L144.507 14.9765C145.019 14.8178 145.55 14.7385 146.101 14.7385C146.293 14.7385 146.469 14.752 146.631 14.7789C146.796 14.8029 146.953 14.8448 147.102 14.9047C147.252 14.9645 147.379 15.0424 147.484 15.1381C147.589 15.2309 147.671 15.3492 147.731 15.4929C147.794 15.6366 147.825 15.8012 147.825 15.9868C147.825 16.1784 147.731 16.4194 147.543 16.7097C147.354 17.0001 146.79 17.7814 145.85 19.0537C145.736 19.2063 145.649 19.3246 145.589 19.4084ZM146.339 19.4084H145.962C146.983 18.0134 147.602 17.1453 147.821 16.804C148.039 16.4598 148.149 16.1724 148.149 15.9419C148.149 15.6605 148.093 15.418 147.983 15.2145C147.875 15.0109 147.722 14.8523 147.525 14.7385C147.33 14.6248 147.114 14.5424 146.878 14.4915C146.644 14.4407 146.384 14.4152 146.097 14.4152C145.543 14.4152 144.991 14.499 144.44 14.6667L144.372 14.3389C144.962 14.1653 145.532 14.0784 146.083 14.0784C146.353 14.0784 146.603 14.0979 146.833 14.1368C147.064 14.1757 147.281 14.2416 147.484 14.3344C147.691 14.4242 147.864 14.5394 148.005 14.6801C148.149 14.8208 148.262 14.9989 148.346 15.2145C148.43 15.427 148.472 15.6695 148.472 15.9419C148.472 16.1365 148.426 16.3356 148.333 16.5391C148.243 16.7397 148.054 17.0465 147.767 17.4596C147.483 17.8727 147.007 18.5223 146.339 19.4084ZM147.116 19.4084H146.739C147.37 18.5732 147.827 17.9461 148.108 17.527C148.393 17.1049 148.578 16.7861 148.665 16.5705C148.752 16.352 148.795 16.1275 148.795 15.897C148.795 15.6036 148.75 15.3387 148.661 15.1022C148.574 14.8627 148.45 14.6622 148.288 14.5005C148.129 14.3359 147.938 14.1982 147.713 14.0874C147.489 13.9767 147.242 13.8958 146.972 13.8449C146.706 13.7941 146.417 13.7686 146.106 13.7686C145.531 13.7686 144.932 13.8584 144.31 14.038L144.242 13.7192C144.874 13.5366 145.492 13.4453 146.097 13.4453C146.546 13.4453 146.951 13.4947 147.314 13.5935C147.679 13.6893 147.996 13.8345 148.265 14.029C148.538 14.2236 148.747 14.4796 148.894 14.7969C149.044 15.1142 149.119 15.4809 149.119 15.897C149.119 16.1604 149.075 16.4089 148.988 16.6424C148.905 16.8759 148.719 17.2067 148.432 17.6347C148.147 18.0628 147.709 18.654 147.116 19.4084Z" fill="white"/>
<path d="M137.014 19.597C136.703 18.9803 136.547 18.2769 136.547 17.4866C136.547 16.6963 136.703 15.9928 137.014 15.3761C137.325 14.7595 137.753 14.2835 138.298 13.9482C138.843 13.6129 139.457 13.4453 140.139 13.4453C140.822 13.4453 141.435 13.6129 141.98 13.9482C142.525 14.2835 142.953 14.7595 143.264 15.3761C143.576 15.9928 143.731 16.6963 143.731 17.4866C143.731 18.2769 143.576 18.9803 143.264 19.597C142.953 20.2137 142.525 20.6896 141.98 21.0249C141.435 21.3602 140.822 21.5278 140.139 21.5278C139.457 21.5278 138.843 21.3602 138.298 21.0249C137.753 20.6896 137.325 20.2137 137.014 19.597ZM141.342 15.9419C141.642 16.3101 141.792 16.825 141.792 17.4866C141.792 18.1481 141.642 18.6645 141.342 19.0357C141.046 19.4039 140.645 19.588 140.139 19.588C139.633 19.588 139.231 19.4039 138.931 19.0357C138.635 18.6645 138.487 18.1481 138.487 17.4866C138.487 16.825 138.635 16.3101 138.931 15.9419C139.231 15.5707 139.633 15.3851 140.139 15.3851C140.645 15.3851 141.046 15.5707 141.342 15.9419ZM141.801 15.4839C142.226 15.9808 142.438 16.6484 142.438 17.4866C142.438 18.3248 142.226 18.9923 141.801 19.4892C141.378 19.9862 140.825 20.2346 140.139 20.2346C139.454 20.2346 138.898 19.9862 138.473 19.4892C138.051 18.9923 137.84 18.3248 137.84 17.4866C137.84 16.6484 138.051 15.9808 138.473 15.4839C138.898 14.987 139.454 14.7385 140.139 14.7385C140.825 14.7385 141.378 14.987 141.801 15.4839ZM142.703 15.7039C142.957 16.2188 143.085 16.813 143.085 17.4866C143.085 18.1601 142.957 18.7558 142.703 19.2737C142.452 19.7886 142.103 20.1852 141.657 20.4636C141.211 20.742 140.705 20.8812 140.139 20.8812C139.573 20.8812 139.067 20.742 138.621 20.4636C138.175 20.1852 137.825 19.7886 137.571 19.2737C137.319 18.7558 137.193 18.1601 137.193 17.4866C137.193 16.813 137.319 16.2188 137.571 15.7039C137.825 15.186 138.175 14.7879 138.621 14.5095C139.067 14.2311 139.573 14.0919 140.139 14.0919C140.705 14.0919 141.211 14.2311 141.657 14.5095C142.103 14.7879 142.452 15.186 142.703 15.7039ZM139.16 16.1664C138.927 16.4718 138.81 16.9118 138.81 17.4866C138.81 18.0613 138.927 18.5014 139.16 18.8067C139.397 19.112 139.723 19.2647 140.139 19.2647C140.555 19.2647 140.88 19.112 141.113 18.8067C141.35 18.5014 141.468 18.0613 141.468 17.4866C141.468 16.9118 141.35 16.4718 141.113 16.1664C140.88 15.8611 140.555 15.7084 140.139 15.7084C139.723 15.7084 139.397 15.8611 139.16 16.1664ZM138.702 15.7129C138.343 16.144 138.163 16.7352 138.163 17.4866C138.163 18.2379 138.343 18.8307 138.702 19.2647C139.064 19.6958 139.543 19.9113 140.139 19.9113C140.735 19.9113 141.212 19.6958 141.571 19.2647C141.934 18.8307 142.115 18.2379 142.115 17.4866C142.115 16.7352 141.934 16.144 141.571 15.7129C141.212 15.2788 140.735 15.0618 140.139 15.0618C139.543 15.0618 139.064 15.2788 138.702 15.7129ZM138.244 15.2549C137.759 15.8147 137.517 16.5586 137.517 17.4866C137.517 18.4146 137.759 19.1584 138.244 19.7182C138.732 20.278 139.364 20.5579 140.139 20.5579C140.914 20.5579 141.545 20.278 142.03 19.7182C142.517 19.1584 142.761 18.4146 142.761 17.4866C142.761 16.5586 142.517 15.8147 142.03 15.2549C141.545 14.6951 140.914 14.4152 140.139 14.4152C139.364 14.4152 138.732 14.6951 138.244 15.2549ZM137.117 15.9689C136.952 16.4328 136.87 16.9388 136.87 17.4866C136.87 18.0344 136.952 18.5418 137.117 19.0088C137.282 19.4728 137.508 19.8649 137.795 20.1852C138.086 20.5055 138.431 20.7555 138.832 20.9351C139.237 21.1147 139.672 21.2045 140.139 21.2045C140.606 21.2045 141.04 21.1147 141.441 20.9351C141.845 20.7555 142.191 20.5055 142.479 20.1852C142.769 19.8649 142.996 19.4728 143.161 19.0088C143.326 18.5418 143.408 18.0344 143.408 17.4866C143.408 16.9388 143.326 16.4328 143.161 15.9689C142.996 15.5019 142.769 15.1082 142.479 14.7879C142.191 14.4676 141.845 14.2176 141.441 14.038C141.04 13.8584 140.606 13.7686 140.139 13.7686C139.672 13.7686 139.237 13.8584 138.832 14.038C138.431 14.2176 138.086 14.4676 137.795 14.7879C137.508 15.1082 137.282 15.5019 137.117 15.9689Z" fill="white"/>
<path d="M131.242 19.9113V19.588H135.624V19.9113H131.242ZM131.242 20.5579V20.2346H135.624V20.5579H131.242ZM131.242 21.2045V20.8812H135.624V21.2045H131.242ZM131.74 19.4084H131.363C131.573 19.124 131.779 18.8456 131.983 18.5732C132.186 18.3008 132.355 18.0748 132.49 17.8952C132.628 17.7126 132.761 17.5345 132.89 17.3608C133.018 17.1872 133.122 17.048 133.2 16.9432C133.28 16.8385 133.357 16.7367 133.429 16.6379C133.5 16.5391 133.554 16.4628 133.59 16.4089C133.626 16.352 133.658 16.2981 133.684 16.2472C133.714 16.1964 133.734 16.1559 133.743 16.126C133.752 16.0931 133.756 16.0616 133.756 16.0317C133.756 15.894 133.699 15.8057 133.586 15.7668C133.472 15.7279 133.271 15.7084 132.984 15.7084C132.517 15.7084 132.05 15.7698 131.583 15.8925L131.516 15.5827C131.59 15.5498 131.779 15.5078 132.081 15.457C132.387 15.4031 132.68 15.3761 132.962 15.3761C133.132 15.3761 133.28 15.3866 133.406 15.4076C133.532 15.4255 133.646 15.4585 133.747 15.5064C133.852 15.5513 133.931 15.6186 133.985 15.7084C134.039 15.7952 134.066 15.903 134.066 16.0317C134.066 16.1604 134 16.3251 133.869 16.5256C133.737 16.7262 133.399 17.1902 132.854 17.9176C132.411 18.5074 132.04 19.0043 131.74 19.4084ZM132.472 19.4084H132.095C133.211 17.9057 133.831 17.066 133.954 16.8894C134.205 16.5301 134.346 16.2742 134.376 16.1215C134.385 16.0796 134.389 16.0347 134.389 15.9868C134.389 15.3672 133.919 15.0573 132.979 15.0573C132.692 15.0573 132.4 15.0828 132.104 15.1337C131.808 15.1845 131.59 15.2354 131.453 15.2863L131.39 14.9765C131.902 14.8178 132.433 14.7385 132.984 14.7385C133.176 14.7385 133.352 14.752 133.514 14.7789C133.678 14.8029 133.836 14.8448 133.985 14.9047C134.135 14.9645 134.262 15.0424 134.367 15.1381C134.472 15.2309 134.554 15.3492 134.614 15.4929C134.677 15.6366 134.708 15.8012 134.708 15.9868C134.708 16.1784 134.614 16.4194 134.425 16.7097C134.237 17.0001 133.672 17.7814 132.733 19.0537C132.619 19.2063 132.532 19.3246 132.472 19.4084ZM133.222 19.4084H132.845C133.866 18.0134 134.485 17.1453 134.704 16.804C134.922 16.4598 135.032 16.1724 135.032 15.9419C135.032 15.6605 134.976 15.418 134.865 15.2145C134.758 15.0109 134.605 14.8523 134.407 14.7385C134.213 14.6248 133.997 14.5424 133.761 14.4915C133.527 14.4407 133.267 14.4152 132.979 14.4152C132.426 14.4152 131.873 14.499 131.323 14.6667L131.255 14.3389C131.845 14.1653 132.415 14.0784 132.966 14.0784C133.235 14.0784 133.485 14.0979 133.716 14.1368C133.946 14.1757 134.163 14.2416 134.367 14.3344C134.574 14.4242 134.747 14.5394 134.888 14.6801C135.032 14.8208 135.145 14.9989 135.229 15.2145C135.313 15.427 135.355 15.6695 135.355 15.9419C135.355 16.1365 135.308 16.3356 135.216 16.5391C135.126 16.7397 134.937 17.0465 134.65 17.4596C134.365 17.8727 133.89 18.5223 133.222 19.4084ZM133.999 19.4084H133.622C134.253 18.5732 134.71 17.9461 134.991 17.527C135.276 17.1049 135.461 16.7861 135.548 16.5705C135.635 16.352 135.678 16.1275 135.678 15.897C135.678 15.6036 135.633 15.3387 135.543 15.1022C135.457 14.8627 135.332 14.6622 135.171 14.5005C135.012 14.3359 134.821 14.1982 134.596 14.0874C134.371 13.9767 134.125 13.8958 133.855 13.8449C133.589 13.7941 133.3 13.7686 132.988 13.7686C132.414 13.7686 131.815 13.8584 131.192 14.038L131.125 13.7192C131.757 13.5366 132.375 13.4453 132.979 13.4453C133.429 13.4453 133.834 13.4947 134.196 13.5935C134.562 13.6893 134.879 13.8345 135.148 14.029C135.421 14.2236 135.63 14.4796 135.777 14.7969C135.927 15.1142 136.001 15.4809 136.001 15.897C136.001 16.1604 135.958 16.4089 135.871 16.6424C135.787 16.8759 135.602 17.2067 135.314 17.6347C135.03 18.0628 134.591 18.654 133.999 19.4084Z" fill="white"/>
<path d="M125.06 21.2093H124.737V13.7734H125.06V21.2093ZM124.413 21.2093H124.09V13.7734H124.413V21.2093ZM123.767 21.2093H123.443V13.7734H123.767V21.2093ZM123.12 21.2093H122.797V13.7734H123.12V21.2093ZM127.422 17.4914L129.321 13.7734H129.68L127.781 17.4914L129.68 21.2093H129.321L127.422 17.4914ZM126.699 17.4914L128.598 13.7734H128.958L127.058 17.4914L128.958 21.2093H128.598L126.699 17.4914ZM125.976 17.4914L127.875 13.7734H128.235L126.335 17.4914L128.235 21.2093H127.875L125.976 17.4914ZM125.249 17.4914L127.152 13.7734H127.512L125.608 17.4914L127.512 21.2093H127.152L125.249 17.4914Z" fill="white"/>
<path d="M117.921 21.2093H117.598V13.7734H117.921V21.2093ZM117.275 21.2093H116.951V13.7734H117.275V21.2093ZM116.628 21.2093H116.305V13.7734H116.628V21.2093ZM118.568 19.5928H122.007V19.9161H118.568V20.2394H122.007V20.5627H118.568V20.886H122.007V21.2093H118.244V13.7734H122.007V14.0967H118.568V14.42H122.007V14.7433H118.568V15.0666H122.007V15.3899H118.568V16.6831H120.332V17.0064H118.568V17.3297H120.332V17.653H118.568V17.9763H120.332V18.2996H118.568V19.5928Z" fill="white"/>
<path d="M111.406 21.2093H111.082V13.7734H111.406V21.2093ZM110.759 21.2093H110.436V13.7734H110.759V21.2093ZM110.112 21.2093H109.789V13.7734H110.112V21.2093ZM112.052 19.5928H115.492V19.9161H112.052V20.2394H115.492V20.5627H112.052V20.886H115.492V21.2093H111.729V13.7734H115.492V14.0967H112.052V14.42H115.492V14.7433H112.052V15.0666H115.492V15.3899H112.052V16.6831H113.817V17.0064H112.052V17.3297H113.817V17.653H112.052V17.9763H113.817V18.2996H112.052V19.5928Z" fill="white"/>
<path d="M101.237 18.9238L101.084 19.5614L99.5485 13.7734H99.8808L101.237 18.9238ZM101.574 17.68L101.408 18.2996L100.218 13.7734H100.545L101.574 17.68ZM101.91 16.3913L101.74 17.0199L100.882 13.7734H101.219L101.91 16.3913ZM103.19 21.2093H102.853L104.82 13.7824L104.816 13.7734H105.157V13.7824L106.033 16.7999L106.836 13.7734H107.173L105.202 21.2093H104.865L103.985 18.1964L103.19 21.2093ZM102.517 21.2093H102.184L104.151 13.7734H104.483L102.517 21.2093ZM101.848 21.2093H101.515L103.487 13.7734H103.814L101.848 21.2093ZM107.213 21.2093H106.877L108.843 13.7734H109.18L107.213 21.2093ZM106.54 21.2093H106.208L108.174 13.7734H108.507L106.54 21.2093ZM105.871 21.2093H105.539L107.51 13.7734H107.838L105.871 21.2093ZM101.012 20.5717L102.813 13.7734H103.15L101.179 21.2093H100.842L98.875 13.7734H99.2118L101.012 20.5717ZM104.156 17.5632L105.027 20.5987L105.197 19.9566L104.322 16.9301L104.156 17.5632ZM104.488 16.297L105.363 19.3234L105.534 18.6903L104.658 15.6594L104.488 16.297ZM104.82 15.0397L105.7 18.0661L105.866 17.4285L104.995 14.3931L104.82 15.0397Z" fill="white"/>
<path d="M92.5469 13.7734H92.8702V21.2093H92.5469V13.7734ZM94.4867 13.7734H94.81V19.5928H97.3964V19.9161H94.81V20.2394H97.3964V20.5627H94.81V20.886H97.3964V21.2093H94.4867V13.7734ZM93.8401 13.7734H94.1634V21.2093H93.8401V13.7734ZM93.1935 13.7734H93.5168V21.2093H93.1935V13.7734Z" fill="white"/>
<path d="M86.3382 19.2695V15.7132C86.3382 15.7132 87.0731 15.7132 88.543 15.7132C88.8992 15.7132 89.2045 15.8884 89.459 16.2386C89.7164 16.5858 89.8451 17.0034 89.8451 17.4914C89.8451 17.9823 89.7164 18.4014 89.459 18.7487C89.2045 19.0959 88.8992 19.2695 88.543 19.2695H86.3382ZM86.6615 18.9462H88.543C88.8094 18.9462 89.0369 18.804 89.2255 18.5197C89.4171 18.2353 89.5129 17.8925 89.5129 17.4914C89.5129 17.0873 89.4171 16.7445 89.2255 16.4631C89.0369 16.1787 88.8094 16.0365 88.543 16.0365H86.6615V18.9462ZM86.0149 19.5928H88.543C88.989 19.5928 89.3722 19.3878 89.6925 18.9777C90.0158 18.5646 90.1774 18.0691 90.1774 17.4914C90.1774 17.1112 90.1026 16.7595 89.9529 16.4362C89.8062 16.1129 89.6072 15.8584 89.3557 15.6728C89.1072 15.4842 88.8363 15.3899 88.543 15.3899H86.0149V19.5928ZM85.6916 19.9161V15.0666H88.543C88.8932 15.0666 89.2195 15.1744 89.5218 15.3899C89.8242 15.6055 90.0637 15.9003 90.2403 16.2745C90.4199 16.6457 90.5097 17.0513 90.5097 17.4914C90.5097 17.9284 90.4199 18.3341 90.2403 18.7083C90.0637 19.0824 89.8242 19.3773 89.5218 19.5928C89.2195 19.8084 88.8932 19.9161 88.543 19.9161H85.6916ZM85.3683 20.2394H88.543C88.9531 20.2394 89.3333 20.1167 89.6835 19.8712C90.0367 19.6258 90.3181 19.292 90.5277 18.8699C90.7372 18.4478 90.842 17.9883 90.842 17.4914C90.842 16.9975 90.7372 16.5395 90.5277 16.1174C90.3181 15.6923 90.0367 15.357 89.6835 15.1115C89.3303 14.8661 88.9501 14.7433 88.543 14.7433H85.3683V20.2394ZM85.045 20.5627V14.42H88.543C89.01 14.42 89.4455 14.5577 89.8496 14.8331C90.2538 15.1056 90.5756 15.4782 90.815 15.9512C91.0545 16.4242 91.1743 16.9376 91.1743 17.4914C91.1743 18.0452 91.0545 18.5586 90.815 19.0316C90.5756 19.5045 90.2538 19.8787 89.8496 20.1541C89.4455 20.4265 89.01 20.5627 88.543 20.5627H85.045ZM84.7217 20.886H88.543C88.9351 20.886 89.3138 20.7962 89.679 20.6166C90.0442 20.437 90.36 20.196 90.6265 19.8937C90.8929 19.5913 91.1054 19.2306 91.2641 18.8115C91.4257 18.3894 91.5066 17.9494 91.5066 17.4914C91.5066 17.0334 91.4257 16.5948 91.2641 16.1757C91.1054 15.7566 90.8929 15.3959 90.6265 15.0936C90.36 14.7882 90.0442 14.5458 89.679 14.3662C89.3138 14.1865 88.9351 14.0967 88.543 14.0967H84.7217V20.886ZM88.543 21.2093H84.3984V13.7734H88.543C89.1267 13.7734 89.6715 13.9396 90.1774 14.2719C90.6833 14.6041 91.086 15.0562 91.3853 15.6279C91.6877 16.1997 91.8388 16.8208 91.8388 17.4914C91.8388 17.9943 91.749 18.4763 91.5694 18.9373C91.3928 19.3953 91.1563 19.7904 90.86 20.1227C90.5636 20.455 90.2119 20.7199 89.8047 20.9175C89.4006 21.1121 88.98 21.2093 88.543 21.2093Z" fill="white"/>
<path d="M83.2132 13.7734H83.5365V21.2093H83.2132V13.7734ZM82.5666 13.7734H82.8899V21.2093H82.5666V13.7734ZM81.92 13.7734H82.2433V21.2093H81.92V13.7734ZM81.2734 13.7734H81.5967V21.2093H81.2734V13.7734Z" fill="white"/>
<path d="M78.1868 17.9404V13.7734H78.5101V17.9404C78.5101 18.3954 78.3305 18.7846 77.9713 19.1079C77.6121 19.4312 77.181 19.5928 76.6781 19.5928C76.1752 19.5928 75.7441 19.4312 75.3849 19.1079C75.0257 18.7846 74.8461 18.3954 74.8461 17.9404V13.7734H75.1694V17.9404C75.1694 18.3056 75.316 18.6184 75.6094 18.8789C75.9058 19.1393 76.262 19.2695 76.6781 19.2695C77.0942 19.2695 77.4489 19.1393 77.7423 18.8789C78.0386 18.6184 78.1868 18.3056 78.1868 17.9404ZM78.8334 17.9404V13.7734H79.1567V17.9404C79.1567 18.2517 79.0909 18.5496 78.9591 18.834C78.8274 19.1154 78.6508 19.3593 78.4293 19.5659C78.2078 19.7725 77.9443 19.9371 77.639 20.0598C77.3337 20.1796 77.0134 20.2394 76.6781 20.2394C76.3428 20.2394 76.0225 20.1796 75.7172 20.0598C75.4118 19.9371 75.1484 19.7725 74.9269 19.5659C74.7054 19.3593 74.5287 19.1154 74.397 18.834C74.2653 18.5496 74.1995 18.2517 74.1995 17.9404V13.7734H74.5228V17.9404C74.5228 18.2966 74.6185 18.6274 74.8101 18.9328C75.0047 19.2351 75.2666 19.4746 75.5959 19.6512C75.9282 19.8278 76.2889 19.9161 76.6781 19.9161C77.0672 19.9161 77.4265 19.8278 77.7558 19.6512C78.088 19.4746 78.35 19.2351 78.5416 18.9328C78.7361 18.6274 78.8334 18.2966 78.8334 17.9404ZM79.48 17.9404V13.7734H79.8033V17.9404C79.8033 18.3386 79.7195 18.7202 79.5519 19.0854C79.3872 19.4477 79.1657 19.7605 78.8873 20.0239C78.6089 20.2873 78.2766 20.4969 77.8905 20.6525C77.5043 20.8082 77.1002 20.886 76.6781 20.886C76.256 20.886 75.8519 20.8082 75.4657 20.6525C75.0795 20.4969 74.7473 20.2873 74.4689 20.0239C74.1905 19.7605 73.9675 19.4477 73.7998 19.0854C73.6352 18.7202 73.5529 18.3386 73.5529 17.9404V13.7734H73.8762V17.9404C73.8762 18.4134 74.0019 18.8519 74.2533 19.2561C74.5048 19.6572 74.8446 19.976 75.2726 20.2125C75.7037 20.446 76.1722 20.5627 76.6781 20.5627C77.184 20.5627 77.651 20.446 78.0791 20.2125C78.5101 19.976 78.8514 19.6572 79.1028 19.2561C79.3543 18.8519 79.48 18.4134 79.48 17.9404ZM80.1266 17.9404V13.7734H80.4499V17.9404C80.4499 18.587 80.2808 19.1872 79.9425 19.741C79.6043 20.2918 79.1447 20.7289 78.564 21.0522C77.9863 21.3725 77.3576 21.5326 76.6781 21.5326C75.9986 21.5326 75.3684 21.3725 74.7877 21.0522C74.2099 20.7289 73.7519 20.2918 73.4137 19.741C73.0754 19.1872 72.9062 18.587 72.9062 17.9404V13.7734H73.2296V17.9404C73.2296 18.3805 73.3209 18.8026 73.5035 19.2067C73.6861 19.6108 73.9315 19.9595 74.2399 20.2529C74.5482 20.5433 74.9149 20.7753 75.34 20.9489C75.7681 21.1225 76.2141 21.2093 76.6781 21.2093C77.1421 21.2093 77.5866 21.1225 78.0117 20.9489C78.4398 20.7753 78.808 20.5433 79.1163 20.2529C79.4246 19.9595 79.6701 19.6108 79.8527 19.2067C80.0353 18.8026 80.1266 18.3805 80.1266 17.9404Z" fill="white"/>
<path d="M69.9627 18.6184C69.9627 18.5017 69.9268 18.4239 69.855 18.385C69.7861 18.346 69.6843 18.3266 69.5496 18.3266H67.4662V18.0033H69.5496C70.0406 18.0033 70.286 18.2083 70.286 18.6184C70.286 18.849 70.2187 19.0151 70.084 19.1169C69.9493 19.2187 69.7712 19.2695 69.5496 19.2695H67.4662V18.9462H69.5496C69.825 18.9462 69.9627 18.837 69.9627 18.6184ZM67.2865 21.2093H66.9632V15.7132H69.5496C69.7532 15.7132 69.9268 15.7761 70.0705 15.9018C70.2142 16.0246 70.286 16.1787 70.286 16.3643C70.286 16.6098 70.2187 16.7879 70.084 16.8987C69.9493 17.0064 69.7712 17.0603 69.5496 17.0603H67.4662V16.737H69.5496C69.825 16.737 69.9627 16.6128 69.9627 16.3643C69.9627 16.2625 69.9238 16.1832 69.846 16.1263C69.7682 16.0665 69.6694 16.0365 69.5496 16.0365H67.2865V21.2093ZM67.4662 17.3836H69.5496C69.846 17.3836 70.096 17.2953 70.2995 17.1187C70.5061 16.9391 70.6093 16.6876 70.6093 16.3643C70.6093 16.1039 70.5016 15.8764 70.286 15.6818C70.0735 15.4872 69.828 15.3899 69.5496 15.3899H66.6399V21.2093H66.3166V15.0666H69.5496C69.9178 15.0666 70.2396 15.1969 70.5151 15.4573C70.7934 15.7147 70.9326 16.0171 70.9326 16.3643C70.9326 16.6367 70.8683 16.8747 70.7396 17.0783C70.6138 17.2818 70.4432 17.439 70.2277 17.5498C70.6977 17.7174 70.9326 18.0587 70.9326 18.5735C70.9326 18.9807 70.7979 19.307 70.5285 19.5524C70.2591 19.7949 69.9328 19.9161 69.5496 19.9161H67.4662V19.5928H69.5496C69.846 19.5928 70.096 19.5045 70.2995 19.3279C70.5061 19.1483 70.6093 18.8968 70.6093 18.5735C70.6093 18.355 70.5315 18.1619 70.3759 17.9943C70.2202 17.8267 69.9912 17.7294 69.6888 17.7024C69.6589 17.7054 69.6125 17.7069 69.5496 17.7069H67.4662V17.3836ZM71.5792 16.3643C71.5792 16.7834 71.4311 17.1621 71.1347 17.5004C71.4311 17.8297 71.5792 18.1874 71.5792 18.5735C71.5792 18.9477 71.485 19.289 71.2964 19.5973C71.1108 19.9027 70.8623 20.1407 70.551 20.3113C70.2426 20.4789 69.9089 20.5627 69.5496 20.5627H67.4662V20.2394H69.5496C70.0166 20.2394 70.4178 20.0838 70.753 19.7725C71.0883 19.4581 71.2559 19.0585 71.2559 18.5735C71.2559 18.3999 71.211 18.2083 71.1212 17.9988C71.0344 17.7863 70.9132 17.6246 70.7575 17.5138C71.0898 17.2025 71.2559 16.8193 71.2559 16.3643C71.2559 15.9273 71.0853 15.5486 70.7441 15.2283C70.4028 14.905 70.0047 14.7433 69.5496 14.7433H65.9933V21.2093H65.67V14.42H69.5496C69.9059 14.42 70.2396 14.5083 70.551 14.685C70.8653 14.8586 71.1153 15.0966 71.3009 15.3989C71.4864 15.6983 71.5792 16.0201 71.5792 16.3643ZM71.5029 17.5183C71.7693 17.1621 71.9025 16.7774 71.9025 16.3643C71.9025 15.9602 71.7948 15.5845 71.5792 15.2373C71.3667 14.887 71.0793 14.6101 70.7171 14.4066C70.3549 14.2 69.9657 14.0967 69.5496 14.0967H65.3467V21.2093H65.0234V13.7734H69.5496C70.0226 13.7734 70.4642 13.8902 70.8743 14.1237C71.2874 14.3572 71.6152 14.6745 71.8576 15.0756C72.1031 15.4738 72.2258 15.9033 72.2258 16.3643C72.2258 16.8044 72.1016 17.1905 71.8532 17.5228C72.1016 17.8671 72.2258 18.2173 72.2258 18.5735C72.2258 18.9747 72.154 19.3429 72.0103 19.6782C71.8666 20.0104 71.672 20.2873 71.4266 20.5089C71.1841 20.7304 70.9012 20.9025 70.5779 21.0252C70.2546 21.148 69.9119 21.2093 69.5496 21.2093H67.4662V20.886H69.5496C69.864 20.886 70.1648 20.8277 70.4522 20.7109C70.7396 20.5912 70.9895 20.4295 71.2021 20.226C71.4146 20.0224 71.5837 19.7769 71.7095 19.4896C71.8382 19.2022 71.9025 18.8968 71.9025 18.5735C71.9025 18.4299 71.8681 18.2577 71.7993 18.0572C71.7334 17.8536 71.6346 17.674 71.5029 17.5183Z" fill="white"/>
<path d="M98.5815 7.19113L98.7117 6.86783H99.8164L99.9466 7.19113H98.5815ZM98.3301 7.83773L98.4558 7.51443H100.068L100.207 7.83773H98.3301ZM98.0786 8.48433L98.2043 8.16103H100.324L100.458 8.48433H98.0786ZM95.4518 9.3734H95.1016L98.0427 1.9375H98.3929L101.33 9.3734H100.984L98.2178 2.37306L95.4518 9.3734ZM98.2582 3.1409L98.4423 3.554L96.1433 9.3734H95.7976L98.2582 3.1409ZM98.6175 3.99405L98.7881 4.43859L96.8438 9.3734H96.4935L98.6175 3.99405ZM98.9587 4.88312L99.1293 5.33664L97.5353 9.3734H97.1895L98.9587 4.88312ZM103.418 9.3734H103.067L100.131 1.9375H100.476L103.418 9.3734ZM99.7804 1.9375L102.722 9.3734H102.376L99.4347 1.9375H99.7804ZM99.0844 1.9375L102.026 9.3734H101.675L98.7387 1.9375H99.0844Z" fill="white"/>
<path d="M90.4837 9.3734H90.1604V1.9375H90.4837V9.3734ZM89.8371 9.3734H89.5138V1.9375H89.8371V9.3734ZM89.1905 9.3734H88.8672V1.9375H89.1905V9.3734ZM91.1303 7.7569H94.5698V8.0802H91.1303V8.4035H94.5698V8.7268H91.1303V9.0501H94.5698V9.3734H90.807V1.9375H94.5698V2.2608H91.1303V2.5841H94.5698V2.9074H91.1303V3.2307H94.5698V3.554H91.1303V4.8472H92.895V5.1705H91.1303V5.4938H92.895V5.8171H91.1303V6.1404H92.895V6.4637H91.1303V7.7569Z" fill="white"/>
<path d="M83.5599 5.67341H85.5087C85.805 5.67341 86.055 5.57762 86.2586 5.38604C86.4651 5.19445 86.5684 4.92204 86.5684 4.5688C86.5684 4.30837 86.4606 4.07487 86.2451 3.86832C86.0296 3.65877 85.7841 3.554 85.5087 3.554H82.7337V9.3734H82.4104V3.2307H85.5087C85.8739 3.2307 86.1957 3.36691 86.4741 3.63932C86.7525 3.90873 86.8917 4.21856 86.8917 4.5688C86.8917 4.99987 86.757 5.34562 86.4876 5.60606C86.2181 5.8665 85.8919 5.99671 85.5087 5.99671H83.5599V5.67341ZM83.5599 6.32001H85.5087C85.9757 6.32001 86.3768 6.15687 86.7121 5.83057C87.0474 5.50129 87.215 5.0807 87.215 4.5688C87.215 4.12876 87.0429 3.74259 86.6986 3.41031C86.3573 3.07504 85.9607 2.9074 85.5087 2.9074H82.0871V9.3734H81.7638V2.5841H85.5087C85.8649 2.5841 86.1987 2.6754 86.51 2.85801C86.8243 3.04061 87.0743 3.28608 87.2599 3.59441C87.4455 3.89975 87.5383 4.22455 87.5383 4.5688C87.5383 5.15853 87.3377 5.65246 86.9366 6.0506C86.5385 6.44574 86.0625 6.64331 85.5087 6.64331H83.5599V6.32001ZM83.5599 6.96661H85.5087C85.9278 6.96661 86.3169 6.86334 86.6762 6.65678C87.0354 6.45023 87.3228 6.16285 87.5383 5.79465C87.7538 5.42345 87.8616 5.01484 87.8616 4.5688C87.8616 4.16468 87.7538 3.786 87.5383 3.43276C87.3257 3.07653 87.0384 2.79215 86.6762 2.57961C86.3139 2.36707 85.9248 2.2608 85.5087 2.2608H81.4405V9.3734H81.1172V1.9375H85.5087C85.9787 1.9375 86.4202 2.05874 86.8333 2.30121C87.2464 2.54069 87.5742 2.86399 87.8167 3.27111C88.0622 3.67524 88.1849 4.1078 88.1849 4.5688C88.1849 5.10165 88.0696 5.57014 87.8391 5.97426C87.6116 6.37839 87.3018 6.6942 86.9096 6.92171L87.7448 9.3734H87.4036L86.6043 7.07438C86.4846 7.12228 86.3933 7.15521 86.3304 7.17317L87.0803 9.3734H86.739L86.0071 7.2495C85.9802 7.25549 85.8844 7.26597 85.7197 7.28093L86.4157 9.3734H86.0745L85.3874 7.28991H85.0956L85.7512 9.3734H85.4099L84.7498 7.28991H83.5599V6.96661ZM83.3803 9.3734H83.057V3.8773H85.5087C85.7092 3.8773 85.8814 3.94615 86.0251 4.08385C86.1717 4.21856 86.2451 4.38021 86.2451 4.5688C86.2451 5.08968 85.9996 5.35011 85.5087 5.35011H83.5599V5.02681H85.5087C85.6374 5.02681 85.7377 4.99388 85.8095 4.92803C85.8844 4.85918 85.9218 4.73943 85.9218 4.5688C85.9218 4.46403 85.8814 4.37722 85.8005 4.30837C85.7227 4.23652 85.6254 4.2006 85.5087 4.2006H83.3803V9.3734Z" fill="white"/>
<path d="M75.1512 4.40897C74.8039 4.75622 74.6303 5.17532 74.6303 5.66625C74.6303 6.15719 74.8039 6.57628 75.1512 6.92353C75.4984 7.27078 75.9175 7.44441 76.4084 7.44441C76.8994 7.44441 77.3185 7.27078 77.6657 6.92353C78.013 6.57628 78.1866 6.15719 78.1866 5.66625C78.1866 5.17532 78.013 4.75622 77.6657 4.40897C77.3185 4.06173 76.8994 3.8881 76.4084 3.8881C75.9175 3.8881 75.4984 4.06173 75.1512 4.40897ZM74.4731 6.48349C74.3624 6.22305 74.307 5.95064 74.307 5.66625C74.307 5.38187 74.3624 5.11096 74.4731 4.85351C74.5839 4.59308 74.7336 4.36856 74.9222 4.17997C75.1107 3.99138 75.3338 3.8417 75.5912 3.73094C75.8516 3.62018 76.1241 3.5648 76.4084 3.5648C76.6928 3.5648 76.9637 3.62018 77.2212 3.73094C77.4816 3.8417 77.7061 3.99138 77.8947 4.17997C78.0833 4.36856 78.233 4.59308 78.3438 4.85351C78.4545 5.11096 78.5099 5.38187 78.5099 5.66625C78.5099 5.95064 78.4545 6.22305 78.3438 6.48349C78.233 6.74093 78.0833 6.96395 77.8947 7.15254C77.7061 7.34113 77.4816 7.4908 77.2212 7.60157C76.9637 7.71233 76.6928 7.76771 76.4084 7.76771C76.1241 7.76771 75.8516 7.71233 75.5912 7.60157C75.3338 7.4908 75.1107 7.34113 74.9222 7.15254C74.7336 6.96395 74.5839 6.74093 74.4731 6.48349ZM74.307 4.44939C74.0915 4.82058 73.9837 5.22621 73.9837 5.66625C73.9837 6.1063 74.0915 6.51192 74.307 6.88312C74.5255 7.25432 74.8204 7.54918 75.1916 7.76771C75.5628 7.98324 75.9684 8.09101 76.4084 8.09101C76.8485 8.09101 77.2541 7.98324 77.6253 7.76771C77.9965 7.54918 78.2899 7.25432 78.5054 6.88312C78.7239 6.51192 78.8332 6.1063 78.8332 5.66625C78.8332 5.22621 78.7239 4.82058 78.5054 4.44939C78.2899 4.07819 77.9965 3.78483 77.6253 3.56929C77.2541 3.35076 76.8485 3.2415 76.4084 3.2415C75.9684 3.2415 75.5628 3.35076 75.1916 3.56929C74.8204 3.78483 74.5255 4.07819 74.307 4.44939ZM74.0286 7.04477C73.7831 6.62268 73.6604 6.16318 73.6604 5.66625C73.6604 5.16933 73.7831 4.70982 74.0286 4.28774C74.2741 3.86565 74.6078 3.53187 75.0299 3.2864C75.452 3.04094 75.9115 2.9182 76.4084 2.9182C76.9054 2.9182 77.3649 3.04094 77.787 3.2864C78.209 3.53187 78.5428 3.86565 78.7883 4.28774C79.0338 4.70982 79.1565 5.16933 79.1565 5.66625C79.1565 6.16318 79.0338 6.62268 78.7883 7.04477C78.5428 7.46686 78.209 7.80063 77.787 8.0461C77.3649 8.29157 76.9054 8.41431 76.4084 8.41431C75.9115 8.41431 75.452 8.29157 75.0299 8.0461C74.6078 7.80063 74.2741 7.46686 74.0286 7.04477ZM73.5796 4.47184C73.4179 4.85202 73.3371 5.25015 73.3371 5.66625C73.3371 6.08235 73.4179 6.48049 73.5796 6.86067C73.7412 7.24085 73.9582 7.56864 74.2307 7.84404C74.5061 8.11645 74.8338 8.33348 75.214 8.49513C75.5942 8.65678 75.9923 8.73761 76.4084 8.73761C76.8245 8.73761 77.2227 8.65678 77.6029 8.49513C77.983 8.33348 78.3093 8.11645 78.5817 7.84404C78.8571 7.56864 79.0757 7.24085 79.2373 6.86067C79.399 6.48049 79.4798 6.08235 79.4798 5.66625C79.4798 5.25015 79.399 4.85202 79.2373 4.47184C79.0757 4.09166 78.8571 3.76537 78.5817 3.49296C78.3093 3.21755 77.983 2.99903 77.6029 2.83738C77.2227 2.67573 76.8245 2.5949 76.4084 2.5949C75.9923 2.5949 75.5942 2.67573 75.214 2.83738C74.8338 2.99903 74.5061 3.21755 74.2307 3.49296C73.9582 3.76537 73.7412 4.09166 73.5796 4.47184ZM73.4673 7.36807C73.165 6.8472 73.0138 6.27993 73.0138 5.66625C73.0138 5.05258 73.165 4.48531 73.4673 3.96444C73.7726 3.44356 74.1858 3.03195 74.7066 2.72961C75.2275 2.42427 75.7948 2.2716 76.4084 2.2716C77.0221 2.2716 77.5894 2.42427 78.1103 2.72961C78.6311 3.03195 79.0427 3.44356 79.3451 3.96444C79.6504 4.48531 79.8031 5.05258 79.8031 5.66625C79.8031 6.27993 79.6504 6.8472 79.3451 7.36807C79.0427 7.88894 78.6311 8.30205 78.1103 8.60739C77.5894 8.90973 77.0221 9.06091 76.4084 9.06091C75.7948 9.06091 75.2275 8.90973 74.7066 8.60739C74.1858 8.30205 73.7726 7.88894 73.4673 7.36807ZM72.9824 4.22487C72.7878 4.68288 72.6905 5.16334 72.6905 5.66625C72.6905 6.16917 72.7878 6.65112 72.9824 7.11212C73.1799 7.57013 73.4449 7.96528 73.7771 8.29756C74.1094 8.62984 74.5046 8.89477 74.9626 9.09234C75.4236 9.28692 75.9055 9.38421 76.4084 9.38421C76.9114 9.38421 77.3918 9.28692 77.8498 9.09234C78.3108 8.89477 78.7075 8.62984 79.0397 8.29756C79.372 7.96528 79.6355 7.57013 79.83 7.11212C80.0276 6.65112 80.1264 6.16917 80.1264 5.66625C80.1264 5.16334 80.0276 4.68288 79.83 4.22487C79.6355 3.76387 79.372 3.36723 79.0397 3.03495C78.7075 2.70267 78.3108 2.43924 77.8498 2.24466C77.3918 2.04709 76.9114 1.9483 76.4084 1.9483C75.9055 1.9483 75.4236 2.04709 74.9626 2.24466C74.5046 2.43924 74.1094 2.70267 73.7771 3.03495C73.4449 3.36723 73.1799 3.76387 72.9824 4.22487ZM72.686 7.23785C72.4735 6.73793 72.3672 6.21407 72.3672 5.66625C72.3672 5.11844 72.4735 4.59607 72.686 4.09915C72.9015 3.59923 73.1889 3.16966 73.5481 2.81043C73.9103 2.44822 74.3399 2.16084 74.8368 1.9483C75.3368 1.73277 75.8606 1.625 76.4084 1.625C76.9563 1.625 77.4786 1.73277 77.9755 1.9483C78.4755 2.16084 78.905 2.44822 79.2643 2.81043C79.6265 3.16966 79.9139 3.59923 80.1264 4.09915C80.3419 4.59607 80.4497 5.11844 80.4497 5.66625C80.4497 6.21407 80.3419 6.73793 80.1264 7.23785C79.9139 7.73478 79.6265 8.16435 79.2643 8.52656C78.905 8.88579 78.4755 9.17167 77.9755 9.38421C77.4786 9.59974 76.9563 9.70751 76.4084 9.70751C75.8606 9.70751 75.3368 9.59974 74.8368 9.38421C74.3399 9.17167 73.9103 8.88579 73.5481 8.52656C73.1889 8.16435 72.9015 7.73478 72.686 7.23785Z" fill="white"/>
<path d="M67.2865 9.3734H66.9632V1.9375H67.2865V9.3734ZM66.6399 9.3734H66.3166V1.9375H66.6399V9.3734ZM65.9933 9.3734H65.67V1.9375H65.9933V9.3734ZM65.3467 9.3734H65.0234V1.9375H65.3467V9.3734ZM69.6484 5.65545L71.5478 1.9375H71.907L70.0076 5.65545L71.907 9.3734H71.5478L69.6484 5.65545ZM68.9255 5.65545L70.8249 1.9375H71.1841L69.2847 5.65545L71.1841 9.3734H70.8249L68.9255 5.65545ZM68.2026 5.65545L70.1019 1.9375H70.4612L68.5618 5.65545L70.4612 9.3734H70.1019L68.2026 5.65545ZM67.4751 5.65545L69.379 1.9375H69.7382L67.8344 5.65545L69.7382 9.3734H69.379L67.4751 5.65545Z" fill="white"/>
<path d="M164.724 28.8866C164.5 28.8866 164.298 28.834 164.12 28.7289C163.944 28.6203 163.808 28.4732 163.71 28.2875C163.612 28.0983 163.562 27.8864 163.562 27.6517C163.562 27.4134 163.612 27.2015 163.71 27.0158C163.808 26.8266 163.944 26.6795 164.12 26.5744C164.298 26.4658 164.5 26.4115 164.724 26.4115C164.871 26.4115 165.015 26.4518 165.155 26.5324C165.298 26.6094 165.421 26.725 165.523 26.8792L165.486 26.895V26.4062H165.922V28.855H165.486V28.3926L165.523 28.4084C165.417 28.573 165.295 28.6939 165.155 28.771C165.018 28.848 164.874 28.8866 164.724 28.8866ZM164.74 28.503C164.869 28.503 164.992 28.4662 165.107 28.3926C165.223 28.319 165.316 28.2174 165.386 28.0878C165.456 27.9582 165.491 27.8111 165.491 27.6464C165.491 27.4888 165.456 27.3451 165.386 27.2155C165.316 27.0859 165.223 26.9843 165.107 26.9107C164.992 26.8336 164.869 26.7951 164.74 26.7951C164.596 26.7951 164.468 26.8319 164.356 26.9055C164.244 26.9755 164.156 27.0754 164.093 27.205C164.03 27.3346 163.999 27.4835 163.999 27.6517C163.999 27.8163 164.03 27.9635 164.093 28.0931C164.156 28.2227 164.244 28.3243 164.356 28.3979C164.468 28.4679 164.596 28.503 164.74 28.503Z" fill="white"/>
<path d="M161.945 28.8761C161.718 28.8761 161.514 28.8235 161.336 28.7184C161.161 28.6133 161.022 28.4679 160.921 28.2823C160.822 28.0931 160.773 27.8794 160.773 27.6412C160.773 27.4029 160.822 27.191 160.921 27.0053C161.022 26.8161 161.161 26.669 161.336 26.5639C161.514 26.4588 161.718 26.4062 161.945 26.4062C162.173 26.4062 162.359 26.4535 162.502 26.5481C162.649 26.6392 162.756 26.7338 162.823 26.8319C162.889 26.93 162.933 27.0106 162.954 27.0736C163.01 27.2173 163.044 27.3556 163.054 27.4888C163.065 27.6219 163.065 27.7287 163.054 27.8093V27.8303H161.215C161.246 28.023 161.33 28.1824 161.467 28.3085C161.604 28.4311 161.763 28.4924 161.945 28.4924C162.089 28.4924 162.21 28.4697 162.308 28.4241C162.409 28.3751 162.481 28.326 162.523 28.277C162.569 28.228 162.609 28.1789 162.644 28.1299L162.991 28.3085C162.921 28.4627 162.795 28.5958 162.613 28.7079C162.434 28.82 162.212 28.8761 161.945 28.8761ZM162.628 27.452C162.604 27.2488 162.537 27.0876 162.429 26.9685C162.32 26.8494 162.159 26.7899 161.945 26.7899C161.76 26.7899 161.598 26.8529 161.462 26.979C161.329 27.1016 161.246 27.261 161.215 27.4572L162.628 27.452Z" fill="white"/>
<path d="M159.6 26.906C159.645 26.8044 159.712 26.7133 159.799 26.6328C159.891 26.5522 159.994 26.4909 160.11 26.4488C160.225 26.4068 160.344 26.3875 160.467 26.391V26.8114C160.32 26.8044 160.183 26.8394 160.057 26.9165C159.934 26.9901 159.835 27.0899 159.757 27.2161C159.684 27.3387 159.647 27.4718 159.647 27.6154V28.8608H159.211V26.412H159.647V26.9218L159.6 26.906Z" fill="white"/>
<path d="M157.469 28.503C157.609 28.503 157.735 28.4679 157.847 28.3979C157.959 28.3243 158.045 28.2227 158.105 28.0931C158.168 27.9635 158.199 27.8163 158.199 27.6517C158.199 27.4835 158.168 27.3346 158.105 27.205C158.045 27.0754 157.959 26.9755 157.847 26.9055C157.735 26.8319 157.609 26.7951 157.469 26.7951C157.248 26.7951 157.069 26.8739 156.933 27.0316C156.8 27.1892 156.733 27.3959 156.733 27.6517C156.733 27.9039 156.8 28.1088 156.933 28.2665C157.069 28.4241 157.248 28.503 157.469 28.503ZM157.463 26.4062C157.691 26.4062 157.894 26.4606 158.073 26.5692C158.252 26.6743 158.39 26.8214 158.488 27.0106C158.59 27.1962 158.641 27.4099 158.641 27.6517C158.641 27.8899 158.59 28.1036 158.488 28.2928C158.39 28.4784 158.252 28.6256 158.073 28.7342C157.894 28.8393 157.691 28.8918 157.463 28.8918C157.239 28.8918 157.038 28.8393 156.859 28.7342C156.684 28.6256 156.546 28.4784 156.444 28.2928C156.346 28.1036 156.297 27.8899 156.297 27.6517C156.297 27.4099 156.346 27.1962 156.444 27.0106C156.546 26.8214 156.684 26.6743 156.859 26.5692C157.038 26.4606 157.239 26.4062 157.463 26.4062Z" fill="white"/>
<path d="M154.451 26.7208L156.006 28.849H155.46L154.151 27.0623L153.684 27.5773V28.849H153.242V25.0287H153.684V26.9205L155.381 25.0234H155.975L154.451 26.7208Z" fill="white"/>
<path d="M150.736 27.4896C150.736 27.2794 150.685 27.1095 150.584 26.9798C150.482 26.8467 150.349 26.7802 150.184 26.7802C150.069 26.7802 149.96 26.8169 149.858 26.8905C149.757 26.9606 149.676 27.0569 149.617 27.1795C149.557 27.2986 149.527 27.4283 149.527 27.5684V28.8348H149.086V25.1406H149.527V26.8327L149.491 26.8169C149.561 26.6908 149.659 26.5892 149.785 26.5122C149.911 26.4316 150.044 26.3913 150.184 26.3913C150.373 26.3913 150.543 26.4368 150.694 26.5279C150.845 26.619 150.962 26.7451 151.046 26.9063C151.134 27.0674 151.177 27.2496 151.177 27.4528V28.8348H150.736V27.4896Z" fill="white"/>
<path d="M147.501 25.5547H147.943V28.8548H147.501V25.5547ZM147.055 26.4007H148.521V26.7896H147.055V26.4007Z" fill="white"/>
<path d="M144.785 27.8303C144.785 28.0265 144.838 28.1877 144.943 28.3138C145.051 28.4399 145.192 28.503 145.363 28.503C145.559 28.503 145.717 28.4452 145.836 28.3295C145.959 28.2139 146.02 28.0598 146.02 27.8671V26.4062H146.461V28.855H146.02V28.4767L146.062 28.4872C145.989 28.6063 145.883 28.7044 145.747 28.7815C145.61 28.855 145.474 28.8918 145.337 28.8918C145.148 28.8918 144.978 28.848 144.827 28.7605C144.677 28.6694 144.557 28.5468 144.47 28.3926C144.386 28.235 144.344 28.0598 144.344 27.8671V26.4062H144.785V27.8303Z" fill="white"/>
<path d="M142.523 28.503C142.664 28.503 142.79 28.4679 142.902 28.3979C143.014 28.3243 143.1 28.2227 143.159 28.0931C143.222 27.9635 143.254 27.8163 143.254 27.6517C143.254 27.4835 143.222 27.3346 143.159 27.205C143.1 27.0754 143.014 26.9755 142.902 26.9055C142.79 26.8319 142.664 26.7951 142.523 26.7951C142.303 26.7951 142.124 26.8739 141.987 27.0316C141.854 27.1892 141.788 27.3959 141.788 27.6517C141.788 27.9039 141.854 28.1088 141.987 28.2665C142.124 28.4241 142.303 28.503 142.523 28.503ZM142.518 26.4062C142.746 26.4062 142.949 26.4606 143.128 26.5692C143.306 26.6743 143.445 26.8214 143.543 27.0106C143.644 27.1962 143.695 27.4099 143.695 27.6517C143.695 27.8899 143.644 28.1036 143.543 28.2928C143.445 28.4784 143.306 28.6256 143.128 28.7342C142.949 28.8393 142.746 28.8918 142.518 28.8918C142.294 28.8918 142.093 28.8393 141.914 28.7342C141.739 28.6256 141.6 28.4784 141.499 28.2928C141.401 28.1036 141.352 27.8899 141.352 27.6517C141.352 27.4099 141.401 27.1962 141.499 27.0106C141.6 26.8214 141.739 26.6743 141.914 26.5692C142.093 26.4606 142.294 26.4062 142.518 26.4062Z" fill="white"/>
<path d="M138.522 27.8223C138.627 28.0289 138.76 28.1954 138.921 28.3215C139.082 28.4441 139.259 28.5054 139.452 28.5054C139.707 28.5124 139.911 28.4546 140.061 28.332C140.212 28.2094 140.287 28.0465 140.287 27.8433C140.287 27.6996 140.249 27.5823 140.172 27.4912C140.095 27.3966 139.998 27.3213 139.883 27.2652C139.77 27.2092 139.616 27.1444 139.42 27.0708C139.182 26.9832 138.989 26.9009 138.842 26.8238C138.698 26.7432 138.576 26.6329 138.474 26.4928C138.373 26.3491 138.322 26.167 138.322 25.9463C138.322 25.7431 138.373 25.5697 138.474 25.426C138.579 25.2824 138.723 25.172 138.905 25.095C139.087 25.0179 139.292 24.9811 139.52 24.9846C139.699 24.9881 139.862 25.0231 140.009 25.0897C140.159 25.1528 140.289 25.2473 140.398 25.3735C140.51 25.4961 140.595 25.6485 140.655 25.8306L140.261 25.9673C140.205 25.7851 140.11 25.6415 139.977 25.5364C139.844 25.4313 139.69 25.377 139.515 25.3735C139.291 25.37 139.108 25.4208 138.968 25.5259C138.828 25.6275 138.758 25.7676 138.758 25.9463C138.758 26.0864 138.797 26.2037 138.874 26.2983C138.951 26.3894 139.045 26.4647 139.157 26.5243C139.273 26.5803 139.427 26.6434 139.62 26.7135C139.862 26.8046 140.054 26.8904 140.198 26.971C140.341 27.048 140.464 27.1584 140.566 27.302C140.671 27.4422 140.723 27.6243 140.723 27.8485C140.723 28.0587 140.671 28.2426 140.566 28.4003C140.461 28.5579 140.312 28.6806 140.119 28.7681C139.926 28.8557 139.702 28.8978 139.446 28.8943C139.173 28.8908 138.928 28.8154 138.711 28.6683C138.497 28.5177 138.31 28.3022 138.148 28.0219L138.522 27.8223Z" fill="white"/>
<path d="M135.591 29.465H135.266L135.439 28.4141H135.901L135.591 29.465Z" fill="white"/>
<path d="M134.694 25.1406V28.8506H134.258V25.1406H134.694Z" fill="white"/>
<path d="M131.879 27.8303C131.879 28.0265 131.931 28.1877 132.037 28.3138C132.145 28.4399 132.285 28.503 132.457 28.503C132.653 28.503 132.811 28.4452 132.93 28.3295C133.053 28.2139 133.114 28.0598 133.114 27.8671V26.4062H133.555V28.855H133.114V28.4767L133.156 28.4872C133.082 28.6063 132.977 28.7044 132.841 28.7815C132.704 28.855 132.567 28.8918 132.431 28.8918C132.242 28.8918 132.072 28.848 131.921 28.7605C131.77 28.6694 131.651 28.5468 131.564 28.3926C131.48 28.235 131.438 28.0598 131.438 27.8671V26.4062H131.879V27.8303Z" fill="white"/>
<path d="M129.625 28.503C129.765 28.503 129.891 28.4679 130.003 28.3979C130.115 28.3243 130.201 28.2227 130.261 28.0931C130.324 27.9635 130.355 27.8163 130.355 27.6517C130.355 27.4835 130.324 27.3346 130.261 27.205C130.201 27.0754 130.115 26.9755 130.003 26.9055C129.891 26.8319 129.765 26.7951 129.625 26.7951C129.404 26.7951 129.226 26.8739 129.089 27.0316C128.956 27.1892 128.889 27.3959 128.889 27.6517C128.889 27.9039 128.956 28.1088 129.089 28.2665C129.226 28.4241 129.404 28.503 129.625 28.503ZM129.62 26.4062C129.847 26.4062 130.051 26.4606 130.229 26.5692C130.408 26.6743 130.546 26.8214 130.644 27.0106C130.746 27.1962 130.797 27.4099 130.797 27.6517C130.797 27.8899 130.746 28.1036 130.644 28.2928C130.546 28.4784 130.408 28.6256 130.229 28.7342C130.051 28.8393 129.847 28.8918 129.62 28.8918C129.396 28.8918 129.194 28.8393 129.015 28.7342C128.84 28.6256 128.702 28.4784 128.6 28.2928C128.502 28.1036 128.453 27.8899 128.453 27.6517C128.453 27.4099 128.502 27.1962 128.6 27.0106C128.702 26.8214 128.84 26.6743 129.015 26.5692C129.194 26.4606 129.396 26.4062 129.62 26.4062Z" fill="white"/>
<path d="M126.828 28.8761C126.6 28.8761 126.397 28.8235 126.219 28.7184C126.043 28.6133 125.905 28.4679 125.803 28.2823C125.705 28.0931 125.656 27.8794 125.656 27.6412C125.656 27.4029 125.705 27.191 125.803 27.0053C125.905 26.8161 126.043 26.669 126.219 26.5639C126.397 26.4588 126.6 26.4062 126.828 26.4062C127.056 26.4062 127.241 26.4535 127.385 26.5481C127.532 26.6392 127.639 26.7338 127.706 26.8319C127.772 26.93 127.816 27.0106 127.837 27.0736C127.893 27.2173 127.926 27.3556 127.937 27.4888C127.947 27.6219 127.947 27.7287 127.937 27.8093V27.8303H126.098C126.129 28.023 126.213 28.1824 126.35 28.3085C126.487 28.4311 126.646 28.4924 126.828 28.4924C126.972 28.4924 127.093 28.4697 127.191 28.4241C127.292 28.3751 127.364 28.326 127.406 28.277C127.452 28.228 127.492 28.1789 127.527 28.1299L127.874 28.3085C127.804 28.4627 127.678 28.5958 127.495 28.7079C127.317 28.82 127.094 28.8761 126.828 28.8761ZM127.511 27.452C127.487 27.2488 127.42 27.0876 127.312 26.9685C127.203 26.8494 127.042 26.7899 126.828 26.7899C126.642 26.7899 126.481 26.8529 126.345 26.979C126.212 27.1016 126.129 27.261 126.098 27.4572L127.511 27.452Z" fill="white"/>
<path d="M122.834 27.8223C122.939 28.0289 123.072 28.1954 123.233 28.3215C123.395 28.4441 123.571 28.5054 123.764 28.5054C124.02 28.5124 124.223 28.4546 124.374 28.332C124.524 28.2094 124.6 28.0465 124.6 27.8433C124.6 27.6996 124.561 27.5823 124.484 27.4912C124.407 27.3966 124.311 27.3213 124.195 27.2652C124.083 27.2092 123.929 27.1444 123.733 27.0708C123.494 26.9832 123.302 26.9009 123.155 26.8238C123.011 26.7432 122.888 26.6329 122.787 26.4928C122.685 26.3491 122.634 26.167 122.634 25.9463C122.634 25.7431 122.685 25.5697 122.787 25.426C122.892 25.2824 123.035 25.172 123.218 25.095C123.4 25.0179 123.605 24.9811 123.832 24.9846C124.011 24.9881 124.174 25.0231 124.321 25.0897C124.472 25.1528 124.601 25.2473 124.71 25.3735C124.822 25.4961 124.908 25.6485 124.968 25.8306L124.573 25.9673C124.517 25.7851 124.423 25.6415 124.29 25.5364C124.157 25.4313 124.002 25.377 123.827 25.3735C123.603 25.37 123.421 25.4208 123.281 25.5259C123.141 25.6275 123.071 25.7676 123.071 25.9463C123.071 26.0864 123.109 26.2037 123.186 26.2983C123.263 26.3894 123.358 26.4647 123.47 26.5243C123.585 26.5803 123.74 26.6434 123.932 26.7135C124.174 26.8046 124.367 26.8904 124.51 26.971C124.654 27.048 124.777 27.1584 124.878 27.302C124.983 27.4422 125.036 27.6243 125.036 27.8485C125.036 28.0587 124.983 28.2426 124.878 28.4003C124.773 28.5579 124.624 28.6806 124.432 28.7681C124.239 28.8557 124.015 28.8978 123.759 28.8943C123.486 28.8908 123.24 28.8154 123.023 28.6683C122.81 28.5177 122.622 28.3022 122.461 28.0219L122.834 27.8223Z" fill="white"/>
<path d="M118.982 25.0234V28.849H118.641V25.0234H118.982Z" fill="white"/>
<path d="M114.009 28.4894C114.173 28.4894 114.319 28.4526 114.445 28.379C114.574 28.3055 114.674 28.2039 114.744 28.0743C114.818 27.9411 114.855 27.7905 114.855 27.6223C114.855 27.4542 114.818 27.3035 114.744 27.1704C114.674 27.0373 114.574 26.9339 114.445 26.8604C114.319 26.7868 114.173 26.75 114.009 26.75C113.847 26.75 113.704 26.7868 113.578 26.8604C113.455 26.9339 113.357 27.0373 113.283 27.1704C113.213 27.3035 113.178 27.4542 113.178 27.6223C113.178 27.7905 113.213 27.9411 113.283 28.0743C113.357 28.2039 113.455 28.3055 113.578 28.379C113.704 28.4526 113.847 28.4894 114.009 28.4894ZM112.742 27.6223C112.742 27.3841 112.809 27.1459 112.942 26.9077L114.035 24.9844L114.419 25.1998L113.73 26.3927C113.842 26.3717 113.939 26.3612 114.019 26.3612C114.268 26.3612 114.487 26.4155 114.676 26.5241C114.869 26.6327 115.019 26.7816 115.128 26.9707C115.237 27.1599 115.291 27.3771 115.291 27.6223C115.291 27.8641 115.237 28.0813 115.128 28.2739C115.019 28.4631 114.869 28.612 114.676 28.7206C114.483 28.8257 114.264 28.8783 114.019 28.8783C113.77 28.8783 113.55 28.8257 113.357 28.7206C113.164 28.612 113.014 28.4631 112.905 28.2739C112.796 28.0813 112.742 27.8641 112.742 27.6223Z" fill="white"/>
<path d="M109.818 28.463C109.909 28.3754 109.984 28.3036 110.044 28.2475C110.104 28.1915 110.179 28.1214 110.27 28.0373C110.575 27.7571 110.82 27.5224 111.006 27.3332C111.195 27.144 111.354 26.9496 111.484 26.7499C111.617 26.5502 111.684 26.3663 111.684 26.1981C111.684 25.9599 111.615 25.7672 111.479 25.6201C111.345 25.4694 111.17 25.3941 110.953 25.3941C110.799 25.3941 110.648 25.4467 110.501 25.5518C110.358 25.6569 110.249 25.7935 110.175 25.9616L109.781 25.7882C109.883 25.557 110.042 25.3678 110.259 25.2207C110.48 25.0736 110.713 25 110.958 25C111.183 25 111.382 25.0508 111.557 25.1524C111.736 25.254 111.874 25.3959 111.973 25.578C112.071 25.7567 112.12 25.9616 112.12 26.1929C112.12 26.4241 112.046 26.6588 111.899 26.897C111.752 27.1352 111.575 27.3595 111.368 27.5697C111.165 27.7798 110.902 28.0286 110.58 28.3158C110.419 28.463 110.266 28.6049 110.123 28.7415L109.818 28.463ZM109.818 28.463H112.183V28.8518H109.871L109.818 28.463Z" fill="white"/>
<path d="M107.647 28.484C107.878 28.484 108.08 28.4209 108.251 28.2948C108.426 28.1687 108.56 27.99 108.651 27.7588C108.745 27.5241 108.792 27.2491 108.792 26.9338C108.792 26.6185 108.745 26.3453 108.651 26.114C108.56 25.8793 108.426 25.6989 108.251 25.5728C108.08 25.4467 107.878 25.3836 107.647 25.3836C107.412 25.3836 107.207 25.4467 107.032 25.5728C106.86 25.6989 106.727 25.8793 106.633 26.114C106.538 26.3488 106.491 26.622 106.491 26.9338C106.491 27.2491 106.538 27.5241 106.633 27.7588C106.727 27.99 106.862 28.1687 107.037 28.2948C107.213 28.4209 107.416 28.484 107.647 28.484ZM107.647 28.8729C107.325 28.8729 107.043 28.794 106.801 28.6364C106.563 28.4788 106.379 28.2545 106.249 27.9638C106.119 27.6695 106.055 27.3262 106.055 26.9338C106.055 26.5414 106.119 26.1999 106.249 25.9091C106.379 25.6183 106.563 25.3941 106.801 25.2365C107.043 25.0788 107.325 25 107.647 25C107.966 25 108.244 25.0788 108.482 25.2365C108.724 25.3941 108.908 25.6183 109.034 25.9091C109.164 26.1999 109.229 26.5414 109.229 26.9338C109.229 27.3262 109.164 27.6695 109.034 27.9638C108.908 28.2545 108.724 28.4788 108.482 28.6364C108.244 28.794 107.966 28.8729 107.647 28.8729Z" fill="white"/>
<path d="M103.131 28.463C103.222 28.3754 103.297 28.3036 103.356 28.2475C103.416 28.1915 103.491 28.1214 103.582 28.0373C103.887 27.7571 104.132 27.5224 104.318 27.3332C104.507 27.144 104.667 26.9496 104.796 26.7499C104.929 26.5502 104.996 26.3663 104.996 26.1981C104.996 25.9599 104.928 25.7672 104.791 25.6201C104.658 25.4694 104.483 25.3941 104.266 25.3941C104.111 25.3941 103.961 25.4467 103.814 25.5518C103.67 25.6569 103.561 25.7935 103.488 25.9616L103.094 25.7882C103.195 25.557 103.355 25.3678 103.572 25.2207C103.793 25.0736 104.026 25 104.271 25C104.495 25 104.695 25.0508 104.87 25.1524C105.049 25.254 105.187 25.3959 105.285 25.578C105.383 25.7567 105.432 25.9616 105.432 26.1929C105.432 26.4241 105.359 26.6588 105.211 26.897C105.064 27.1352 104.887 27.3595 104.681 27.5697C104.478 27.7798 104.215 28.0286 103.892 28.3158C103.731 28.463 103.579 28.6049 103.435 28.7415L103.131 28.463ZM103.131 28.463H105.495V28.8518H103.183L103.131 28.463Z" fill="white"/>
<path d="M100.67 29.465H100.344L100.517 28.4141H100.98L100.67 29.465Z" fill="white"/>
<path d="M99.2594 27.4896C99.2594 27.2794 99.2086 27.1095 99.107 26.9798C99.0054 26.8467 98.8723 26.7802 98.7076 26.7802C98.592 26.7802 98.4834 26.8169 98.3818 26.8905C98.2803 26.9606 98.1997 27.0569 98.1401 27.1795C98.0806 27.2986 98.0508 27.4283 98.0508 27.5684V28.8348H97.6094V25.1406H98.0508V26.8327L98.014 26.8169C98.0841 26.6908 98.1822 26.5892 98.3083 26.5122C98.4344 26.4316 98.5675 26.3913 98.7076 26.3913C98.8968 26.3913 99.0667 26.4368 99.2174 26.5279C99.368 26.619 99.4854 26.7451 99.5695 26.9063C99.657 27.0674 99.7008 27.2496 99.7008 27.4528V28.8348H99.2594V27.4896Z" fill="white"/>
<path d="M96.0404 25.5547H96.4818V28.8548H96.0404V25.5547ZM95.5938 26.4007H97.0599V26.7896H95.5938V26.4007Z" fill="white"/>
<path d="M93.7978 25.3889C93.5491 25.3889 93.3459 25.4694 93.1883 25.6306C93.0306 25.7917 92.9518 26.0002 92.9518 26.2559C92.9518 26.4241 92.9886 26.5747 93.0621 26.7078C93.1357 26.841 93.2355 26.9443 93.3617 27.0179C93.4913 27.0915 93.6367 27.1282 93.7978 27.1282C93.959 27.1282 94.1026 27.0915 94.2287 27.0179C94.3548 26.9443 94.4529 26.841 94.523 26.7078C94.5931 26.5747 94.6281 26.4241 94.6281 26.2559C94.6281 26.0878 94.5931 25.9389 94.523 25.8093C94.4529 25.6761 94.3548 25.5728 94.2287 25.4992C94.1026 25.4256 93.959 25.3889 93.7978 25.3889ZM95.0643 26.2559C95.0643 26.4941 94.9977 26.7306 94.8646 26.9653L93.7715 28.8886L93.3932 28.6784L94.0763 27.4856C93.9677 27.5066 93.8714 27.5171 93.7873 27.5171C93.5421 27.5171 93.3231 27.4628 93.1305 27.3542C92.9378 27.2456 92.7871 27.0967 92.6785 26.9075C92.5699 26.7149 92.5156 26.4976 92.5156 26.2559C92.5156 26.0107 92.5699 25.7935 92.6785 25.6043C92.7871 25.4151 92.9378 25.268 93.1305 25.1629C93.3231 25.0543 93.5438 25 93.7926 25C94.0378 25 94.2568 25.0543 94.4494 25.1629C94.6421 25.268 94.7928 25.4151 94.9014 25.6043C95.01 25.7935 95.0643 26.0107 95.0643 26.2559Z" fill="white"/>
<path d="M91.7127 28.8306H91.2766V25.5252L90.5566 26.0192L90.3359 25.6723L91.2766 25.0312H91.7127V28.8306Z" fill="white"/>
<path d="M89.7282 26.6797V27.1158H87.4844V26.6797H89.7282Z" fill="white"/>
<path d="M86.2672 27.4896C86.2672 27.2794 86.2164 27.1095 86.1148 26.9798C86.0132 26.8467 85.8801 26.7802 85.7155 26.7802C85.5999 26.7802 85.4913 26.8169 85.3897 26.8905C85.2881 26.9606 85.2075 27.0569 85.1479 27.1795C85.0884 27.2986 85.0586 27.4283 85.0586 27.5684V28.8348H84.6172V25.1406H85.0586V26.8327L85.0218 26.8169C85.0919 26.6908 85.19 26.5892 85.3161 26.5122C85.4422 26.4316 85.5753 26.3913 85.7155 26.3913C85.9046 26.3913 86.0745 26.4368 86.2252 26.5279C86.3758 26.619 86.4932 26.7451 86.5773 26.9063C86.6649 27.0674 86.7086 27.2496 86.7086 27.4528V28.8348H86.2672V27.4896Z" fill="white"/>
<path d="M83.0326 25.5547H83.474V28.8548H83.0326V25.5547ZM82.5859 26.4007H84.0521V26.7896H82.5859V26.4007Z" fill="white"/>
<path d="M80.7689 28.8726C80.5376 28.8726 80.3274 28.8235 80.1383 28.7255C79.9491 28.6274 79.7984 28.4942 79.6863 28.3261C79.5777 28.1544 79.5234 27.9635 79.5234 27.7533H79.9596C79.9596 27.8899 79.9946 28.0143 80.0647 28.1264C80.1383 28.235 80.2364 28.3226 80.359 28.3891C80.4816 28.4522 80.6182 28.4837 80.7689 28.4837C80.9265 28.4837 81.0719 28.4469 81.205 28.3734C81.3416 28.2998 81.4467 28.2 81.5203 28.0738C81.5974 27.9477 81.6359 27.8093 81.6359 27.6587C81.6359 27.5116 81.5974 27.3767 81.5203 27.2541C81.4467 27.1315 81.3434 27.0351 81.2103 26.9651C81.0806 26.895 80.937 26.86 80.7794 26.86H80.5744V26.4658H80.7794C81.0176 26.4658 81.2348 26.5184 81.431 26.6235C81.6307 26.7286 81.7866 26.8722 81.8987 27.0544C82.0108 27.2331 82.0668 27.4327 82.0668 27.6535C82.0668 27.8777 82.009 28.0844 81.8934 28.2735C81.7813 28.4592 81.6254 28.6063 81.4257 28.7149C81.226 28.82 81.0071 28.8726 80.7689 28.8726ZM80.2644 26.5762L81.3311 25.4201H81.8881L80.5744 26.86L80.2644 26.5762ZM79.7021 25.0312H81.8356L81.8881 25.4201H79.7021V25.0312Z" fill="white"/>
<path d="M78.7205 28.8306H78.2844V25.5252L77.5645 26.0192L77.3438 25.6723L78.2844 25.0312H78.7205V28.8306Z" fill="white"/>
<path d="M75.5377 25.1406V28.8506H75.1016V25.1406H75.5377Z" fill="white"/>
<path d="M74.3506 26.4014V28.8554H73.9145V26.4014H74.3506ZM74.1352 25.1875C74.2123 25.1875 74.2753 25.212 74.3244 25.2611C74.3734 25.3101 74.3979 25.3732 74.3979 25.4502C74.3979 25.5273 74.3734 25.5921 74.3244 25.6447C74.2753 25.6937 74.2123 25.7182 74.1352 25.7182C74.0581 25.7182 73.9933 25.6937 73.9408 25.6447C73.8917 25.5921 73.8672 25.5273 73.8672 25.4502C73.8672 25.3732 73.8917 25.3101 73.9408 25.2611C73.9933 25.212 74.0581 25.1875 74.1352 25.1875Z" fill="white"/>
<path d="M72.4123 26.906C72.4578 26.8044 72.5244 26.7133 72.612 26.6328C72.7031 26.5522 72.8064 26.4909 72.922 26.4488C73.0376 26.4068 73.1567 26.3875 73.2794 26.391V26.8114C73.1322 26.8044 72.9956 26.8394 72.8695 26.9165C72.7469 26.9901 72.647 27.0899 72.5699 27.2161C72.4964 27.3387 72.4596 27.4718 72.4596 27.6154V28.8608H72.0234V26.412H72.4596V26.9218L72.4123 26.906Z" fill="white"/>
<path d="M70.2735 28.503C70.4978 28.503 70.6782 28.4241 70.8148 28.2665C70.9514 28.1053 71.0197 27.8986 71.0197 27.6464C71.0197 27.4783 70.9882 27.3294 70.9252 27.1997C70.8621 27.0701 70.7745 26.9703 70.6624 26.9002C70.5503 26.8266 70.4207 26.7899 70.2735 26.7899C70.1439 26.7899 70.0213 26.8284 69.9057 26.9055C69.7901 26.9825 69.6973 27.0876 69.6272 27.2208C69.5606 27.3504 69.5274 27.4923 69.5274 27.6464C69.5274 27.8006 69.5606 27.9442 69.6272 28.0773C69.6938 28.2069 69.7848 28.3103 69.9004 28.3874C70.0196 28.4644 70.1439 28.503 70.2735 28.503ZM70.2893 26.4062C70.517 26.4062 70.7185 26.4606 70.8936 26.5692C71.0723 26.6743 71.2107 26.8214 71.3088 27.0106C71.4069 27.1962 71.4559 27.4082 71.4559 27.6464C71.4559 27.8846 71.4069 28.0983 71.3088 28.2875C71.2107 28.4767 71.0723 28.6256 70.8936 28.7342C70.7185 28.8393 70.517 28.8918 70.2893 28.8918C70.1457 28.8918 69.9968 28.848 69.8426 28.7605C69.6885 28.6729 69.5694 28.5573 69.4853 28.4136L69.5221 28.3874V29.9796H69.0859V26.4062H69.5221V26.9055L69.4853 26.8844C69.5659 26.7338 69.6832 26.6164 69.8374 26.5324C69.9915 26.4483 70.1422 26.4062 70.2893 26.4062Z" fill="white"/>
<path d="M68.3871 28.849H67.9195L67.5148 27.7665H65.849L65.4286 28.849H64.9609L66.4271 25.0234H66.9473L68.3871 28.849ZM67.3677 27.3829L66.6898 25.5805L65.9909 27.3829H67.3677Z" fill="white"/>
<path d="M49.6498 9.10772C49.7081 8.97797 49.849 8.90658 49.9879 8.93644C50.1268 8.96631 50.226 9.08933 50.226 9.23164V13.7198C51.6906 14.9336 53.6014 15.6933 55.425 16.146C57.2903 16.6092 59.0376 16.7447 60.0672 16.7284C60.148 16.7271 60.2259 16.7584 60.2835 16.8151C60.341 16.8719 60.3734 16.9494 60.3734 17.0303V19.7975C60.3734 19.9404 60.2733 20.0638 60.1336 20.093C58.1999 20.4972 53.1008 21.4151 48.143 21.8592C41.9428 22.4145 32.2304 22.2628 26.2938 21.8597C21.5306 21.5362 16.4434 20.5467 14.4909 20.0915C14.3544 20.0597 14.2578 19.9379 14.2578 19.7975V17.0303L14.2593 17.0005C14.2737 16.8536 14.3934 16.7367 14.5434 16.7288C19.6635 16.4589 23.0581 14.642 24.2043 13.7189V9.23164C24.2043 9.08933 24.3035 8.96631 24.4424 8.93644C24.5814 8.90658 24.7222 8.97797 24.7806 9.10772C24.9322 9.44515 25.2272 9.7522 25.5582 10.0037C25.8721 10.2422 26.1954 10.4133 26.4005 10.5003C28.4564 10.8776 29.5976 11.1482 31.0666 11.3282C32.5364 11.5083 34.3303 11.5964 37.6673 11.5964C42.991 11.5964 46.5374 10.8606 47.6203 10.5045L47.6239 10.5033C48.9667 10.0807 49.5415 9.34863 49.6498 9.10772ZM49.6232 10.0827C49.228 10.44 48.6339 10.8183 47.8046 11.0794L47.8045 11.0793C46.6396 11.4614 43.0278 12.2001 37.6673 12.2001C34.323 12.2001 32.5 12.1121 30.9934 11.9274C29.4936 11.7436 28.3031 11.4627 26.2599 11.0883C26.2396 11.0846 26.2196 11.0788 26.2005 11.0709C25.9513 10.9693 25.5664 10.7677 25.1939 10.4847C25.0639 10.3859 24.9324 10.2745 24.8071 10.1516V13.8605C24.8071 13.9483 24.7689 14.0318 24.7025 14.0892C23.5778 15.0596 20.1045 16.9771 14.8606 17.3147V19.5568C16.9426 20.0274 21.7925 20.9489 26.3346 21.2573C32.2534 21.6592 41.9317 21.8093 48.0892 21.2578C52.8245 20.8336 57.6953 19.9735 59.7706 19.5512V17.3327C58.6743 17.3213 57.026 17.1656 55.2799 16.7321C53.3649 16.2566 51.3053 15.4405 49.7286 14.09C49.6617 14.0326 49.6232 13.9487 49.6232 13.8605V10.0827Z" fill="white"/>
<path d="M47.8445 12.3113C47.9335 12.2924 48.0263 12.3146 48.097 12.3717C48.1676 12.4288 48.2087 12.5147 48.2087 12.6055V14.6643C49.7733 15.8549 54.1755 18.1201 60.0626 18.1201C60.229 18.1201 60.3639 18.2548 60.3639 18.4209C60.3639 18.587 60.229 18.7217 60.0626 18.7217C53.8826 18.7217 49.2763 16.2897 47.7191 15.0462C47.6476 14.9892 47.606 14.9027 47.606 14.8113V12.9767C44.8026 13.5692 43.556 13.7847 42.3455 13.8644C41.1052 13.9461 39.8741 13.8846 37.0157 13.959C32.67 14.0721 28.4309 13.4022 26.5101 12.9827V14.8113C26.5101 14.8988 26.4719 14.982 26.4055 15.0391C24.7469 16.4669 22.4136 17.384 20.2063 17.9514C17.9942 18.52 15.8739 18.7462 14.6121 18.7717C14.4457 18.7751 14.3081 18.6432 14.3048 18.4771C14.3014 18.311 14.4335 18.1737 14.5999 18.1703C15.816 18.1457 17.8899 17.9256 20.056 17.3688C22.1788 16.8231 24.357 15.9621 25.9074 14.6718V12.6055C25.9074 12.5134 25.9497 12.4264 26.0221 12.3693C26.0946 12.3123 26.1893 12.2915 26.2791 12.313C27.9337 12.7094 32.4107 13.4771 37 13.3576C39.9177 13.2816 41.0725 13.3454 42.3059 13.2642C43.518 13.1844 44.7787 12.9634 47.8445 12.3113Z" fill="white"/>
<path d="M20.0223 20.7565V17.6377C20.0223 17.4711 20.1565 17.3359 20.322 17.3359C20.4876 17.3359 20.6217 17.4711 20.6217 17.6377V20.7565C20.6217 20.9232 20.4876 21.0583 20.322 21.0583C20.1565 21.0583 20.0223 20.9232 20.0223 20.7565ZM17.125 20.3541V18.2414C17.125 18.0747 17.2592 17.9396 17.4247 17.9396C17.5903 17.9396 17.7244 18.0747 17.7244 18.2414V20.3541C17.7244 20.5207 17.5903 20.6559 17.4247 20.6559C17.2592 20.6559 17.125 20.5207 17.125 20.3541Z" fill="white"/>
<path d="M26.0847 21.3817V12.7147C26.0847 12.5486 26.221 12.4141 26.3892 12.4141C26.5574 12.4141 26.6938 12.5486 26.6938 12.7147V21.3817C26.6938 21.5477 26.5574 21.6823 26.3892 21.6823C26.221 21.6823 26.0847 21.5477 26.0847 21.3817ZM23.1406 21.1312V16.6223C23.1406 16.4563 23.277 16.3218 23.4452 16.3218C23.6134 16.3218 23.7497 16.4563 23.7497 16.6223V21.1312C23.7497 21.2972 23.6134 21.4318 23.4452 21.4318C23.277 21.4318 23.1406 21.2972 23.1406 21.1312Z" fill="white"/>
<path d="M28.8203 21.65V13.1927C28.8203 13.0259 28.955 12.8906 29.1211 12.8906C29.2872 12.8906 29.4219 13.0259 29.4219 13.1927V21.65C29.4219 21.8168 29.2872 21.9521 29.1211 21.9521C28.955 21.9521 28.8203 21.8168 28.8203 21.65Z" fill="white"/>
<path d="M31.5156 21.7471V13.4577C31.5156 13.2912 31.6503 13.1562 31.8164 13.1562C31.9825 13.1562 32.1172 13.2912 32.1172 13.4577V21.7471C32.1172 21.9135 31.9825 22.0485 31.8164 22.0485C31.6503 22.0485 31.5156 21.9135 31.5156 21.7471Z" fill="white"/>
<path d="M34.1328 21.7708V13.7613C34.1328 13.5954 34.2717 13.4609 34.443 13.4609C34.6143 13.4609 34.7532 13.5954 34.7532 13.7613V21.7708C34.7532 21.9367 34.6143 22.0712 34.443 22.0712C34.2717 22.0712 34.1328 21.9367 34.1328 21.7708Z" fill="white"/>
<path d="M36.8438 21.7708V13.7613C36.8438 13.5954 36.9826 13.4609 37.1539 13.4609C37.3253 13.4609 37.4641 13.5954 37.4641 13.7613V21.7708C37.4641 21.9367 37.3253 22.0712 37.1539 22.0712C36.9826 22.0712 36.8438 21.9367 36.8438 21.7708Z" fill="white"/>
<path d="M39.5938 21.7708V13.7613C39.5938 13.5954 39.7242 13.4609 39.8851 13.4609C40.0461 13.4609 40.1765 13.5954 40.1765 13.7613V21.7708C40.1765 21.9367 40.0461 22.0712 39.8851 22.0712C39.7242 22.0712 39.5938 21.9367 39.5938 21.7708Z" fill="white"/>
<path d="M42.2969 21.7718L42.2969 13.5734C42.2969 13.4077 42.4273 13.2734 42.5883 13.2734C42.7492 13.2734 42.8797 13.4077 42.8797 13.5734L42.8797 21.7718C42.8797 21.9374 42.7492 22.0717 42.5883 22.0717C42.4273 22.0717 42.2969 21.9374 42.2969 21.7718Z" fill="white"/>
<path d="M45.0078 21.496L45.0078 13.1682C45.0078 13.002 45.1383 12.8672 45.2992 12.8672C45.4601 12.8672 45.5906 13.002 45.5906 13.1682L45.5906 21.496C45.5906 21.6623 45.4601 21.797 45.2992 21.797C45.1383 21.797 45.0078 21.6623 45.0078 21.496Z" fill="white"/>
<path d="M47.6016 21.496V13.1682C47.6016 13.002 47.7362 12.8672 47.9024 12.8672C48.0685 12.8672 48.2032 13.002 48.2032 13.1682V21.496C48.2032 21.6623 48.0685 21.797 47.9024 21.797C47.7362 21.797 47.6016 21.6623 47.6016 21.496Z" fill="white"/>
<path d="M50.7031 21.2424V16.7305C50.7031 16.5644 50.8462 16.4297 51.0227 16.4297C51.1992 16.4297 51.3423 16.5644 51.3423 16.7305V21.2424C51.3423 21.4085 51.1992 21.5432 51.0227 21.5432C50.8462 21.5432 50.7031 21.4085 50.7031 21.2424Z" fill="white"/>
<path d="M49.2422 24.1009L49.2422 21.4889C49.2422 21.3224 49.3726 21.1875 49.5336 21.1875C49.6945 21.1875 49.825 21.3224 49.825 21.4889L49.825 24.1009C49.825 24.2673 49.6945 24.4022 49.5336 24.4022C49.3726 24.4022 49.2422 24.2673 49.2422 24.1009Z" fill="white"/>
<path d="M24.5938 24.071L24.5938 21.4438C24.5938 21.2763 24.7326 21.1406 24.9039 21.1406C25.0753 21.1406 25.2141 21.2763 25.2141 21.4438L25.2141 24.071C25.2141 24.2384 25.0753 24.3742 24.9039 24.3742C24.7326 24.3742 24.5938 24.2384 24.5938 24.071Z" fill="white"/>
<path d="M20.6094 26.1642L20.6094 24.0586C20.6094 23.8925 20.7398 23.7578 20.9008 23.7578C21.0617 23.7578 21.1922 23.8925 21.1922 24.0586L21.1922 26.1642C21.1922 26.3303 21.0617 26.465 20.9008 26.465C20.7398 26.465 20.6094 26.3303 20.6094 26.1642Z" fill="white"/>
<path d="M52.8203 26.1642L52.8203 24.0586C52.8203 23.8925 52.9508 23.7578 53.1117 23.7578C53.2726 23.7578 53.4031 23.8925 53.4031 24.0586L53.4031 26.1642C53.4031 26.3303 53.2726 26.465 53.1117 26.465C52.9508 26.465 52.8203 26.3303 52.8203 26.1642Z" fill="white"/>
<path d="M53.1021 24.4063L21.1994 24.4063C21.0332 24.4063 20.8984 24.2716 20.8984 24.1055C20.8984 23.9393 21.0332 23.8047 21.1994 23.8047L53.1021 23.8047L53.1176 23.8051C53.2766 23.8131 53.4031 23.9445 53.4031 24.1055C53.4031 24.2664 53.2766 24.3978 53.1176 24.4059L53.1021 24.4063Z" fill="white"/>
<path d="M56.6624 26.4766L17.7857 26.4766C17.6193 26.4766 17.4844 26.3377 17.4844 26.1664C17.4844 25.995 17.6193 25.8562 17.7857 25.8562L56.6624 25.8562C56.8288 25.8562 56.9637 25.9951 56.9637 26.1664C56.9637 26.3377 56.8288 26.4766 56.6624 26.4766Z" fill="white"/>
<path d="M17.4844 28.4208V20.5827C17.4844 20.4162 17.619 20.2812 17.7852 20.2812C17.9513 20.2812 18.086 20.4162 18.086 20.5827V28.4208C18.086 28.5873 17.9513 28.7223 17.7852 28.7223C17.619 28.7223 17.4844 28.5873 17.4844 28.4208Z" fill="white"/>
<path d="M56.3359 28.4208V20.5827C56.3359 20.4162 56.4748 20.2812 56.6461 20.2812C56.8174 20.2812 56.9563 20.4162 56.9563 20.5827V28.4208C56.9563 28.5873 56.8174 28.7223 56.6461 28.7223C56.4748 28.7223 56.3359 28.5873 56.3359 28.4208Z" fill="white"/>
<path d="M56.6624 28.7266L17.7857 28.7266C17.6193 28.7266 17.4844 28.5961 17.4844 28.4352C17.4844 28.2742 17.6193 28.1438 17.7857 28.1438L56.6624 28.1438C56.8288 28.1438 56.9637 28.2742 56.9637 28.4352C56.9637 28.5961 56.8288 28.7266 56.6624 28.7266Z" fill="white"/>
<path d="M47.8125 24.0756L47.8125 21.6542C47.8125 21.4871 47.943 21.3516 48.1039 21.3516C48.2648 21.3516 48.3953 21.4871 48.3953 21.6542L48.3953 24.0756C48.3953 24.2428 48.2648 24.3783 48.1039 24.3783C47.943 24.3783 47.8125 24.2428 47.8125 24.0756Z" fill="white"/>
<path d="M26.625 24.0756L26.625 21.6542C26.625 21.4871 26.4903 21.3516 26.3242 21.3516C26.1581 21.3516 26.0234 21.4871 26.0234 21.6542L26.0234 24.0756C26.0234 24.2428 26.1581 24.3783 26.3242 24.3783C26.4903 24.3783 26.625 24.2428 26.625 24.0756Z" fill="white"/>
<path d="M23.1172 28.4307L23.1172 26.2298C23.1172 26.0641 22.9783 25.9297 22.807 25.9297C22.6357 25.9297 22.4968 26.0641 22.4968 26.2298L22.4968 28.4307C22.4968 28.5965 22.6357 28.7308 22.807 28.7308C22.9783 28.7308 23.1172 28.5965 23.1172 28.4307Z" fill="white"/>
<path d="M32.7344 28.4307L32.7344 26.2298C32.7344 26.0641 32.6039 25.9297 32.443 25.9297C32.282 25.9297 32.1516 26.0641 32.1516 26.2298L32.1516 28.4307C32.1516 28.5965 32.282 28.7308 32.443 28.7308C32.6039 28.7308 32.7344 28.5965 32.7344 28.4307Z" fill="white"/>
<path d="M42.2969 28.4307L42.2969 26.2298C42.2969 26.0641 42.158 25.9297 41.9867 25.9297C41.8154 25.9297 41.6765 26.0641 41.6765 26.2298L41.6765 28.4307C41.6765 28.5965 41.8154 28.7308 41.9867 28.7308C42.158 28.7308 42.2969 28.5965 42.2969 28.4307Z" fill="white"/>
<path d="M51.8516 28.4307L51.8516 26.2298C51.8516 26.0641 51.7169 25.9297 51.5508 25.9297C51.3846 25.9297 51.25 26.0641 51.25 26.2298L51.25 28.4307C51.25 28.5965 51.3846 28.7308 51.5508 28.7308C51.7169 28.7308 51.8516 28.5965 51.8516 28.4307Z" fill="white"/>
<path d="M31.7344 24.0804L31.7344 21.9456C31.7344 21.7772 31.869 21.6406 32.0352 21.6406C32.2013 21.6406 32.336 21.7772 32.336 21.9456L32.336 24.0804C32.336 24.2488 32.2013 24.3854 32.0352 24.3854C31.869 24.3854 31.7344 24.2488 31.7344 24.0804Z" fill="white"/>
<path d="M33.0703 24.0804L33.0703 21.9456C33.0703 21.7772 33.2008 21.6406 33.3617 21.6406C33.5226 21.6406 33.6531 21.7772 33.6531 21.9456L33.6531 24.0804C33.6531 24.2488 33.5226 24.3854 33.3617 24.3854C33.2008 24.3854 33.0703 24.2488 33.0703 24.0804Z" fill="white"/>
<path d="M41 24.0804L41 21.9456C41 21.7772 41.1305 21.6406 41.2914 21.6406C41.4523 21.6406 41.5828 21.7772 41.5828 21.9456L41.5828 24.0804C41.5828 24.2488 41.4523 24.3854 41.2914 24.3854C41.1305 24.3854 41 24.2488 41 24.0804Z" fill="white"/>
<path d="M42.2969 24.0804L42.2969 21.9456C42.2969 21.7772 42.4273 21.6406 42.5883 21.6406C42.7492 21.6406 42.8797 21.7772 42.8797 21.9456L42.8797 24.0804C42.8797 24.2488 42.7492 24.3854 42.5883 24.3854C42.4273 24.3854 42.2969 24.2488 42.2969 24.0804Z" fill="white"/>
<path d="M53.7266 20.7565L53.7266 17.6377C53.7266 17.4711 53.8696 17.3359 54.0462 17.3359C54.2227 17.3359 54.3658 17.4711 54.3658 17.6377L54.3658 20.7565C54.3658 20.9232 54.2227 21.0583 54.0462 21.0583C53.8697 21.0583 53.7266 20.9232 53.7266 20.7565Z" fill="white"/>
<path d="M56.6875 20.3204L56.6875 18.2149C56.6875 18.0487 56.818 17.9141 56.9789 17.9141C57.1398 17.9141 57.2703 18.0487 57.2703 18.2149L57.2703 20.3204C57.2703 20.4865 57.1398 20.6212 56.9789 20.6212C56.818 20.6212 56.6875 20.4865 56.6875 20.3204Z" fill="white"/>
<path d="M9.84375 28.4178V15.973C9.84375 15.8067 9.97421 15.6719 10.1351 15.6719C10.2961 15.6719 10.4265 15.8067 10.4265 15.973V28.4178C10.4265 28.5841 10.2961 28.7189 10.1351 28.7189C9.97421 28.7189 9.84375 28.5841 9.84375 28.4178Z" fill="white"/>
<path d="M12.6445 28.425C12.6445 28.5914 12.5097 28.7263 12.3433 28.7263C12.177 28.7263 12.0422 28.5914 12.0422 28.425V15.9717C12.0422 14.9178 11.1882 14.0635 10.1348 14.0635C9.08132 14.0635 8.22734 14.9178 8.22734 15.9717V28.425C8.22734 28.5914 8.0925 28.7263 7.92617 28.7263C7.75984 28.7263 7.625 28.5914 7.625 28.425V15.9717C7.625 14.585 8.74866 13.4609 10.1348 13.4609C11.5209 13.4609 12.6445 14.585 12.6445 15.9717V28.425Z" fill="white"/>
<path d="M6.62088 28.4241C6.62088 28.5906 6.48538 28.7256 6.31825 28.7257C6.15112 28.7257 6.01563 28.5906 6.01562 28.4241V15.6258C6.01562 13.2566 7.9431 11.3359 10.3208 11.3359C12.6984 11.3359 14.6259 13.2566 14.6259 15.6258C14.6259 15.6313 14.6257 15.6367 14.6254 15.642C14.6257 15.6474 14.6259 15.6528 14.6259 15.6582V28.4241C14.6259 28.5906 14.4904 28.7257 14.3233 28.7257C14.1561 28.7257 14.0206 28.5906 14.0206 28.4241V15.6582C14.0206 15.653 14.0208 15.6479 14.021 15.6427V15.6414C14.0208 15.6362 14.0206 15.631 14.0206 15.6258C14.0206 13.6215 12.4155 11.9907 10.4162 11.9402C10.3845 11.9394 10.3527 11.939 10.3208 11.939C8.27737 11.939 6.62088 13.5897 6.62088 15.6258V28.4241Z" fill="white"/>
<path d="M19.9141 8.49673V7.25189C19.9141 7.08689 20.0487 6.95312 20.2149 6.95312C20.381 6.95312 20.5157 7.08689 20.5157 7.25189V8.49673C20.5157 8.66173 20.381 8.79549 20.2149 8.79549C20.0487 8.79549 19.9141 8.66173 19.9141 8.49673Z" fill="white"/>
<path d="M20.1894 4.73438C21.5755 4.73438 22.6992 5.85558 22.6992 7.23866V11.1454L22.6988 11.1608C22.6907 11.3196 22.5592 11.4459 22.398 11.4459C22.2369 11.4458 22.1053 11.3196 22.0973 11.1608L22.0969 11.1454V7.23866C22.0969 6.18752 21.2429 5.3354 20.1894 5.3354C19.136 5.33543 18.282 6.18754 18.282 7.23866V8.29046C18.282 8.45643 18.1472 8.59098 17.9809 8.59098C17.8145 8.59095 17.6797 8.45642 17.6797 8.29046V7.23866C17.6797 5.8556 18.8034 4.7344 20.1894 4.73438Z" fill="white"/>
<path d="M20.3472 2.60938C22.7093 2.60938 24.6242 4.52622 24.6242 6.89076C24.6242 6.89619 24.624 6.90157 24.6237 6.90693C24.624 6.91228 24.6242 6.91767 24.6242 6.92309V13.9454C24.6242 14.1116 24.4896 14.2464 24.3235 14.2464C24.1575 14.2464 24.0229 14.1116 24.0229 13.9454V6.92309C24.0229 6.9179 24.023 6.91274 24.0233 6.90761V6.90624C24.023 6.90111 24.0229 6.89595 24.0229 6.89076C24.0229 4.85865 22.3772 3.21129 20.3472 3.21129C18.3172 3.21129 16.6716 4.85865 16.6716 6.89076V8.77899C16.6716 8.94521 16.537 9.07995 16.371 9.07995C16.2049 9.07995 16.0703 8.94521 16.0703 8.77899V6.89076C16.0703 4.52622 17.9852 2.60938 20.3472 2.60938Z" fill="white"/>
<path d="M11.8906 11.9579V4.64431C11.8906 4.47831 12.0211 4.34375 12.182 4.34375C12.343 4.34375 12.4734 4.47831 12.4734 4.64431V11.9579C12.4734 12.1239 12.343 12.2584 12.182 12.2584C12.0211 12.2584 11.8906 12.1239 11.8906 11.9579Z" fill="white"/>
<path d="M14.6914 14.0443C14.6914 14.2103 14.5566 14.3448 14.3902 14.3448C14.2239 14.3448 14.089 14.2103 14.089 14.0443V4.62906C14.089 3.57801 13.2351 2.72597 12.1816 2.72597C11.1282 2.72597 10.2742 3.57801 10.2742 4.62906V11.5903C10.2742 11.7563 10.1394 11.8908 9.97305 11.8908C9.80671 11.8908 9.67188 11.7563 9.67188 11.5903V4.62906C9.67188 3.2461 10.7955 2.125 12.1816 2.125C13.5677 2.125 14.6914 3.2461 14.6914 4.62906V14.0443Z" fill="white"/>
<path d="M8.63386 12.1626C8.63386 12.3292 8.49896 12.4642 8.33255 12.4642C8.16615 12.4642 8.03125 12.3292 8.03125 12.1626V4.28987C8.03125 4.13831 8.03907 3.98858 8.0544 3.84107C8.05878 3.79894 8.06382 3.75699 8.0694 3.71523C8.07499 3.67348 8.08116 3.63192 8.08794 3.59056C8.09472 3.54917 8.10205 3.50796 8.11001 3.46698C8.12592 3.38503 8.14424 3.30394 8.16474 3.22373C8.17499 3.18362 8.18573 3.14372 8.1971 3.10407C8.20279 3.08425 8.2086 3.06449 8.21456 3.04478C8.25033 2.92657 8.29113 2.81055 8.33658 2.6969C8.34415 2.67796 8.35179 2.65906 8.35962 2.64026C8.39096 2.56503 8.42444 2.49091 8.45986 2.41792C8.52185 2.2902 8.58999 2.16604 8.66387 2.04579C8.68498 2.01143 8.70657 1.97741 8.7286 1.9437C8.73963 1.92685 8.7507 1.91003 8.76195 1.89335C8.78446 1.85996 8.8074 1.8269 8.8308 1.7942C8.8425 1.77786 8.85429 1.76159 8.86621 1.74542C8.92583 1.66453 8.98824 1.58583 9.05325 1.50943C9.06625 1.49416 9.07937 1.47898 9.09258 1.46389C9.27754 1.25261 9.48289 1.05972 9.70549 0.888266C10.0896 0.592379 10.5255 0.360186 10.997 0.207514C11.0248 0.198534 11.0526 0.18983 11.0806 0.181403C11.1365 0.164549 11.193 0.148788 11.2499 0.134187C11.3352 0.112282 11.4216 0.0929617 11.5089 0.0762717C11.5671 0.0651445 11.6257 0.0551751 11.6848 0.0464305C11.8913 0.0158263 12.1026 0 12.3176 0C14.6848 5.47076e-06 16.6039 1.92064 16.6039 4.28987C16.6039 4.2953 16.6037 4.3007 16.6034 4.30606C16.6037 4.31143 16.6039 4.31683 16.6039 4.32226V8.94608C16.6039 9.11262 16.469 9.24763 16.3026 9.24763C16.1362 9.24763 16.0013 9.11262 16.0013 8.94608V4.32226C16.0013 4.31706 16.0014 4.31189 16.0017 4.30675V4.30538C16.0014 4.30024 16.0013 4.29507 16.0013 4.28987C16.0013 2.28553 14.4032 0.65474 12.4126 0.604284C12.381 0.603484 12.3494 0.603106 12.3176 0.603106C12.1327 0.603106 11.951 0.616682 11.7735 0.64296C11.7228 0.650465 11.6725 0.65903 11.6225 0.66858C11.5974 0.673362 11.5725 0.678411 11.5476 0.683697C11.498 0.694258 11.4487 0.705808 11.3998 0.718348C11.3754 0.724613 11.3511 0.731131 11.3269 0.737882C11.2541 0.758152 11.1823 0.780573 11.1115 0.805123C11.0879 0.813311 11.0644 0.821796 11.041 0.830449C10.6901 0.960181 10.3644 1.14185 10.0731 1.36622C9.47101 1.82996 9.01653 2.47525 8.79128 3.2201C8.78104 3.25396 8.77124 3.28802 8.76195 3.32229C8.75267 3.35654 8.74388 3.391 8.73557 3.42565C8.72309 3.47765 8.71178 3.53008 8.70153 3.58291C8.68788 3.65331 8.67621 3.72443 8.66662 3.79621C8.64504 3.95769 8.63386 4.12248 8.63386 4.28987V12.1626Z" fill="white"/>
<path d="M18.0781 16.4489V12.6658C18.0781 12.5009 18.2128 12.3672 18.3789 12.3672C18.545 12.3672 18.6797 12.5009 18.6797 12.6658V16.4489C18.6797 16.6138 18.545 16.7475 18.3789 16.7475C18.2128 16.7475 18.0781 16.6138 18.0781 16.4489Z" fill="white"/>
<path d="M15.8828 28.4301V20.3086C15.8828 20.1425 16.0133 20.0078 16.1742 20.0078C16.3351 20.0078 16.4656 20.1425 16.4656 20.3086V28.4301C16.4656 28.5962 16.3351 28.7309 16.1742 28.7309C16.0133 28.7309 15.8828 28.5962 15.8828 28.4301Z" fill="white"/>
<path d="M20.9023 15.5528C20.9023 15.7186 20.7675 15.853 20.6012 15.853C20.4348 15.853 20.3 15.7186 20.3 15.5528V12.6505C20.3 11.6003 19.446 10.7489 18.3926 10.7489C17.3391 10.7489 16.4852 11.6003 16.4852 12.6505V16.6537C16.4852 16.8195 16.3503 16.9539 16.184 16.9539C16.0177 16.9539 15.8828 16.8195 15.8828 16.6537V12.6505C15.8828 11.2686 17.0065 10.1484 18.3926 10.1484C19.7787 10.1484 20.9023 11.2686 20.9023 12.6505V15.5528Z" fill="white"/>
<path d="M14.8617 17.1217C14.8617 17.2882 14.7265 17.4233 14.5598 17.4233C14.393 17.4233 14.2578 17.2882 14.2578 17.1217V12.314C14.2578 9.94437 16.1811 8.02344 18.5535 8.02344C20.926 8.02344 22.8493 9.94438 22.8493 12.314C22.8493 12.3194 22.8491 12.3248 22.8488 12.3302C22.8491 12.3355 22.8493 12.3409 22.8493 12.3464V14.8597C22.8493 15.0263 22.7141 15.1613 22.5473 15.1613C22.3805 15.1613 22.2453 15.0263 22.2453 14.8597V12.3464C22.2453 12.3412 22.2455 12.336 22.2457 12.3308V12.3295C22.2455 12.3243 22.2453 12.3192 22.2453 12.314C22.2453 10.3093 20.6437 8.67828 18.6488 8.62781C18.6171 8.62701 18.5854 8.62664 18.5535 8.62664C16.5146 8.62664 14.8617 10.2775 14.8617 12.314V17.1217Z" fill="white"/>
<path d="M3.82031 28.4178L3.82031 10.0511C3.82031 9.88479 3.95919 9.75 4.13051 9.75C4.30182 9.75 4.4407 9.88479 4.4407 10.0511L4.4407 28.4178C4.4407 28.5841 4.30182 28.7189 4.13051 28.7189C3.95919 28.7189 3.82031 28.5841 3.82031 28.4178Z" fill="white"/>
<path d="M1.64062 9.839C1.64063 9.81733 1.64086 9.79571 1.64141 9.77417C1.66051 9.02044 2.01166 8.34925 2.55392 7.90151C2.58491 7.87592 2.61652 7.85106 2.64872 7.82697C3.06745 7.51366 3.58723 7.32812 4.15033 7.32812C5.50972 7.32813 6.61656 8.40946 6.65867 9.75926C6.6596 9.76891 6.66014 9.77869 6.66014 9.78859V15.4647C6.66014 15.6311 6.52531 15.766 6.35898 15.766C6.19265 15.766 6.05781 15.6311 6.05781 15.4647V9.84283C6.0578 9.84157 6.05771 9.84027 6.05771 9.839C6.05769 8.78511 5.20374 7.93074 4.15033 7.93074C4.03512 7.93074 3.92229 7.94097 3.8127 7.96055C3.78139 7.96615 3.75033 7.97247 3.71957 7.97958C3.01207 8.14298 2.45511 8.70019 2.29178 9.40803C2.28467 9.43881 2.27835 9.46988 2.27276 9.50121C2.25318 9.61085 2.24296 9.72373 2.24296 9.839L2.24305 28.4209C2.24303 28.5872 2.10819 28.7222 1.94189 28.7222C1.77557 28.7222 1.64074 28.5873 1.64072 28.4209L1.64062 9.839Z" fill="white"/>
<path d="M7.95257 9.60714C7.95256 8.33546 7.30974 7.21423 6.33201 6.55216C6.28312 6.51905 6.23339 6.48709 6.18286 6.45632C5.65238 6.13324 5.03381 5.94098 4.37176 5.92417C4.34025 5.92337 4.30864 5.92299 4.27693 5.92299C4.24522 5.92299 4.21361 5.92337 4.1821 5.92417C4.11902 5.92577 4.05634 5.92903 3.9941 5.93378C3.9319 5.93853 3.87013 5.94481 3.80884 5.95262C3.31826 6.01512 2.85784 6.1745 2.44733 6.4111C2.39603 6.44066 2.34553 6.47147 2.29583 6.5034C1.40096 7.07844 0.771149 8.03164 0.630843 9.13797C0.623051 9.1994 0.616786 9.26131 0.612052 9.32366C0.604948 9.41722 0.601288 9.51176 0.601287 9.60714V28.4246C0.601267 28.591 0.466672 28.7259 0.300644 28.7259C0.13463 28.7259 1.98309e-05 28.591 0 28.4246V9.60714C5.91595e-07 9.53315 0.00188219 9.4596 0.00557835 9.38653C0.00927375 9.31348 0.0148177 9.24091 0.0221177 9.16887C0.0294184 9.09681 0.0385078 9.02529 0.0493243 8.95434C0.330565 7.1095 1.78505 5.65164 3.62563 5.36975C3.69642 5.35891 3.76778 5.3498 3.83967 5.34248C3.91154 5.33516 3.98394 5.32961 4.05683 5.3259C4.12973 5.3222 4.20311 5.32031 4.27693 5.32031C4.42455 5.32031 4.57042 5.32785 4.71419 5.34248C4.78608 5.3498 4.85744 5.35891 4.92823 5.36975C6.76882 5.65163 8.2233 7.10949 8.50453 8.95434C8.51535 9.02529 8.52444 9.09681 8.53174 9.16887C8.53904 9.24091 8.54458 9.31348 8.54828 9.38653C8.55198 9.4596 8.55386 9.53315 8.55386 9.60714V12.1522C8.55384 12.3186 8.41924 12.4536 8.25321 12.4536C8.0872 12.4536 7.95259 12.3186 7.95257 12.1522V9.60714Z" fill="white"/>
<path d="M60.0543 2.55965C60.0543 3.9733 58.9124 5.11929 57.5037 5.11929C56.0951 5.11929 54.9531 3.9733 54.9531 2.55965C54.9531 1.14599 56.0951 0 57.5037 0C58.9124 0 60.0543 1.14599 60.0543 2.55965Z" fill="white"/>
<path d="M52.4318 2.55965C52.4318 3.9733 51.2858 5.11929 49.8721 5.11929C48.4585 5.11929 47.3125 3.9733 47.3125 2.55965C47.3125 1.14599 48.4585 0 49.8721 0C51.2858 0 52.4318 1.14599 52.4318 2.55965Z" fill="white"/>
</svg>
