<?xml version="1.0" encoding="UTF-8"?>
<svg id="Layer_1" data-name="Layer 1" xmlns="http://www.w3.org/2000/svg" viewBox="0 0 815.49 215.43">
  <defs>
    <style>
      .cls-1 {
        fill: #231815;
      }
    </style>
  </defs>
  <path class="cls-1" d="M781.23,95.86v49.1h16.26v-49.1h18.01v-13.91h-52.28v13.91h18.01Zm-72.64-13.91v63h39.04l1.68-13.32h-24.47v-12.4h20.61v-11.56h-20.61v-12.4h22.96v-13.32h-39.21Zm-37.2,64.34c12.82,0,22.62-7.96,22.62-20.19,0-11.48-8.46-16.25-20.11-20.27-4.1-1.51-7.2-3.44-7.2-6.62s2.76-5.36,6.45-5.36c4.02,0,7.79,2.43,9.3,6.95h.08l10.89-6.78c-2.93-8.13-10.81-13.41-21.2-13.41-12.99,0-22.37,7.71-22.37,19.27,0,9.46,6.7,15.5,18.35,19.86,5.02,1.84,8.63,3.69,8.63,7.54,0,3.52-2.93,5.53-6.62,5.53-4.1,0-8.88-2.26-11.65-8.63h-.08l-11.73,6.28c4.1,10.64,13.57,15.83,24.63,15.83m-57.14,0c12.82,0,22.62-7.96,22.62-20.19,0-11.48-8.46-16.25-20.11-20.27-4.1-1.51-7.2-3.44-7.2-6.62s2.76-5.36,6.45-5.36c4.02,0,7.79,2.43,9.3,6.95h.08l10.89-6.78c-2.93-8.13-10.81-13.41-21.2-13.41-12.99,0-22.37,7.71-22.37,19.27,0,9.46,6.7,15.5,18.35,19.86,5.03,1.84,8.63,3.69,8.63,7.54,0,3.52-2.93,5.53-6.62,5.53-4.1,0-8.88-2.26-11.65-8.63h-.08l-11.73,6.28c4.1,10.64,13.57,15.83,24.63,15.83m-95.68-1.34h17.59l3.94-9.55h22.45l3.94,9.55h17.59l-32.51-66.52h-.34l-32.68,66.52Zm32.76-36.78l6.28,15.33h-12.57l6.28-15.33Zm-104.64-26.22v63h40.72l1.68-13.41h-26.31v-49.6h-16.09Zm-78.25,63h17.59l3.94-9.55h22.46l3.94,9.55h17.59l-32.51-66.52h-.34l-32.67,66.52Zm32.76-36.78l6.28,15.33h-12.57l6.28-15.33Zm-68.7-12.31v49.1h16.26v-49.1h18.01v-13.91h-52.28v13.91h18.01Zm-49.68,49.1h16.25v-63h-16.25v63Zm-42.39,1.51c16.59,0,28.82-10.98,28.82-28.65v-8.55h-28.07l-1.84,11.56h15.42c-.34,6.12-5.11,11.56-13.82,11.56-9.63,0-17.59-6.87-17.59-18.93s7.79-18.68,17.26-18.68c8.13,0,12.82,3.94,15.66,8.63h.59l10.64-8.96c-4.36-7.12-13.32-13.91-27.56-13.91-17.34,0-32.51,13.32-32.51,32.93s15.16,33.01,33.01,33.01m-65.52-1.51h16.25v-63h-16.25v63Z"/>
  <path d="M48.46,132.99c11.04-2.72,39.66-28.31,39.66-34.87v53.1c-16.31-4.16-28.47-14.39-39.66-18.23m44.3,19.19V76.05c20.15,11.2,32.63,30.23,32.63,50.38,0,16.96-5.6,26.55-23.03,26.55-3.36,0-6.56-.32-9.6-.8m-24.95-80.45c0-1.44,.48-2.56,1.76-4,6.72,1.28,12.79,3.36,18.55,6.08v24.31c0-11.52-20.31-17.76-20.31-26.39M12.64,91.56c0-19.83,15.67-25.43,39.83-25.43,5.6,0,11.04,.48,16.16,1.44-9.12,5.76-32.63,20.31-32.63,31.19-3.68,7.36-7.36,8.96-11.36,8.96-6.56,0-11.99-8.96-11.99-16.16M88.13,27.5v8.08c-4.16-.48-8.47-.8-12.63-.8C39.99,34.78,6.08,84.52,6.08,97.32c0,7.52,7.68,13.6,14.72,13.6,5.6,0,12.32-3.04,15.19-11.68,.96,9.28,22.55,16.15,22.55,23.67,0,5.12-4.96,7.04-9.6,7.04-5.6,0-9.44-6.08-9.44-10.88,0-.96,.32-2.24,1.44-3.04-1.92,.8-3.2,2.4-3.2,5.6,0,4.48,1.92,8,4.48,10.08l-1.92-.16c-15.99,0-28.47,20.95-34.23,30.87-4.32,1.92-6.08,5.44-6.08,8.64,0,4.8,6.4,10.24,9.92,10.24,.8,0,1.44-.48,1.92-.64-7.68-2.88-8.8-6.56-8.8-9.6,0-3.2,1.12-8.96,8.8-8.96,17.59,0,40.3,21.91,57.9,21.91,4.96,0,11.99-3.2,18.39-6.72v10.64l2.39,27.5,2.25-27.5v-13.36c2.72-1.76,5.28-3.52,7.2-4.8,17.27-12.64,52.46-58.54,52.46-77.1,0-30.23-28.31-50.7-59.66-56.3v-8.89L90.4,0l-2.28,27.5Z"/>
</svg>