<svg width="230" height="55" viewBox="0 0 230 55" fill="none" xmlns="http://www.w3.org/2000/svg">
<path d="M39.2278 53.1893H25.2323L24.2248 46.7861H15.1002L13.9956 53.1893H1.76565e-05L12.0472 2.74244H28.6088L39.2278 53.1893ZM22.6343 35.9711L21.7573 30.0901C21.7335 30.0687 21.692 29.7742 21.6269 29.2064C21.5843 28.7298 21.3568 26.8338 20.9455 23.5238C20.9016 23.1528 20.8483 22.6467 20.7831 22.0039C20.718 21.3612 20.6313 20.5485 20.5237 19.5683L20.099 14.8002C20.0578 15.2581 19.9979 15.7696 19.9221 16.3359C19.8461 16.9024 19.7649 17.5223 19.6785 18.1985C19.5267 19.5483 19.4189 20.4856 19.3538 21.0078C19.2873 21.5286 19.2459 21.8459 19.2246 21.9558L18.2824 28.0629L16.9183 35.9711H22.6343ZM122.875 53.1891V41.069H111.25V33.3569H121.673V21.9562H111.25V14.605H122.875V2.74298H97.7081V53.189L122.875 53.1891ZM149.51 41.069H139.345V2.74298H125.803V53.189H149.51V41.069ZM191.091 53.1894H177.097L176.089 46.7863H166.964L165.86 53.1894H151.863L163.911 2.74244H180.473L191.091 53.1894ZM174.499 35.9712L173.62 30.0903C173.597 30.0689 173.556 29.7743 173.49 29.2066C173.449 28.7299 173.22 26.8339 172.809 23.5239C172.765 23.153 172.713 22.6468 172.647 22.0041C172.581 21.3613 172.495 20.5487 172.389 19.5684L171.964 14.8003C171.921 15.2582 171.861 15.7697 171.786 16.3361C171.71 16.9026 171.629 17.5224 171.542 18.1986C171.391 19.5484 171.282 20.4857 171.216 21.0079C171.152 21.5288 171.11 21.8461 171.089 21.9559L170.145 28.063L168.781 35.9712H174.499ZM229.671 53.1894H215.026L208.338 35.22C208.273 34.9148 208.156 34.5117 207.994 34.0109C207.832 33.5101 207.632 32.9116 207.395 32.2139L207.491 35.5468V53.1894H194.015V2.74244H207.882C213.987 2.74244 218.554 3.9529 221.587 6.37114C225.438 9.46423 227.366 13.8642 227.366 19.5683C227.366 25.6688 224.778 29.884 219.604 32.2138L229.671 53.1894ZM213.921 19.7318C213.921 15.9653 211.962 14.0812 208.044 14.0812H207.557V26.1028H208.466C210.024 26.1028 211.324 25.5056 212.363 24.3058C213.403 23.1102 213.921 21.585 213.921 19.7318Z" fill="black"/>
<path d="M69.8867 23.0957L86.529 6.35196L80.2155 1.00392e-05L66.7299 13.5677L53.2444 1.00392e-05L46.9309 6.35196L63.5732 23.0957C64.4449 23.9728 65.5875 24.4113 66.7299 24.4113C67.8724 24.4113 69.015 23.973 69.8867 23.0957ZM93.9789 40.9827L80.4933 27.4152L93.9789 13.8472L87.6654 7.4952L71.023 24.2392C69.2798 25.9932 69.2798 28.837 71.023 30.591L87.6654 47.3349L93.9789 40.9827ZM66.7069 41.2857L80.1923 54.8534L86.5058 48.5013L69.8636 31.7576C68.1199 30.0037 65.2934 30.0037 63.5501 31.7576L46.9078 48.5013L53.2212 54.8534L66.7069 41.2857ZM62.4138 30.6143C63.251 29.7721 63.7214 28.6296 63.7214 27.4383C63.7214 26.2472 63.251 25.1047 62.4138 24.2625L45.7714 7.51863L39.4579 13.8706L52.9438 27.4382L39.4579 41.0062L45.7714 47.3582L62.4138 30.6143Z" fill="black"/>
</svg>
