<svg width="112" height="21" viewBox="0 0 112 21" fill="none" xmlns="http://www.w3.org/2000/svg">
<path d="M102.032 11.1407C102.032 10.8788 102.121 10.6824 102.301 10.5515C102.482 10.4186 102.715 10.3521 102.999 10.3521C103.371 10.3521 103.655 10.4125 103.851 10.5334L103.675 10.6663C103.544 10.6018 103.319 10.5696 102.999 10.5696C102.773 10.5696 102.592 10.6149 102.455 10.7056C102.318 10.7942 102.249 10.9392 102.249 11.1407V12.4519C102.249 12.5405 102.263 12.6171 102.292 12.6815C102.322 12.744 102.359 12.7933 102.403 12.8296C102.45 12.8658 102.51 12.894 102.585 12.9142C102.661 12.9323 102.734 12.9444 102.802 12.9504C102.873 12.9565 102.958 12.9595 103.059 12.9595C103.458 12.9595 103.657 12.8709 103.657 12.6936C103.657 12.5909 103.617 12.5164 103.536 12.47C103.456 12.4237 103.352 12.4005 103.225 12.4005C102.935 12.4005 102.665 12.4569 102.415 12.5697V12.3522C102.667 12.2495 102.938 12.1981 103.228 12.1981C103.414 12.1981 103.568 12.2384 103.69 12.319C103.813 12.3975 103.875 12.5224 103.875 12.6936C103.875 12.8547 103.798 12.9756 103.645 13.0562C103.494 13.1367 103.299 13.177 103.059 13.177C102.94 13.177 102.832 13.171 102.736 13.1589C102.639 13.1448 102.545 13.1216 102.455 13.0894C102.366 13.0552 102.292 13.0119 102.231 12.9595C102.171 12.9051 102.122 12.8356 102.086 12.751C102.05 12.6644 102.032 12.5647 102.032 12.4519V11.1407ZM101.597 11.1407C101.597 10.8768 101.66 10.6512 101.787 10.4639C101.916 10.2745 102.084 10.1366 102.292 10.05C102.499 9.96133 102.735 9.91702 102.999 9.91702C103.51 9.91702 103.907 10.0318 104.189 10.2614L104.017 10.3944C103.777 10.2212 103.438 10.1346 102.999 10.1346C102.654 10.1346 102.37 10.2222 102.147 10.3974C101.925 10.5706 101.814 10.8184 101.814 11.1407V12.4519C101.814 12.6211 101.845 12.7681 101.908 12.893C101.972 13.0179 102.063 13.1166 102.18 13.1891C102.297 13.2596 102.428 13.312 102.573 13.3462C102.718 13.3784 102.88 13.3946 103.059 13.3946C103.357 13.3946 103.604 13.3331 103.799 13.2103C103.995 13.0874 104.092 12.9152 104.092 12.6936C104.092 12.468 104.011 12.2948 103.848 12.1739C103.684 12.0511 103.486 11.9896 103.252 11.9896C102.956 11.9896 102.677 12.043 102.415 12.1498V11.9202C102.687 11.8295 102.967 11.7842 103.255 11.7842C103.549 11.7842 103.798 11.8658 104.002 12.0289C104.207 12.1901 104.31 12.4116 104.31 12.6936C104.31 12.9776 104.191 13.2022 103.953 13.3674C103.716 13.5305 103.418 13.6121 103.059 13.6121C102.854 13.6121 102.664 13.5899 102.491 13.5456C102.318 13.4993 102.164 13.4308 102.029 13.3402C101.894 13.2495 101.788 13.1287 101.712 12.9776C101.635 12.8265 101.597 12.6513 101.597 12.4519V11.1407ZM101.162 11.1407C101.162 10.8788 101.21 10.6421 101.307 10.4306C101.403 10.2171 101.535 10.0429 101.702 9.90795C101.87 9.77099 102.064 9.66625 102.286 9.59373C102.507 9.51921 102.745 9.48195 102.999 9.48195C103.309 9.48195 103.597 9.52626 103.863 9.61488C104.129 9.70351 104.351 9.82839 104.53 9.98953L104.361 10.1255C104.2 9.98852 104.001 9.88378 103.763 9.81127C103.527 9.73674 103.273 9.69948 102.999 9.69948C102.775 9.69948 102.566 9.73171 102.37 9.79616C102.175 9.8586 102.003 9.94924 101.854 10.0681C101.706 10.1869 101.591 10.339 101.506 10.5243C101.421 10.7076 101.379 10.913 101.379 11.1407V12.4519C101.379 12.6795 101.422 12.8829 101.509 13.0622C101.598 13.2395 101.719 13.3835 101.872 13.4943C102.027 13.605 102.204 13.6886 102.403 13.745C102.605 13.8014 102.823 13.8296 103.059 13.8296C103.476 13.8296 103.824 13.7269 104.104 13.5215C104.386 13.314 104.527 13.038 104.527 12.6936C104.527 12.46 104.467 12.2565 104.346 12.0833C104.227 11.9101 104.074 11.7822 103.887 11.6996C103.7 11.617 103.493 11.5757 103.267 11.5757C102.971 11.5757 102.687 11.6231 102.415 11.7177V11.4972C102.699 11.4106 102.986 11.3673 103.274 11.3673C103.541 11.3673 103.787 11.4236 104.011 11.5364C104.236 11.6492 104.415 11.8074 104.546 12.0108C104.678 12.2142 104.745 12.4418 104.745 12.6936C104.745 12.9615 104.668 13.2002 104.515 13.4097C104.364 13.6171 104.161 13.7752 103.905 13.884C103.651 13.9928 103.369 14.0472 103.059 14.0472C102.795 14.0472 102.549 14.0129 102.322 13.9444C102.096 13.876 101.896 13.7773 101.721 13.6483C101.547 13.5174 101.41 13.3502 101.31 13.1468C101.211 12.9414 101.162 12.7097 101.162 12.4519V11.1407ZM100.727 11.1407C100.727 10.8224 100.786 10.5314 100.905 10.2675C101.026 10.0016 101.189 9.78106 101.394 9.60582C101.6 9.42857 101.84 9.2916 102.116 9.19492C102.392 9.09622 102.686 9.04688 102.999 9.04688C103.375 9.04688 103.726 9.10629 104.05 9.22513C104.376 9.34196 104.649 9.50612 104.869 9.71761L104.694 9.84753C104.494 9.66222 104.246 9.51921 103.95 9.4185C103.656 9.31577 103.339 9.26441 102.999 9.26441C102.715 9.26441 102.449 9.30671 102.201 9.39131C101.953 9.47389 101.736 9.59273 101.548 9.74782C101.361 9.9009 101.213 10.0973 101.104 10.337C100.997 10.5767 100.944 10.8446 100.944 11.1407V12.4519C100.944 12.6815 100.98 12.895 101.053 13.0924C101.125 13.2878 101.226 13.457 101.355 13.6C101.484 13.743 101.636 13.8649 101.811 13.9656C101.988 14.0663 102.182 14.1418 102.391 14.1922C102.603 14.2405 102.825 14.2647 103.059 14.2647C103.319 14.2647 103.565 14.2274 103.796 14.1529C104.03 14.0764 104.232 13.9706 104.404 13.8357C104.575 13.7007 104.711 13.5345 104.811 13.3372C104.912 13.1398 104.962 12.9252 104.962 12.6936C104.962 12.464 104.914 12.2505 104.817 12.0531C104.721 11.8557 104.593 11.6925 104.434 11.5636C104.277 11.4327 104.097 11.331 103.896 11.2585C103.695 11.186 103.487 11.1497 103.274 11.1497C102.967 11.1497 102.681 11.195 102.415 11.2857V11.0621C102.691 10.9835 102.981 10.9443 103.286 10.9443C103.533 10.9443 103.771 10.9866 103.999 11.0712C104.228 11.1537 104.43 11.2696 104.603 11.4186C104.778 11.5657 104.918 11.75 105.023 11.9715C105.128 12.1931 105.18 12.4338 105.18 12.6936C105.18 12.9555 105.124 13.1992 105.011 13.4248C104.9 13.6483 104.749 13.8377 104.558 13.9928C104.366 14.1459 104.141 14.2657 103.881 14.3523C103.623 14.4389 103.349 14.4822 103.059 14.4822C102.735 14.4822 102.432 14.4369 102.15 14.3463C101.87 14.2556 101.623 14.1257 101.409 13.9565C101.198 13.7873 101.031 13.5738 100.908 13.316C100.787 13.0562 100.727 12.7681 100.727 12.4519V11.1407Z" fill="white"/>
<path d="M97.1332 13.3976V13.18H100.082V13.3976H97.1332ZM97.1332 13.8326V13.6151H100.082V13.8326H97.1332ZM97.1332 14.2677V14.0502H100.082V14.2677H97.1332ZM97.4686 13.0592H97.2148C97.3558 12.8678 97.4948 12.6805 97.6318 12.4972C97.7687 12.3139 97.8825 12.1619 97.9732 12.041C98.0658 11.9181 98.1555 11.7983 98.2421 11.6815C98.3287 11.5646 98.3982 11.471 98.4505 11.4005C98.5049 11.33 98.5563 11.2615 98.6046 11.195C98.653 11.1286 98.6892 11.0772 98.7134 11.0409C98.7376 11.0027 98.7587 10.9664 98.7768 10.9322C98.797 10.8979 98.8101 10.8707 98.8161 10.8506C98.8222 10.8284 98.8252 10.8073 98.8252 10.7872C98.8252 10.6945 98.7869 10.6351 98.7104 10.6089C98.6338 10.5827 98.4989 10.5696 98.3055 10.5696C97.9913 10.5696 97.6771 10.6109 97.3629 10.6935L97.3175 10.485C97.3679 10.4629 97.4948 10.4347 97.6982 10.4004C97.9037 10.3642 98.1011 10.346 98.2904 10.346C98.4052 10.346 98.5049 10.3531 98.5895 10.3672C98.6741 10.3793 98.7507 10.4014 98.8191 10.4337C98.8896 10.4639 98.943 10.5092 98.9793 10.5696C99.0155 10.628 99.0337 10.7005 99.0337 10.7872C99.0337 10.8738 98.9893 10.9845 98.9007 11.1195C98.8121 11.2545 98.5845 11.5667 98.2179 12.0561C97.9198 12.4529 97.67 12.7873 97.4686 13.0592ZM97.9611 13.0592H97.7073C98.4586 12.0481 98.8755 11.4831 98.9581 11.3642C99.1273 11.1225 99.222 10.9503 99.2421 10.8476C99.2482 10.8194 99.2512 10.7892 99.2512 10.7569C99.2512 10.34 98.935 10.1315 98.3025 10.1315C98.1091 10.1315 97.9127 10.1487 97.7133 10.1829C97.5139 10.2171 97.3679 10.2514 97.2752 10.2856L97.2329 10.0771C97.5774 9.97039 97.9349 9.91702 98.3055 9.91702C98.4344 9.91702 98.5533 9.92608 98.662 9.94421C98.7728 9.96032 98.8786 9.98852 98.9793 10.0288C99.08 10.0691 99.1656 10.1215 99.2361 10.1859C99.3066 10.2484 99.362 10.3279 99.4023 10.4246C99.4446 10.5213 99.4657 10.6321 99.4657 10.7569C99.4657 10.8859 99.4023 11.048 99.2754 11.2434C99.1485 11.4388 98.7688 11.9645 98.1363 12.8205C98.0598 12.9232 98.0014 13.0028 97.9611 13.0592ZM98.4656 13.0592H98.2119C98.8987 12.1206 99.3156 11.5364 99.4627 11.3068C99.6097 11.0752 99.6832 10.8818 99.6832 10.7267C99.6832 10.5374 99.646 10.3742 99.5714 10.2373C99.4989 10.1003 99.3962 9.99356 99.2633 9.91702C99.1323 9.84048 98.9873 9.78508 98.8282 9.75084C98.6711 9.7166 98.4959 9.69948 98.3025 9.69948C97.9299 9.69948 97.5582 9.75588 97.1876 9.86867L97.1423 9.64812C97.5391 9.53129 97.9228 9.47288 98.2934 9.47288C98.4747 9.47288 98.6429 9.48597 98.798 9.51216C98.9531 9.53834 99.0991 9.58266 99.2361 9.6451C99.3751 9.70552 99.4919 9.78307 99.5866 9.87774C99.6832 9.97241 99.7598 10.0923 99.8162 10.2373C99.8726 10.3803 99.9008 10.5434 99.9008 10.7267C99.9008 10.8577 99.8696 10.9916 99.8071 11.1286C99.7467 11.2635 99.6198 11.47 99.4264 11.7479C99.2351 12.0259 98.9148 12.463 98.4656 13.0592ZM98.9883 13.0592H98.7345C99.1595 12.4972 99.4667 12.0752 99.656 11.7933C99.8474 11.5093 99.9723 11.2947 100.031 11.1497C100.089 11.0027 100.118 10.8516 100.118 10.6965C100.118 10.4991 100.088 10.3209 100.028 10.1617C99.9693 10.0006 99.8857 9.86565 99.7769 9.75689C99.6701 9.6461 99.5412 9.55345 99.3902 9.47892C99.2391 9.4044 99.0729 9.35001 98.8917 9.31577C98.7124 9.28153 98.518 9.26441 98.3085 9.26441C97.9218 9.26441 97.519 9.32484 97.1 9.44569L97.0547 9.23118C97.4797 9.10831 97.8956 9.04688 98.3025 9.04688C98.6046 9.04688 98.8776 9.08011 99.1213 9.14658C99.367 9.21103 99.5805 9.30872 99.7618 9.43965C99.9451 9.57057 100.086 9.74279 100.185 9.95629C100.285 10.1698 100.336 10.4165 100.336 10.6965C100.336 10.8738 100.307 11.0409 100.248 11.1981C100.192 11.3552 100.067 11.5777 99.8736 11.8658C99.6822 12.1538 99.3871 12.5516 98.9883 13.0592Z" fill="white"/>
<path d="M92.1892 13.1861C91.9797 12.7712 91.875 12.2978 91.875 11.7661C91.875 11.2343 91.9797 10.761 92.1892 10.346C92.3987 9.93112 92.6867 9.61086 93.0533 9.38526C93.4199 9.15967 93.8328 9.04688 94.2921 9.04688C94.7513 9.04688 95.1642 9.15967 95.5308 9.38526C95.8974 9.61086 96.1854 9.93112 96.3949 10.346C96.6044 10.761 96.7091 11.2343 96.7091 11.7661C96.7091 12.2978 96.6044 12.7712 96.3949 13.1861C96.1854 13.601 95.8974 13.9213 95.5308 14.1469C95.1642 14.3725 94.7513 14.4853 94.2921 14.4853C93.8328 14.4853 93.4199 14.3725 93.0533 14.1469C92.6867 13.9213 92.3987 13.601 92.1892 13.1861ZM95.1018 10.7267C95.3032 10.9745 95.4039 11.3209 95.4039 11.7661C95.4039 12.2112 95.3032 12.5587 95.1018 12.8084C94.9024 13.0562 94.6325 13.18 94.2921 13.18C93.9517 13.18 93.6807 13.0562 93.4793 12.8084C93.2799 12.5587 93.1802 12.2112 93.1802 11.7661C93.1802 11.3209 93.2799 10.9745 93.4793 10.7267C93.6807 10.477 93.9517 10.3521 94.2921 10.3521C94.6325 10.3521 94.9024 10.477 95.1018 10.7267ZM95.4099 10.4186C95.696 10.7529 95.839 11.2021 95.839 11.7661C95.839 12.33 95.696 12.7792 95.4099 13.1136C95.1259 13.4479 94.7533 13.6151 94.2921 13.6151C93.8308 13.6151 93.4572 13.4479 93.1711 13.1136C92.8871 12.7792 92.7451 12.33 92.7451 11.7661C92.7451 11.2021 92.8871 10.7529 93.1711 10.4186C93.4572 10.0842 93.8308 9.91702 94.2921 9.91702C94.7533 9.91702 95.1259 10.0842 95.4099 10.4186ZM96.0172 10.5666C96.1884 10.913 96.274 11.3129 96.274 11.7661C96.274 12.2193 96.1884 12.6201 96.0172 12.9686C95.848 13.315 95.6134 13.5819 95.3133 13.7692C95.0131 13.9565 94.6727 14.0502 94.2921 14.0502C93.9114 14.0502 93.571 13.9565 93.2709 13.7692C92.9707 13.5819 92.7351 13.315 92.5639 12.9686C92.3947 12.6201 92.3101 12.2193 92.3101 11.7661C92.3101 11.3129 92.3947 10.913 92.5639 10.5666C92.7351 10.2181 92.9707 9.95025 93.2709 9.76293C93.571 9.57561 93.9114 9.48195 94.2921 9.48195C94.6727 9.48195 95.0131 9.57561 95.3133 9.76293C95.6134 9.95025 95.848 10.2181 96.0172 10.5666ZM93.6334 10.8778C93.4763 11.0832 93.3977 11.3793 93.3977 11.7661C93.3977 12.1528 93.4763 12.4489 93.6334 12.6543C93.7925 12.8598 94.0121 12.9625 94.2921 12.9625C94.572 12.9625 94.7906 12.8598 94.9477 12.6543C95.1068 12.4489 95.1864 12.1528 95.1864 11.7661C95.1864 11.3793 95.1068 11.0832 94.9477 10.8778C94.7906 10.6723 94.572 10.5696 94.2921 10.5696C94.0121 10.5696 93.7925 10.6723 93.6334 10.8778ZM93.3252 10.5726C93.0835 10.8627 92.9627 11.2605 92.9627 11.7661C92.9627 12.2716 93.0835 12.6704 93.3252 12.9625C93.569 13.2526 93.8912 13.3976 94.2921 13.3976C94.6929 13.3976 95.0142 13.2526 95.2559 12.9625C95.4996 12.6704 95.6214 12.2716 95.6214 11.7661C95.6214 11.2605 95.4996 10.8627 95.2559 10.5726C95.0142 10.2806 94.6929 10.1346 94.2921 10.1346C93.8912 10.1346 93.569 10.2806 93.3252 10.5726ZM93.0171 10.2645C92.6908 10.6411 92.5276 11.1417 92.5276 11.7661C92.5276 12.3905 92.6908 12.891 93.0171 13.2677C93.3454 13.6443 93.7704 13.8327 94.2921 13.8327C94.8137 13.8327 95.2377 13.6443 95.564 13.2677C95.8924 12.891 96.0565 12.3905 96.0565 11.7661C96.0565 11.1417 95.8924 10.6411 95.564 10.2645C95.2377 9.88781 94.8137 9.69948 94.2921 9.69948C93.7704 9.69948 93.3454 9.88781 93.0171 10.2645ZM92.2587 10.7449C92.1479 11.0571 92.0925 11.3975 92.0925 11.7661C92.0925 12.1347 92.1479 12.4761 92.2587 12.7903C92.3695 13.1025 92.5216 13.3664 92.7149 13.5819C92.9103 13.7974 93.1429 13.9656 93.4129 14.0864C93.6848 14.2073 93.9778 14.2677 94.2921 14.2677C94.6063 14.2677 94.8983 14.2073 95.1682 14.0864C95.4402 13.9656 95.6728 13.7974 95.8662 13.5819C96.0615 13.3664 96.2146 13.1025 96.3254 12.7903C96.4362 12.4761 96.4916 12.1347 96.4916 11.7661C96.4916 11.3975 96.4362 11.0571 96.3254 10.7449C96.2146 10.4306 96.0615 10.1658 95.8662 9.95025C95.6728 9.73473 95.4402 9.56654 95.1682 9.44569C94.8983 9.32484 94.6063 9.26441 94.2921 9.26441C93.9778 9.26441 93.6848 9.32484 93.4129 9.44569C93.1429 9.56654 92.9103 9.73473 92.7149 9.95025C92.5216 10.1658 92.3695 10.4306 92.2587 10.7449Z" fill="white"/>
<path d="M88.3051 13.3976V13.18H91.2539V13.3976H88.3051ZM88.3051 13.8326V13.6151H91.2539V13.8326H88.3051ZM88.3051 14.2677V14.0502H91.2539V14.2677H88.3051ZM88.6405 13.0592H88.3867C88.5277 12.8678 88.6667 12.6805 88.8036 12.4972C88.9406 12.3139 89.0544 12.1619 89.145 12.041C89.2377 11.9181 89.3273 11.7983 89.4139 11.6815C89.5006 11.5646 89.57 11.471 89.6224 11.4005C89.6768 11.33 89.7282 11.2615 89.7765 11.195C89.8248 11.1286 89.8611 11.0772 89.8853 11.0409C89.9094 11.0027 89.9306 10.9664 89.9487 10.9322C89.9689 10.8979 89.982 10.8707 89.988 10.8506C89.994 10.8284 89.9971 10.8073 89.9971 10.7872C89.9971 10.6945 89.9588 10.6351 89.8822 10.6089C89.8057 10.5827 89.6708 10.5696 89.4774 10.5696C89.1632 10.5696 88.849 10.6109 88.5347 10.6935L88.4894 10.485C88.5398 10.4629 88.6667 10.4347 88.8701 10.4004C89.0756 10.3642 89.2729 10.346 89.4623 10.346C89.5771 10.346 89.6768 10.3531 89.7614 10.3672C89.846 10.3793 89.9225 10.4014 89.991 10.4337C90.0615 10.4639 90.1149 10.5092 90.1511 10.5696C90.1874 10.628 90.2055 10.7005 90.2055 10.7872C90.2055 10.8738 90.1612 10.9845 90.0726 11.1195C89.984 11.2545 89.7564 11.5667 89.3898 12.0561C89.0917 12.4529 88.8419 12.7873 88.6405 13.0592ZM89.133 13.0592H88.8792C89.6305 12.0481 90.0474 11.4831 90.13 11.3642C90.2992 11.1225 90.3939 10.9503 90.414 10.8476C90.42 10.8194 90.4231 10.7892 90.4231 10.7569C90.4231 10.34 90.1068 10.1315 89.4744 10.1315C89.281 10.1315 89.0846 10.1487 88.8852 10.1829C88.6858 10.2171 88.5398 10.2514 88.4471 10.2856L88.4048 10.0771C88.7493 9.97039 89.1068 9.91702 89.4774 9.91702C89.6063 9.91702 89.7251 9.92608 89.8339 9.94421C89.9447 9.96032 90.0504 9.98852 90.1511 10.0288C90.2519 10.0691 90.3375 10.1215 90.408 10.1859C90.4785 10.2484 90.5338 10.3279 90.5741 10.4246C90.6164 10.5213 90.6376 10.6321 90.6376 10.7569C90.6376 10.8859 90.5741 11.048 90.4472 11.2434C90.3203 11.4388 89.9407 11.9645 89.3082 12.8205C89.2317 12.9232 89.1732 13.0028 89.133 13.0592ZM89.6375 13.0592H89.3837C90.0706 12.1206 90.4875 11.5364 90.6346 11.3068C90.7816 11.0752 90.8551 10.8818 90.8551 10.7267C90.8551 10.5374 90.8178 10.3742 90.7433 10.2373C90.6708 10.1003 90.5681 9.99356 90.4351 9.91702C90.3042 9.84048 90.1592 9.78508 90.0001 9.75084C89.843 9.7166 89.6677 9.69948 89.4744 9.69948C89.1017 9.69948 88.7301 9.75588 88.3595 9.86867L88.3142 9.64812C88.711 9.53129 89.0947 9.47288 89.4653 9.47288C89.6466 9.47288 89.8148 9.48597 89.9699 9.51216C90.125 9.53834 90.271 9.58266 90.408 9.6451C90.5469 9.70552 90.6638 9.78307 90.7584 9.87774C90.8551 9.97241 90.9317 10.0923 90.9881 10.2373C91.0444 10.3803 91.0726 10.5434 91.0726 10.7267C91.0726 10.8577 91.0414 10.9916 90.979 11.1286C90.9186 11.2635 90.7917 11.47 90.5983 11.7479C90.4069 12.0259 90.0867 12.463 89.6375 13.0592ZM90.1602 13.0592H89.9064C90.3314 12.4972 90.6386 12.0752 90.8279 11.7933C91.0193 11.5093 91.1442 11.2947 91.2026 11.1497C91.261 11.0027 91.2902 10.8516 91.2902 10.6965C91.2902 10.4991 91.26 10.3209 91.1995 10.1617C91.1411 10.0006 91.0575 9.86565 90.9488 9.75689C90.842 9.6461 90.7131 9.55345 90.562 9.47892C90.411 9.4044 90.2448 9.35001 90.0635 9.31577C89.8843 9.28153 89.6899 9.26441 89.4804 9.26441C89.0937 9.26441 88.6908 9.32484 88.2719 9.44569L88.2266 9.23118C88.6516 9.10831 89.0675 9.04688 89.4744 9.04688C89.7765 9.04688 90.0494 9.08011 90.2931 9.14658C90.5389 9.21103 90.7524 9.30872 90.9337 9.43965C91.117 9.57057 91.258 9.74279 91.3567 9.95629C91.4574 10.1698 91.5077 10.4165 91.5077 10.6965C91.5077 10.8738 91.4785 11.0409 91.4201 11.1981C91.3637 11.3552 91.2388 11.5777 91.0455 11.8658C90.8541 12.1538 90.559 12.5516 90.1602 13.0592Z" fill="white"/>
<path d="M84.1477 14.2689H83.9302V9.26562H84.1477V14.2689ZM83.7127 14.2689H83.4951V9.26562H83.7127V14.2689ZM83.2776 14.2689H83.0601V9.26562H83.2776V14.2689ZM82.8425 14.2689H82.625V9.26562H82.8425V14.2689ZM85.737 11.7673L87.015 9.26562H87.2567L85.9787 11.7673L87.2567 14.2689H87.015L85.737 11.7673ZM85.2505 11.7673L86.5285 9.26562H86.7703L85.4922 11.7673L86.7703 14.2689H86.5285L85.2505 11.7673ZM84.7641 11.7673L86.0421 9.26562H86.2838L85.0058 11.7673L86.2838 14.2689H86.0421L84.7641 11.7673ZM84.2746 11.7673L85.5557 9.26562H85.7974L84.5163 11.7673L85.7974 14.2689H85.5557L84.2746 11.7673Z" fill="white"/>
<path d="M79.3455 14.2689H79.128V9.26562H79.3455V14.2689ZM78.9104 14.2689H78.6929V9.26562H78.9104V14.2689ZM78.4753 14.2689H78.2578V9.26562H78.4753V14.2689ZM79.7806 13.1813H82.0949V13.3988H79.7806V13.6163H82.0949V13.8339H79.7806V14.0514H82.0949V14.2689H79.563V9.26562H82.0949V9.48316H79.7806V9.7007H82.0949V9.91823H79.7806V10.1358H82.0949V10.3533H79.7806V11.2234H80.9679V11.441H79.7806V11.6585H80.9679V11.876H79.7806V12.0936H80.9679V12.3111H79.7806V13.1813Z" fill="white"/>
<path d="M74.9627 14.2689H74.7451V9.26562H74.9627V14.2689ZM74.5276 14.2689H74.3101V9.26562H74.5276V14.2689ZM74.0925 14.2689H73.875V9.26562H74.0925V14.2689ZM75.3977 13.1813H77.7121V13.3988H75.3977V13.6163H77.7121V13.8339H75.3977V14.0514H77.7121V14.2689H75.1802V9.26562H77.7121V9.48316H75.3977V9.7007H77.7121V9.91823H75.3977V10.1358H77.7121V10.3533H75.3977V11.2234H76.5851V11.441H75.3977V11.6585H76.5851V11.876H75.3977V12.0936H76.5851V12.3111H75.3977V13.1813Z" fill="white"/>
<path d="M68.1205 12.7311L68.0177 13.1601L66.9844 9.26562H67.208L68.1205 12.7311ZM68.3471 11.8942L68.2353 12.3111L67.4346 9.26562H67.6552L68.3471 11.8942ZM68.5737 11.0271L68.4589 11.45L67.8818 9.26562H68.1084L68.5737 11.0271ZM69.4347 14.2689H69.2081L70.5315 9.27167L70.5285 9.26562H70.7581V9.27167L71.3472 11.302L71.8881 9.26562H72.1147L70.7883 14.2689H70.5617L69.9695 12.2416L69.4347 14.2689ZM68.9815 14.2689H68.758L70.0813 9.26562H70.3049L68.9815 14.2689ZM68.5314 14.2689H68.3078L69.6341 9.26562H69.8547L68.5314 14.2689ZM72.1418 14.2689H71.9152L73.2386 9.26562H73.4652L72.1418 14.2689ZM71.6886 14.2689H71.4651L72.7884 9.26562H73.012L71.6886 14.2689ZM71.2385 14.2689H71.0149L72.3413 9.26562H72.5618L71.2385 14.2689ZM67.9694 13.8399L69.1809 9.26562H69.4075L68.0812 14.2689H67.8546L66.5312 9.26562H66.7578L67.9694 13.8399ZM70.0843 11.8156L70.6705 13.858L70.7853 13.426L70.1961 11.3896L70.0843 11.8156ZM70.3079 10.9636L70.8971 13L71.0119 12.574L70.4227 10.5346L70.3079 10.9636ZM70.5315 10.1176L71.1237 12.154L71.2354 11.725L70.6493 9.68257L70.5315 10.1176Z" fill="white"/>
<path d="M62.2734 9.26562H62.491V14.2689H62.2734V9.26562ZM63.5786 9.26562H63.7962V13.1813H65.5365V13.3988H63.7962V13.6163H65.5365V13.8339H63.7962V14.0514H65.5365V14.2689H63.5786V9.26562ZM63.1436 9.26562H63.3611V14.2689H63.1436V9.26562ZM62.7085 9.26562H62.926V14.2689H62.7085V9.26562Z" fill="white"/>
<path d="M58.0943 12.9637V10.5708C58.0943 10.5708 58.5888 10.5708 59.5777 10.5708C59.8174 10.5708 60.0229 10.6887 60.1941 10.9243C60.3673 11.158 60.4539 11.439 60.4539 11.7673C60.4539 12.0976 60.3673 12.3796 60.1941 12.6132C60.0229 12.8469 59.8174 12.9637 59.5777 12.9637H58.0943ZM58.3118 12.7462H59.5777C59.757 12.7462 59.9101 12.6505 60.037 12.4592C60.1659 12.2678 60.2303 12.0372 60.2303 11.7673C60.2303 11.4954 60.1659 11.2647 60.037 11.0754C59.9101 10.884 59.757 10.7884 59.5777 10.7884H58.3118V12.7462ZM57.8767 13.1813H59.5777C59.8779 13.1813 60.1357 13.0433 60.3512 12.7673C60.5687 12.4894 60.6775 12.156 60.6775 11.7673C60.6775 11.5115 60.6271 11.2748 60.5264 11.0573C60.4277 10.8397 60.2938 10.6685 60.1246 10.5436C59.9574 10.4167 59.7751 10.3533 59.5777 10.3533H57.8767V13.1813ZM57.6592 13.3988V10.1358H59.5777C59.8134 10.1358 60.033 10.2083 60.2364 10.3533C60.4398 10.4983 60.601 10.6967 60.7198 10.9485C60.8407 11.1983 60.9011 11.4712 60.9011 11.7673C60.9011 12.0614 60.8407 12.3343 60.7198 12.5861C60.601 12.8378 60.4398 13.0362 60.2364 13.1813C60.033 13.3263 59.8134 13.3988 59.5777 13.3988H57.6592ZM57.4417 13.6163H59.5777C59.8537 13.6163 60.1095 13.5337 60.3452 13.3686C60.5828 13.2034 60.7722 12.9788 60.9132 12.6948C61.0542 12.4108 61.1247 12.1016 61.1247 11.7673C61.1247 11.4349 61.0542 11.1268 60.9132 10.8428C60.7722 10.5567 60.5828 10.3311 60.3452 10.166C60.1075 10.0008 59.8517 9.91823 59.5777 9.91823H57.4417V13.6163ZM57.2241 13.8339V9.7007H59.5777C59.892 9.7007 60.185 9.79335 60.4569 9.97866C60.7289 10.162 60.9454 10.4127 61.1065 10.731C61.2677 11.0492 61.3482 11.3946 61.3482 11.7673C61.3482 12.1399 61.2677 12.4853 61.1065 12.8036C60.9454 13.1218 60.7289 13.3736 60.4569 13.5589C60.185 13.7422 59.892 13.8339 59.5777 13.8339H57.2241ZM57.0066 14.0514H59.5777C59.8416 14.0514 60.0964 13.991 60.3421 13.8701C60.5879 13.7493 60.8004 13.5871 60.9796 13.3837C61.1589 13.1803 61.3019 12.9375 61.4087 12.6555C61.5174 12.3715 61.5718 12.0755 61.5718 11.7673C61.5718 11.4591 61.5174 11.164 61.4087 10.882C61.3019 10.6 61.1589 10.3573 60.9796 10.1539C60.8004 9.94844 60.5879 9.78529 60.3421 9.66444C60.0964 9.54359 59.8416 9.48316 59.5777 9.48316H57.0066V14.0514ZM59.5777 14.2689H56.7891V9.26562H59.5777C59.9705 9.26562 60.3371 9.37741 60.6775 9.60099C61.0179 9.82457 61.2888 10.1287 61.4902 10.5134C61.6937 10.8981 61.7954 11.3161 61.7954 11.7673C61.7954 12.1057 61.735 12.43 61.6141 12.7401C61.4953 13.0483 61.3362 13.3142 61.1367 13.5378C60.9373 13.7614 60.7007 13.9396 60.4267 14.0725C60.1548 14.2035 59.8718 14.2689 59.5777 14.2689Z" fill="white"/>
<path d="M55.9927 9.26562H56.2102V14.2689H55.9927V9.26562ZM55.5576 9.26562H55.7752V14.2689H55.5576V9.26562ZM55.1226 9.26562H55.3401V14.2689H55.1226V9.26562ZM54.6875 9.26562H54.905V14.2689H54.6875V9.26562Z" fill="white"/>
<path d="M52.6078 12.0694V9.26562H52.8253V12.0694C52.8253 12.3756 52.7044 12.6374 52.4627 12.855C52.221 13.0725 51.931 13.1813 51.5926 13.1813C51.2542 13.1813 50.9642 13.0725 50.7225 12.855C50.4808 12.6374 50.3599 12.3756 50.3599 12.0694V9.26562H50.5774V12.0694C50.5774 12.3151 50.6761 12.5256 50.8735 12.7009C51.0729 12.8761 51.3126 12.9637 51.5926 12.9637C51.8726 12.9637 52.1113 12.8761 52.3087 12.7009C52.5081 12.5256 52.6078 12.3151 52.6078 12.0694ZM53.0428 12.0694V9.26562H53.2604V12.0694C53.2604 12.2789 53.2161 12.4793 53.1274 12.6707C53.0388 12.86 52.92 13.0241 52.7709 13.1631C52.6219 13.3021 52.4446 13.4129 52.2392 13.4955C52.0337 13.576 51.8182 13.6163 51.5926 13.6163C51.367 13.6163 51.1515 13.576 50.946 13.4955C50.7406 13.4129 50.5633 13.3021 50.4143 13.1631C50.2652 13.0241 50.1464 12.86 50.0578 12.6707C49.9691 12.4793 49.9248 12.2789 49.9248 12.0694V9.26562H50.1424V12.0694C50.1424 12.3091 50.2068 12.5317 50.3357 12.7371C50.4667 12.9406 50.6429 13.1017 50.8645 13.2205C51.088 13.3394 51.3308 13.3988 51.5926 13.3988C51.8544 13.3988 52.0962 13.3394 52.3177 13.2205C52.5413 13.1017 52.7175 12.9406 52.8464 12.7371C52.9774 12.5317 53.0428 12.3091 53.0428 12.0694ZM53.4779 12.0694V9.26562H53.6954V12.0694C53.6954 12.3373 53.639 12.5941 53.5262 12.8398C53.4155 13.0836 53.2664 13.2941 53.0791 13.4713C52.8918 13.6486 52.6682 13.7896 52.4084 13.8943C52.1485 13.999 51.8766 14.0514 51.5926 14.0514C51.3086 14.0514 51.0367 13.999 50.7768 13.8943C50.517 13.7896 50.2934 13.6486 50.1061 13.4713C49.9188 13.2941 49.7687 13.0836 49.6559 12.8398C49.5451 12.5941 49.4898 12.3373 49.4898 12.0694V9.26562H49.7073V12.0694C49.7073 12.3877 49.7919 12.6827 49.9611 12.9547C50.1303 13.2246 50.3589 13.4391 50.6469 13.5982C50.937 13.7553 51.2522 13.8339 51.5926 13.8339C51.933 13.8339 52.2472 13.7553 52.5353 13.5982C52.8253 13.4391 53.0549 13.2246 53.2241 12.9547C53.3933 12.6827 53.4779 12.3877 53.4779 12.0694ZM53.913 12.0694V9.26562H54.1305V12.0694C54.1305 12.5045 54.0167 12.9083 53.7891 13.281C53.5615 13.6516 53.2523 13.9457 52.8616 14.1632C52.4728 14.3787 52.0498 14.4865 51.5926 14.4865C51.1354 14.4865 50.7114 14.3787 50.3206 14.1632C49.9319 13.9457 49.6237 13.6516 49.3961 13.281C49.1685 12.9083 49.0547 12.5045 49.0547 12.0694V9.26562H49.2722V12.0694C49.2722 12.3655 49.3337 12.6495 49.4565 12.9214C49.5794 13.1933 49.7446 13.428 49.952 13.6254C50.1595 13.8208 50.4062 13.9769 50.6922 14.0937C50.9803 14.2105 51.2804 14.2689 51.5926 14.2689C51.9048 14.2689 52.2039 14.2105 52.4899 14.0937C52.778 13.9769 53.0257 13.8208 53.2332 13.6254C53.4406 13.428 53.6058 13.1933 53.7287 12.9214C53.8515 12.6495 53.913 12.3655 53.913 12.0694Z" fill="white"/>
<path d="M47.0735 12.5256C47.0735 12.4471 47.0493 12.3947 47.0009 12.3685C46.9546 12.3423 46.8861 12.3292 46.7955 12.3292H45.3936V12.1117H46.7955C47.1258 12.1117 47.291 12.2497 47.291 12.5256C47.291 12.6807 47.2457 12.7925 47.155 12.861C47.0644 12.9295 46.9445 12.9637 46.7955 12.9637H45.3936V12.7462H46.7955C46.9808 12.7462 47.0735 12.6727 47.0735 12.5256ZM45.2727 14.2689H45.0552V10.5708H46.7955C46.9325 10.5708 47.0493 10.6131 47.146 10.6977C47.2426 10.7803 47.291 10.884 47.291 11.0089C47.291 11.1741 47.2457 11.2939 47.155 11.3685C47.0644 11.441 46.9445 11.4772 46.7955 11.4772H45.3936V11.2597H46.7955C46.9808 11.2597 47.0735 11.1761 47.0735 11.0089C47.0735 10.9404 47.0473 10.8871 46.9949 10.8488C46.9425 10.8085 46.8761 10.7884 46.7955 10.7884H45.2727V14.2689ZM45.3936 11.6948H46.7955C46.9949 11.6948 47.1631 11.6353 47.3001 11.5165C47.439 11.3957 47.5085 11.2265 47.5085 11.0089C47.5085 10.8337 47.436 10.6806 47.291 10.5497C47.148 10.4188 46.9828 10.3533 46.7955 10.3533H44.8377V14.2689H44.6201V10.1358H46.7955C47.0432 10.1358 47.2598 10.2234 47.4451 10.3986C47.6324 10.5718 47.7261 10.7753 47.7261 11.0089C47.7261 11.1922 47.6828 11.3524 47.5961 11.4893C47.5115 11.6263 47.3967 11.732 47.2517 11.8066C47.5679 11.9194 47.7261 12.149 47.7261 12.4954C47.7261 12.7694 47.6354 12.9889 47.4541 13.1541C47.2729 13.3172 47.0533 13.3988 46.7955 13.3988H45.3936V13.1813H46.7955C46.9949 13.1813 47.1631 13.1218 47.3001 13.003C47.439 12.8821 47.5085 12.713 47.5085 12.4954C47.5085 12.3484 47.4562 12.2185 47.3514 12.1057C47.2467 11.9929 47.0926 11.9274 46.8892 11.9093C46.869 11.9113 46.8378 11.9123 46.7955 11.9123H45.3936V11.6948ZM48.1611 11.0089C48.1611 11.2909 48.0614 11.5457 47.862 11.7733C48.0614 11.9949 48.1611 12.2356 48.1611 12.4954C48.1611 12.7472 48.0977 12.9768 47.9708 13.1843C47.8459 13.3897 47.6787 13.5499 47.4692 13.6647C47.2618 13.7775 47.0372 13.8339 46.7955 13.8339H45.3936V13.6163H46.7955C47.1097 13.6163 47.3796 13.5116 47.6052 13.3021C47.8308 13.0906 47.9436 12.8217 47.9436 12.4954C47.9436 12.3786 47.9134 12.2497 47.853 12.1087C47.7945 11.9657 47.713 11.8569 47.6082 11.7824C47.8318 11.5729 47.9436 11.3151 47.9436 11.0089C47.9436 10.7149 47.8288 10.4601 47.5992 10.2445C47.3695 10.027 47.1017 9.91823 46.7955 9.91823H44.4026V14.2689H44.1851V9.7007H46.7955C47.0352 9.7007 47.2598 9.76011 47.4692 9.87895C47.6807 9.99578 47.8489 10.1559 47.9738 10.3593C48.0987 10.5608 48.1611 10.7773 48.1611 11.0089ZM48.1098 11.7854C48.289 11.5457 48.3787 11.2869 48.3787 11.0089C48.3787 10.737 48.3062 10.4842 48.1611 10.2506C48.0181 10.0149 47.8248 9.8286 47.581 9.69163C47.3373 9.55265 47.0755 9.48316 46.7955 9.48316H43.9675V14.2689H43.75V9.26562H46.7955C47.1137 9.26562 47.4108 9.34418 47.6868 9.50129C47.9647 9.6584 48.1853 9.8719 48.3485 10.1418C48.5136 10.4097 48.5962 10.6987 48.5962 11.0089C48.5962 11.305 48.5126 11.5649 48.3454 11.7884C48.5126 12.0201 48.5962 12.2557 48.5962 12.4954C48.5962 12.7653 48.5479 13.0131 48.4512 13.2387C48.3545 13.4622 48.2236 13.6486 48.0584 13.7976C47.8953 13.9467 47.7049 14.0625 47.4874 14.1451C47.2698 14.2276 47.0392 14.2689 46.7955 14.2689H45.3936V14.0514H46.7955C47.007 14.0514 47.2094 14.0121 47.4028 13.9336C47.5961 13.853 47.7643 13.7442 47.9073 13.6073C48.0503 13.4703 48.1642 13.3051 48.2487 13.1118C48.3354 12.9184 48.3787 12.713 48.3787 12.4954C48.3787 12.3987 48.3555 12.2829 48.3092 12.148C48.2649 12.011 48.1984 11.8901 48.1098 11.7854Z" fill="white"/>
<path d="M66.3337 4.83963L66.4213 4.6221H67.1646L67.2522 4.83963H66.3337ZM66.1645 5.2747L66.2491 5.05717H67.3338L67.4274 5.2747H66.1645ZM65.9953 5.70977L66.0799 5.49224H67.506L67.5966 5.70977H65.9953ZM64.2279 6.308H63.9922L65.9712 1.30469H66.2068L68.1828 6.308H67.9501L66.089 1.59776L64.2279 6.308ZM66.1162 2.1144L66.2401 2.39236L64.6931 6.308H64.4605L66.1162 2.1144ZM66.3579 2.68845L66.4727 2.98756L65.1645 6.308H64.9288L66.3579 2.68845ZM66.5875 3.28667L66.7023 3.59183L65.6297 6.308H65.3971L66.5875 3.28667ZM69.5877 6.308H69.352L67.3761 1.30469H67.6087L69.5877 6.308ZM67.1404 1.30469L69.1194 6.308H68.8867L66.9078 1.30469H67.1404ZM66.6721 1.30469L68.6511 6.308H68.4154L66.4395 1.30469H66.6721Z" fill="white"/>
<path d="M60.8846 6.308H60.667V1.30469H60.8846V6.308ZM60.4495 6.308H60.2319V1.30469H60.4495V6.308ZM60.0144 6.308H59.7969V1.30469H60.0144V6.308ZM61.3196 5.22032H63.634V5.43786H61.3196V5.65539H63.634V5.87293H61.3196V6.09046H63.634V6.308H61.1021V1.30469H63.634V1.52222H61.3196V1.73976H63.634V1.95729H61.3196V2.17483H63.634V2.39236H61.3196V3.2625H62.507V3.48004H61.3196V3.69757H62.507V3.91511H61.3196V4.13264H62.507V4.35018H61.3196V5.22032Z" fill="white"/>
<path d="M56.2217 3.81843H57.533C57.7324 3.81843 57.9006 3.75397 58.0375 3.62506C58.1765 3.49615 58.246 3.31286 58.246 3.07518C58.246 2.89995 58.1735 2.74284 58.0285 2.60386C57.8835 2.46286 57.7183 2.39236 57.533 2.39236H55.6658V6.308H55.4483V2.17483H57.533C57.7787 2.17483 57.9952 2.26647 58.1826 2.44977C58.3699 2.63105 58.4635 2.83952 58.4635 3.07518C58.4635 3.36523 58.3729 3.59787 58.1916 3.77311C58.0103 3.94834 57.7908 4.03596 57.533 4.03596H56.2217V3.81843ZM56.2217 4.2535H57.533C57.8472 4.2535 58.1171 4.14372 58.3427 3.92417C58.5683 3.70261 58.6811 3.41961 58.6811 3.07518C58.6811 2.77909 58.5653 2.51926 58.3336 2.29568C58.104 2.07009 57.8371 1.95729 57.533 1.95729H55.2307V6.308H55.0132V1.73976H57.533C57.7727 1.73976 57.9973 1.80119 58.2067 1.92406C58.4182 2.04693 58.5864 2.21209 58.7113 2.41956C58.8362 2.62501 58.8986 2.84355 58.8986 3.07518C58.8986 3.47198 58.7637 3.80433 58.4938 4.07222C58.2259 4.33809 57.9056 4.47103 57.533 4.47103H56.2217V4.2535ZM56.2217 4.68857H57.533C57.815 4.68857 58.0768 4.61908 58.3185 4.4801C58.5602 4.34112 58.7536 4.14775 58.8986 3.9C59.0436 3.65024 59.1162 3.3753 59.1162 3.07518C59.1162 2.80326 59.0436 2.54847 58.8986 2.31079C58.7556 2.0711 58.5622 1.87975 58.3185 1.73674C58.0748 1.59373 57.813 1.52222 57.533 1.52222H54.7957V6.308H54.5781V1.30469H57.533C57.8492 1.30469 58.1463 1.38626 58.4243 1.54941C58.7022 1.71055 58.9228 1.92809 59.0859 2.20202C59.2511 2.47394 59.3337 2.76499 59.3337 3.07518C59.3337 3.43371 59.2561 3.74894 59.101 4.02086C58.948 4.29277 58.7395 4.50527 58.4756 4.65835L59.0376 6.308H58.808L58.2702 4.76108C58.1896 4.79331 58.1282 4.81546 58.0859 4.82755L58.5904 6.308H58.3608L57.8683 4.87891C57.8502 4.88294 57.7858 4.88999 57.675 4.90006L58.1433 6.308H57.9137L57.4514 4.9061H57.255L57.6961 6.308H57.4665L57.0224 4.9061H56.2217V4.68857ZM56.1009 6.308H55.8833V2.6099H57.533C57.6679 2.6099 57.7837 2.65623 57.8804 2.74888C57.9791 2.83952 58.0285 2.94829 58.0285 3.07518C58.0285 3.42566 57.8633 3.60089 57.533 3.60089H56.2217V3.38336H57.533C57.6196 3.38336 57.6871 3.3612 57.7354 3.31689C57.7858 3.27056 57.8109 3.18999 57.8109 3.07518C57.8109 3.00468 57.7837 2.94627 57.7294 2.89995C57.677 2.8516 57.6115 2.82743 57.533 2.82743H56.1009V6.308Z" fill="white"/>
<path d="M50.5685 2.96697C50.3349 3.20062 50.2181 3.48261 50.2181 3.81294C50.2181 4.14327 50.3349 4.42526 50.5685 4.65891C50.8022 4.89256 51.0842 5.00938 51.4145 5.00938C51.7448 5.00938 52.0268 4.89256 52.2605 4.65891C52.4941 4.42526 52.6109 4.14327 52.6109 3.81294C52.6109 3.48261 52.4941 3.20062 52.2605 2.96697C52.0268 2.73332 51.7448 2.6165 51.4145 2.6165C51.0842 2.6165 50.8022 2.73332 50.5685 2.96697ZM50.1123 4.36282C50.0378 4.18758 50.0005 4.00429 50.0005 3.81294C50.0005 3.62159 50.0378 3.4393 50.1123 3.26608C50.1868 3.09084 50.2875 2.93978 50.4144 2.81288C50.5413 2.68599 50.6914 2.58528 50.8646 2.51075C51.0399 2.43622 51.2232 2.39896 51.4145 2.39896C51.6059 2.39896 51.7881 2.43622 51.9614 2.51075C52.1366 2.58528 52.2877 2.68599 52.4146 2.81288C52.5415 2.93978 52.6422 3.09084 52.7167 3.26608C52.7912 3.4393 52.8285 3.62159 52.8285 3.81294C52.8285 4.00429 52.7912 4.18758 52.7167 4.36282C52.6422 4.53604 52.5415 4.6861 52.4146 4.813C52.2877 4.93989 52.1366 5.0406 51.9614 5.11513C51.7881 5.18966 51.6059 5.22692 51.4145 5.22692C51.2232 5.22692 51.0399 5.18966 50.8646 5.11513C50.6914 5.0406 50.5413 4.93989 50.4144 4.813C50.2875 4.6861 50.1868 4.53604 50.1123 4.36282ZM50.0005 2.99416C49.8555 3.24392 49.783 3.51685 49.783 3.81294C49.783 4.10903 49.8555 4.38196 50.0005 4.63172C50.1476 4.88148 50.346 5.07988 50.5957 5.22692C50.8455 5.37194 51.1184 5.44445 51.4145 5.44445C51.7106 5.44445 51.9835 5.37194 52.2333 5.22692C52.483 5.07988 52.6804 4.88148 52.8255 4.63172C52.9725 4.38196 53.046 4.10903 53.046 3.81294C53.046 3.51685 52.9725 3.24392 52.8255 2.99416C52.6804 2.7444 52.483 2.54701 52.2333 2.40198C51.9835 2.25495 51.7106 2.18143 51.4145 2.18143C51.1184 2.18143 50.8455 2.25495 50.5957 2.40198C50.346 2.54701 50.1476 2.7444 50.0005 2.99416ZM49.8132 4.74049C49.648 4.45648 49.5655 4.1473 49.5655 3.81294C49.5655 3.47858 49.648 3.1694 49.8132 2.88539C49.9784 2.60139 50.203 2.37681 50.487 2.21164C50.771 2.04647 51.0801 1.96389 51.4145 1.96389C51.7489 1.96389 52.058 2.04647 52.342 2.21164C52.6261 2.37681 52.8506 2.60139 53.0158 2.88539C53.181 3.1694 53.2636 3.47858 53.2636 3.81294C53.2636 4.1473 53.181 4.45648 53.0158 4.74049C52.8506 5.02449 52.6261 5.24908 52.342 5.41424C52.058 5.57941 51.7489 5.66199 51.4145 5.66199C51.0801 5.66199 50.771 5.57941 50.487 5.41424C50.203 5.24908 49.9784 5.02449 49.8132 4.74049ZM49.5111 3.00927C49.4023 3.26507 49.3479 3.53296 49.3479 3.81294C49.3479 4.09292 49.4023 4.36081 49.5111 4.61661C49.6198 4.87242 49.7659 5.09297 49.9492 5.27828C50.1345 5.46158 50.355 5.60761 50.6108 5.71637C50.8666 5.82514 51.1345 5.87953 51.4145 5.87953C51.6945 5.87953 51.9624 5.82514 52.2182 5.71637C52.474 5.60761 52.6935 5.46158 52.8768 5.27828C53.0621 5.09297 53.2092 4.87242 53.3179 4.61661C53.4267 4.36081 53.4811 4.09292 53.4811 3.81294C53.4811 3.53296 53.4267 3.26507 53.3179 3.00927C53.2092 2.75346 53.0621 2.53391 52.8768 2.35062C52.6935 2.16531 52.474 2.01827 52.2182 1.90951C51.9624 1.80074 51.6945 1.74636 51.4145 1.74636C51.1345 1.74636 50.8666 1.80074 50.6108 1.90951C50.355 2.01827 50.1345 2.16531 49.9492 2.35062C49.7659 2.53391 49.6198 2.75346 49.5111 3.00927ZM49.4355 4.95802C49.2321 4.60755 49.1304 4.22585 49.1304 3.81294C49.1304 3.40003 49.2321 3.01833 49.4355 2.66786C49.641 2.31739 49.9189 2.04043 50.2694 1.837C50.6199 1.63155 51.0016 1.52882 51.4145 1.52882C51.8274 1.52882 52.2091 1.63155 52.5596 1.837C52.9101 2.04043 53.187 2.31739 53.3904 2.66786C53.5959 3.01833 53.6986 3.40003 53.6986 3.81294C53.6986 4.22585 53.5959 4.60755 53.3904 4.95802C53.187 5.3085 52.9101 5.58646 52.5596 5.79191C52.2091 5.99534 51.8274 6.09706 51.4145 6.09706C51.0016 6.09706 50.6199 5.99534 50.2694 5.79191C49.9189 5.58646 49.641 5.3085 49.4355 4.95802ZM49.1092 2.8431C48.9783 3.15127 48.9128 3.47455 48.9128 3.81294C48.9128 4.15133 48.9783 4.47562 49.1092 4.78581C49.2422 5.09398 49.4204 5.35986 49.644 5.58344C49.8676 5.80701 50.1335 5.98527 50.4416 6.11821C50.7518 6.24913 51.0761 6.3146 51.4145 6.3146C51.7529 6.3146 52.0762 6.24913 52.3843 6.11821C52.6945 5.98527 52.9614 5.80701 53.185 5.58344C53.4086 5.35986 53.5858 5.09398 53.7168 4.78581C53.8497 4.47562 53.9162 4.15133 53.9162 3.81294C53.9162 3.47455 53.8497 3.15127 53.7168 2.8431C53.5858 2.53291 53.4086 2.26602 53.185 2.04245C52.9614 1.81887 52.6945 1.64162 52.3843 1.51069C52.0762 1.37775 51.7529 1.31129 51.4145 1.31129C51.0761 1.31129 50.7518 1.37775 50.4416 1.51069C50.1335 1.64162 49.8676 1.81887 49.644 2.04245C49.4204 2.26602 49.2422 2.53291 49.1092 2.8431ZM48.9098 4.8704C48.7668 4.53403 48.6953 4.18154 48.6953 3.81294C48.6953 3.44434 48.7668 3.09286 48.9098 2.7585C49.0548 2.42212 49.2482 2.13309 49.4899 1.89138C49.7336 1.64766 50.0227 1.45429 50.357 1.31129C50.6934 1.16626 51.0459 1.09375 51.4145 1.09375C51.7831 1.09375 52.1346 1.16626 52.4689 1.31129C52.8053 1.45429 53.0944 1.64766 53.3361 1.89138C53.5798 2.13309 53.7731 2.42212 53.9162 2.7585C54.0612 3.09286 54.1337 3.44434 54.1337 3.81294C54.1337 4.18154 54.0612 4.53403 53.9162 4.8704C53.7731 5.20476 53.5798 5.4938 53.3361 5.73752C53.0944 5.97923 52.8053 6.17159 52.4689 6.3146C52.1346 6.45962 51.7831 6.53213 51.4145 6.53213C51.0459 6.53213 50.6934 6.45962 50.357 6.3146C50.0227 6.17159 49.7336 5.97923 49.4899 5.73752C49.2482 5.4938 49.0548 5.20476 48.9098 4.8704Z" fill="white"/>
<path d="M45.2727 6.308H45.0552V1.30469H45.2727V6.308ZM44.8377 6.308H44.6201V1.30469H44.8377V6.308ZM44.4026 6.308H44.1851V1.30469H44.4026V6.308ZM43.9675 6.308H43.75V1.30469H43.9675V6.308ZM46.862 3.80634L48.14 1.30469H48.3817L47.1037 3.80634L48.3817 6.308H48.14L46.862 3.80634ZM46.3755 3.80634L47.6535 1.30469H47.8953L46.6172 3.80634L47.8953 6.308H47.6535L46.3755 3.80634ZM45.8891 3.80634L47.1671 1.30469H47.4088L46.1308 3.80634L47.4088 6.308H47.1671L45.8891 3.80634ZM45.3996 3.80634L46.6807 1.30469H46.9224L45.6413 3.80634L46.9224 6.308H46.6807L45.3996 3.80634Z" fill="white"/>
<path d="M110.836 19.4345C110.685 19.4345 110.55 19.3992 110.429 19.3285C110.312 19.2554 110.22 19.1564 110.154 19.0314C110.088 18.9042 110.055 18.7615 110.055 18.6036C110.055 18.4433 110.088 18.3007 110.154 18.1758C110.22 18.0485 110.312 17.9495 110.429 17.8788C110.55 17.8057 110.685 17.7692 110.836 17.7692C110.935 17.7692 111.032 17.7963 111.126 17.8505C111.223 17.9023 111.305 17.9801 111.374 18.0838L111.349 18.0945V17.7656H111.642V19.4133H111.349V19.1022L111.374 19.1128C111.303 19.2236 111.22 19.3049 111.126 19.3567C111.034 19.4086 110.937 19.4345 110.836 19.4345ZM110.847 19.1764C110.934 19.1764 111.016 19.1517 111.094 19.1022C111.172 19.0527 111.234 18.9843 111.282 18.8971C111.329 18.8099 111.352 18.7109 111.352 18.6001C111.352 18.494 111.329 18.3974 111.282 18.3101C111.234 18.2229 111.172 18.1546 111.094 18.1051C111.016 18.0532 110.934 18.0273 110.847 18.0273C110.75 18.0273 110.664 18.052 110.589 18.1015C110.513 18.1487 110.454 18.2159 110.412 18.3031C110.369 18.3903 110.348 18.4905 110.348 18.6036C110.348 18.7144 110.369 18.8134 110.412 18.9006C110.454 18.9878 110.513 19.0562 110.589 19.1057C110.664 19.1528 110.75 19.1764 110.847 19.1764Z" fill="white"/>
<path d="M108.968 19.4275C108.815 19.4275 108.678 19.3921 108.558 19.3214C108.44 19.2507 108.347 19.1528 108.279 19.0279C108.213 18.9006 108.18 18.7568 108.18 18.5965C108.18 18.4363 108.213 18.2936 108.279 18.1687C108.347 18.0414 108.44 17.9424 108.558 17.8717C108.678 17.801 108.815 17.7656 108.968 17.7656C109.121 17.7656 109.246 17.7974 109.343 17.8611C109.442 17.9224 109.514 17.986 109.559 18.052C109.603 18.118 109.633 18.1722 109.647 18.2147C109.685 18.3113 109.707 18.4044 109.714 18.494C109.721 18.5836 109.721 18.6555 109.714 18.7097V18.7238H108.477C108.498 18.8535 108.554 18.9607 108.646 19.0456C108.738 19.1281 108.846 19.1693 108.968 19.1693C109.065 19.1693 109.146 19.154 109.212 19.1234C109.281 19.0904 109.329 19.0574 109.357 19.0244C109.388 18.9914 109.415 18.9584 109.438 18.9254L109.672 19.0456C109.625 19.1493 109.54 19.2389 109.417 19.3143C109.297 19.3897 109.147 19.4275 108.968 19.4275ZM109.428 18.4693C109.411 18.3325 109.367 18.2241 109.293 18.144C109.22 18.0638 109.112 18.0237 108.968 18.0237C108.843 18.0237 108.735 18.0662 108.643 18.151C108.553 18.2335 108.498 18.3408 108.477 18.4728L109.428 18.4693Z" fill="white"/>
<path d="M107.387 18.1046C107.417 18.0362 107.462 17.9749 107.521 17.9207C107.582 17.8665 107.652 17.8253 107.73 17.797C107.807 17.7687 107.888 17.7557 107.97 17.7581V18.0409C107.871 18.0362 107.779 18.0598 107.694 18.1117C107.612 18.1612 107.545 18.2283 107.493 18.3132C107.443 18.3957 107.418 18.4853 107.418 18.5819V19.4199H107.125V17.7722H107.418V18.1152L107.387 18.1046Z" fill="white"/>
<path d="M105.953 19.1764C106.047 19.1764 106.132 19.1528 106.207 19.1057C106.283 19.0562 106.34 18.9878 106.38 18.9006C106.423 18.8134 106.444 18.7144 106.444 18.6036C106.444 18.4905 106.423 18.3903 106.38 18.3031C106.34 18.2159 106.283 18.1487 106.207 18.1015C106.132 18.052 106.047 18.0273 105.953 18.0273C105.804 18.0273 105.684 18.0803 105.592 18.1864C105.502 18.2925 105.458 18.4315 105.458 18.6036C105.458 18.7733 105.502 18.9112 105.592 19.0173C105.684 19.1234 105.804 19.1764 105.953 19.1764ZM105.949 17.7656C106.102 17.7656 106.239 17.8022 106.359 17.8752C106.479 17.946 106.572 18.045 106.638 18.1722C106.707 18.2972 106.741 18.441 106.741 18.6036C106.741 18.7639 106.707 18.9077 106.638 19.035C106.572 19.1599 106.479 19.2589 106.359 19.332C106.239 19.4027 106.102 19.4381 105.949 19.4381C105.798 19.4381 105.663 19.4027 105.542 19.332C105.425 19.2589 105.331 19.1599 105.263 19.035C105.197 18.9077 105.164 18.7639 105.164 18.6036C105.164 18.441 105.197 18.2972 105.263 18.1722C105.331 18.045 105.425 17.946 105.542 17.8752C105.663 17.8022 105.798 17.7656 105.949 17.7656Z" fill="white"/>
<path d="M103.923 17.978L104.969 19.41H104.601L103.721 18.2078L103.406 18.5543V19.41H103.109V16.8395H103.406V18.1124L104.548 16.8359H104.948L103.923 17.978Z" fill="white"/>
<path d="M101.423 18.4946C101.423 18.3531 101.389 18.2388 101.32 18.1516C101.252 18.062 101.162 18.0172 101.051 18.0172C100.974 18.0172 100.901 18.042 100.832 18.0915C100.764 18.1386 100.71 18.2035 100.67 18.286C100.63 18.3661 100.61 18.4533 100.61 18.5476V19.3997H100.312V16.9141H100.61V18.0526L100.585 18.042C100.632 17.9571 100.698 17.8888 100.783 17.8369C100.868 17.7827 100.957 17.7556 101.051 17.7556C101.179 17.7556 101.293 17.7862 101.394 17.8475C101.496 17.9088 101.575 17.9937 101.631 18.1021C101.69 18.2105 101.72 18.3331 101.72 18.4698V19.3997H101.423V18.4946Z" fill="white"/>
<path d="M99.2459 17.1953H99.5429V19.4158H99.2459V17.1953ZM98.9453 17.7646H99.9318V18.0262H98.9453V17.7646Z" fill="white"/>
<path d="M97.422 18.7238C97.422 18.8558 97.4574 18.9643 97.5281 19.0491C97.6012 19.134 97.6954 19.1764 97.8109 19.1764C97.943 19.1764 98.049 19.1375 98.1292 19.0597C98.2117 18.9819 98.2529 18.8782 98.2529 18.7486V17.7656H98.5499V19.4133H98.2529V19.1587L98.2812 19.1658C98.2317 19.246 98.161 19.312 98.0691 19.3638C97.9771 19.4133 97.8852 19.4381 97.7933 19.4381C97.666 19.4381 97.5517 19.4086 97.4503 19.3497C97.3489 19.2884 97.2688 19.2059 97.2099 19.1022C97.1533 18.9961 97.125 18.8782 97.125 18.7486V17.7656H97.422V18.7238Z" fill="white"/>
<path d="M95.8979 19.1764C95.9922 19.1764 96.077 19.1528 96.1524 19.1057C96.2279 19.0562 96.2856 18.9878 96.3257 18.9006C96.3681 18.8134 96.3893 18.7144 96.3893 18.6036C96.3893 18.4905 96.3681 18.3903 96.3257 18.3031C96.2856 18.2159 96.2279 18.1487 96.1524 18.1015C96.077 18.052 95.9922 18.0273 95.8979 18.0273C95.7494 18.0273 95.6291 18.0803 95.5372 18.1864C95.4476 18.2925 95.4028 18.4315 95.4028 18.6036C95.4028 18.7733 95.4476 18.9112 95.5372 19.0173C95.6291 19.1234 95.7494 19.1764 95.8979 19.1764ZM95.8943 17.7656C96.0475 17.7656 96.1843 17.8022 96.3045 17.8752C96.4247 17.946 96.5178 18.045 96.5838 18.1722C96.6522 18.2972 96.6863 18.441 96.6863 18.6036C96.6863 18.7639 96.6522 18.9077 96.5838 19.035C96.5178 19.1599 96.4247 19.2589 96.3045 19.332C96.1843 19.4027 96.0475 19.4381 95.8943 19.4381C95.7435 19.4381 95.6079 19.4027 95.4877 19.332C95.3698 19.2589 95.2767 19.1599 95.2084 19.035C95.1424 18.9077 95.1094 18.7639 95.1094 18.6036C95.1094 18.441 95.1424 18.2972 95.2084 18.1722C95.2767 18.045 95.3698 17.946 95.4877 17.8752C95.6079 17.8022 95.7435 17.7656 95.8943 17.7656Z" fill="white"/>
<path d="M93.2042 18.722C93.2749 18.8611 93.3645 18.973 93.4729 19.0579C93.5813 19.1404 93.7004 19.1816 93.83 19.1816C94.0021 19.1864 94.1388 19.1475 94.2402 19.065C94.3415 18.9825 94.3922 18.8729 94.3922 18.7361C94.3922 18.6395 94.3663 18.5605 94.3144 18.4992C94.2626 18.4356 94.1977 18.3849 94.1199 18.3472C94.0445 18.3095 93.9408 18.2659 93.8088 18.2164C93.6485 18.1574 93.5189 18.102 93.4199 18.0502C93.3232 17.996 93.2407 17.9217 93.1723 17.8274C93.104 17.7308 93.0698 17.6082 93.0698 17.4597C93.0698 17.323 93.104 17.2063 93.1723 17.1097C93.2431 17.013 93.3397 16.9388 93.4623 16.8869C93.5849 16.835 93.7228 16.8103 93.876 16.8127C93.9962 16.815 94.1058 16.8386 94.2048 16.8834C94.3062 16.9258 94.3934 16.9894 94.4665 17.0743C94.5419 17.1568 94.5996 17.2593 94.6397 17.3819L94.3745 17.4739C94.3368 17.3513 94.2732 17.2546 94.1836 17.1839C94.094 17.1132 93.9903 17.0767 93.8724 17.0743C93.7216 17.0719 93.599 17.1061 93.5047 17.1768C93.4104 17.2452 93.3633 17.3395 93.3633 17.4597C93.3633 17.554 93.3892 17.633 93.4411 17.6966C93.4929 17.7579 93.5566 17.8086 93.632 17.8486C93.7098 17.8864 93.8135 17.9288 93.9432 17.9759C94.1058 18.0372 94.2354 18.095 94.3321 18.1492C94.4287 18.201 94.5112 18.2753 94.5796 18.3719C94.6503 18.4662 94.6857 18.5888 94.6857 18.7397C94.6857 18.8811 94.6503 19.0049 94.5796 19.1109C94.5089 19.217 94.4087 19.2995 94.2791 19.3584C94.1494 19.4174 93.9985 19.4457 93.8265 19.4433C93.6426 19.4409 93.4776 19.3903 93.3315 19.2913C93.1877 19.1899 93.0616 19.0449 92.9531 18.8564L93.2042 18.722Z" fill="white"/>
<path d="M91.2348 19.8243H91.0156L91.1323 19.1172H91.4435L91.2348 19.8243Z" fill="white"/>
<path d="M90.6294 16.9141V19.4103H90.3359V16.9141H90.6294Z" fill="white"/>
<path d="M88.7345 18.7238C88.7345 18.8558 88.7699 18.9643 88.8406 19.0491C88.9137 19.134 89.0079 19.1764 89.1234 19.1764C89.2555 19.1764 89.3615 19.1375 89.4417 19.0597C89.5242 18.9819 89.5654 18.8782 89.5654 18.7486V17.7656H89.8624V19.4133H89.5654V19.1587L89.5937 19.1658C89.5442 19.246 89.4735 19.312 89.3816 19.3638C89.2896 19.4133 89.1977 19.4381 89.1058 19.4381C88.9785 19.4381 88.8642 19.4086 88.7628 19.3497C88.6614 19.2884 88.5813 19.2059 88.5224 19.1022C88.4658 18.9961 88.4375 18.8782 88.4375 18.7486V17.7656H88.7345V18.7238Z" fill="white"/>
<path d="M87.2182 19.1764C87.3125 19.1764 87.3973 19.1528 87.4728 19.1057C87.5482 19.0562 87.6059 18.9878 87.646 18.9006C87.6884 18.8134 87.7097 18.7144 87.7097 18.6036C87.7097 18.4905 87.6884 18.3903 87.646 18.3031C87.6059 18.2159 87.5482 18.1487 87.4728 18.1015C87.3973 18.052 87.3125 18.0273 87.2182 18.0273C87.0697 18.0273 86.9495 18.0803 86.8575 18.1864C86.7679 18.2925 86.7232 18.4315 86.7232 18.6036C86.7232 18.7733 86.7679 18.9112 86.8575 19.0173C86.9495 19.1234 87.0697 19.1764 87.2182 19.1764ZM87.2146 17.7656C87.3679 17.7656 87.5046 17.8022 87.6248 17.8752C87.745 17.946 87.8381 18.045 87.9041 18.1722C87.9725 18.2972 88.0067 18.441 88.0067 18.6036C88.0067 18.7639 87.9725 18.9077 87.9041 19.035C87.8381 19.1599 87.745 19.2589 87.6248 19.332C87.5046 19.4027 87.3679 19.4381 87.2146 19.4381C87.0638 19.4381 86.9282 19.4027 86.808 19.332C86.6902 19.2589 86.5971 19.1599 86.5287 19.035C86.4627 18.9077 86.4297 18.7639 86.4297 18.6036C86.4297 18.441 86.4627 18.2972 86.5287 18.1722C86.5971 18.045 86.6902 17.946 86.808 17.8752C86.9282 17.8022 87.0638 17.7656 87.2146 17.7656Z" fill="white"/>
<path d="M85.3354 19.4275C85.1821 19.4275 85.0454 19.3921 84.9252 19.3214C84.8073 19.2507 84.7142 19.1528 84.6459 19.0279C84.5799 18.9006 84.5469 18.7568 84.5469 18.5965C84.5469 18.4363 84.5799 18.2936 84.6459 18.1687C84.7142 18.0414 84.8073 17.9424 84.9252 17.8717C85.0454 17.801 85.1821 17.7656 85.3354 17.7656C85.4886 17.7656 85.6135 17.7974 85.7102 17.8611C85.8092 17.9224 85.8811 17.986 85.9258 18.052C85.9706 18.118 86.0001 18.1722 86.0142 18.2147C86.052 18.3113 86.0743 18.4044 86.0814 18.494C86.0885 18.5836 86.0885 18.6555 86.0814 18.7097V18.7238H84.8439C84.8651 18.8535 84.9217 18.9607 85.0136 19.0456C85.1055 19.1281 85.2128 19.1693 85.3354 19.1693C85.432 19.1693 85.5133 19.154 85.5793 19.1234C85.6477 19.0904 85.696 19.0574 85.7243 19.0244C85.7549 18.9914 85.7821 18.9584 85.8056 18.9254L86.039 19.0456C85.9918 19.1493 85.907 19.2389 85.7844 19.3143C85.6642 19.3897 85.5145 19.4275 85.3354 19.4275ZM85.795 18.4693C85.7785 18.3325 85.7337 18.2241 85.6607 18.144C85.5876 18.0638 85.4792 18.0237 85.3354 18.0237C85.2104 18.0237 85.102 18.0662 85.0101 18.151C84.9205 18.2335 84.8651 18.3408 84.8439 18.4728L85.795 18.4693Z" fill="white"/>
<path d="M82.6495 18.722C82.7202 18.8611 82.8098 18.973 82.9182 19.0579C83.0266 19.1404 83.1457 19.1816 83.2753 19.1816C83.4474 19.1864 83.5841 19.1475 83.6855 19.065C83.7868 18.9825 83.8375 18.8729 83.8375 18.7361C83.8375 18.6395 83.8116 18.5605 83.7597 18.4992C83.7079 18.4356 83.643 18.3849 83.5653 18.3472C83.4898 18.3095 83.3861 18.2659 83.2541 18.2164C83.0938 18.1574 82.9642 18.102 82.8652 18.0502C82.7685 17.996 82.686 17.9217 82.6177 17.8274C82.5493 17.7308 82.5151 17.6082 82.5151 17.4597C82.5151 17.323 82.5493 17.2063 82.6177 17.1097C82.6884 17.013 82.785 16.9388 82.9076 16.8869C83.0302 16.835 83.1681 16.8103 83.3213 16.8127C83.4415 16.815 83.5511 16.8386 83.6501 16.8834C83.7515 16.9258 83.8387 16.9894 83.9118 17.0743C83.9872 17.1568 84.0449 17.2593 84.085 17.3819L83.8198 17.4739C83.7821 17.3513 83.7185 17.2546 83.6289 17.1839C83.5393 17.1132 83.4356 17.0767 83.3177 17.0743C83.1669 17.0719 83.0443 17.1061 82.95 17.1768C82.8557 17.2452 82.8086 17.3395 82.8086 17.4597C82.8086 17.554 82.8345 17.633 82.8864 17.6966C82.9382 17.7579 83.0019 17.8086 83.0773 17.8486C83.1551 17.8864 83.2588 17.9288 83.3885 17.9759C83.5511 18.0372 83.6808 18.095 83.7774 18.1492C83.874 18.201 83.9566 18.2753 84.0249 18.3719C84.0956 18.4662 84.131 18.5888 84.131 18.7397C84.131 18.8811 84.0956 19.0049 84.0249 19.1109C83.9542 19.217 83.854 19.2995 83.7244 19.3584C83.5947 19.4174 83.4439 19.4457 83.2718 19.4433C83.0879 19.4409 82.9229 19.3903 82.7768 19.2913C82.633 19.1899 82.5069 19.0449 82.3984 18.8564L82.6495 18.722Z" fill="white"/>
<path d="M80.058 16.8359V19.41H79.8281V16.8359H80.058Z" fill="white"/>
<path d="M76.7115 19.1709C76.8223 19.1709 76.9201 19.1461 77.005 19.0966C77.0922 19.0471 77.1594 18.9788 77.2065 18.8916C77.256 18.802 77.2808 18.7006 77.2808 18.5875C77.2808 18.4743 77.256 18.373 77.2065 18.2834C77.1594 18.1938 77.0922 18.1243 77.005 18.0748C76.9201 18.0253 76.8223 18.0005 76.7115 18.0005C76.6031 18.0005 76.5064 18.0253 76.4216 18.0748C76.3391 18.1243 76.2731 18.1938 76.2236 18.2834C76.1764 18.373 76.1528 18.4743 76.1528 18.5875C76.1528 18.7006 76.1764 18.802 76.2236 18.8916C76.2731 18.9788 76.3391 19.0471 76.4216 19.0966C76.5064 19.1461 76.6031 19.1709 76.7115 19.1709ZM75.8594 18.5875C75.8594 18.4272 75.9042 18.2669 75.9937 18.1066L76.7292 16.8125L76.9873 16.9575L76.5241 17.7601C76.5995 17.746 76.6644 17.7389 76.7186 17.7389C76.8859 17.7389 77.0333 17.7754 77.1606 17.8485C77.2902 17.9216 77.3916 18.0217 77.4646 18.149C77.5377 18.2763 77.5742 18.4225 77.5742 18.5875C77.5742 18.7501 77.5377 18.8963 77.4646 19.0259C77.3916 19.1532 77.2902 19.2534 77.1606 19.3265C77.0309 19.3972 76.8836 19.4325 76.7186 19.4325C76.5512 19.4325 76.4027 19.3972 76.2731 19.3265C76.1434 19.2534 76.0421 19.1532 75.969 19.0259C75.8959 18.8963 75.8594 18.7501 75.8594 18.5875Z" fill="white"/>
<path d="M73.8919 19.1504C73.9532 19.0915 74.0039 19.0432 74.044 19.0054C74.0841 18.9677 74.1347 18.9206 74.196 18.864C74.4011 18.6754 74.5661 18.5175 74.691 18.3902C74.8183 18.2629 74.9256 18.1321 75.0128 17.9977C75.1024 17.8634 75.1471 17.7396 75.1471 17.6265C75.1471 17.4662 75.1012 17.3365 75.0093 17.2375C74.9197 17.1362 74.8018 17.0855 74.6557 17.0855C74.552 17.0855 74.4506 17.1209 74.3516 17.1916C74.2549 17.2623 74.1819 17.3542 74.1324 17.4674L73.8672 17.3507C73.9355 17.1951 74.0428 17.0678 74.1889 16.9688C74.3374 16.8698 74.4942 16.8203 74.6592 16.8203C74.8101 16.8203 74.9444 16.8545 75.0623 16.9229C75.1825 16.9912 75.2756 17.0867 75.3416 17.2093C75.4076 17.3295 75.4406 17.4674 75.4406 17.6229C75.4406 17.7785 75.3911 17.9364 75.2921 18.0967C75.1931 18.257 75.0741 18.4079 74.935 18.5493C74.7983 18.6908 74.6215 18.8581 74.4046 19.0514C74.2962 19.1504 74.1937 19.2459 74.097 19.3378L73.8919 19.1504ZM73.8919 19.1504H75.4831V19.4121H73.9273L73.8919 19.1504Z" fill="white"/>
<path d="M72.4307 19.1646C72.5863 19.1646 72.7218 19.1221 72.8373 19.0373C72.9552 18.9524 73.0448 18.8322 73.1061 18.6766C73.1697 18.5187 73.2015 18.3336 73.2015 18.1215C73.2015 17.9093 73.1697 17.7255 73.1061 17.5699C73.0448 17.412 72.9552 17.2906 72.8373 17.2057C72.7218 17.1209 72.5863 17.0784 72.4307 17.0784C72.2728 17.0784 72.1349 17.1209 72.017 17.2057C71.9015 17.2906 71.812 17.412 71.7483 17.5699C71.6847 17.7278 71.6528 17.9117 71.6528 18.1215C71.6528 18.3336 71.6847 18.5187 71.7483 18.6766C71.812 18.8322 71.9027 18.9524 72.0206 19.0373C72.1384 19.1221 72.2751 19.1646 72.4307 19.1646ZM72.4307 19.4262C72.2139 19.4262 72.0241 19.3732 71.8615 19.2671C71.7012 19.161 71.5774 19.0102 71.4902 18.8145C71.403 18.6165 71.3594 18.3855 71.3594 18.1215C71.3594 17.8575 71.403 17.6277 71.4902 17.432C71.5774 17.2364 71.7012 17.0855 71.8615 16.9794C72.0241 16.8733 72.2139 16.8203 72.4307 16.8203C72.6452 16.8203 72.8326 16.8733 72.9929 16.9794C73.1556 17.0855 73.2793 17.2364 73.3642 17.432C73.4514 17.6277 73.495 17.8575 73.495 18.1215C73.495 18.3855 73.4514 18.6165 73.3642 18.8145C73.2793 19.0102 73.1556 19.161 72.9929 19.2671C72.8326 19.3732 72.6452 19.4262 72.4307 19.4262Z" fill="white"/>
<path d="M69.3919 19.1504C69.4532 19.0915 69.5039 19.0432 69.544 19.0054C69.5841 18.9677 69.6347 18.9206 69.696 18.864C69.9011 18.6754 70.0661 18.5175 70.191 18.3902C70.3183 18.2629 70.4256 18.1321 70.5128 17.9977C70.6024 17.8634 70.6471 17.7396 70.6471 17.6265C70.6471 17.4662 70.6012 17.3365 70.5093 17.2375C70.4197 17.1362 70.3018 17.0855 70.1557 17.0855C70.052 17.0855 69.9506 17.1209 69.8516 17.1916C69.7549 17.2623 69.6819 17.3542 69.6324 17.4674L69.3672 17.3507C69.4355 17.1951 69.5428 17.0678 69.6889 16.9688C69.8374 16.8698 69.9942 16.8203 70.1592 16.8203C70.3101 16.8203 70.4444 16.8545 70.5623 16.9229C70.6825 16.9912 70.7756 17.0867 70.8416 17.2093C70.9076 17.3295 70.9406 17.4674 70.9406 17.6229C70.9406 17.7785 70.8911 17.9364 70.7921 18.0967C70.6931 18.257 70.5741 18.4079 70.435 18.5493C70.2983 18.6908 70.1215 18.8581 69.9046 19.0514C69.7962 19.1504 69.6937 19.2459 69.597 19.3378L69.3919 19.1504ZM69.3919 19.1504H70.9831V19.4121H69.4273L69.3919 19.1504Z" fill="white"/>
<path d="M67.7348 19.8243H67.5156L67.6323 19.1172H67.9435L67.7348 19.8243Z" fill="white"/>
<path d="M66.7899 18.4946C66.7899 18.3531 66.7558 18.2388 66.6874 18.1516C66.619 18.062 66.5295 18.0172 66.4187 18.0172C66.3409 18.0172 66.2678 18.042 66.1995 18.0915C66.1311 18.1386 66.0769 18.2035 66.0368 18.286C65.9967 18.3661 65.9767 18.4533 65.9767 18.5476V19.3997H65.6797V16.9141H65.9767V18.0526L65.9519 18.042C65.9991 17.9571 66.0651 17.8888 66.1499 17.8369C66.2348 17.7827 66.3244 17.7556 66.4187 17.7556C66.546 17.7556 66.6603 17.7862 66.7616 17.8475C66.863 17.9088 66.942 17.9937 66.9985 18.1021C67.0575 18.2105 67.0869 18.3331 67.0869 18.4698V19.3997H66.7899V18.4946Z" fill="white"/>
<path d="M64.6209 17.1953H64.9179V19.4158H64.6209V17.1953ZM64.3203 17.7646H65.3068V18.0262H64.3203V17.7646Z" fill="white"/>
<path d="M63.1127 17.082C62.9454 17.082 62.8087 17.1362 62.7026 17.2446C62.5965 17.353 62.5435 17.4933 62.5435 17.6654C62.5435 17.7785 62.5682 17.8799 62.6177 17.9695C62.6672 18.059 62.7344 18.1286 62.8193 18.1781C62.9065 18.2276 63.0043 18.2523 63.1127 18.2523C63.2212 18.2523 63.3178 18.2276 63.4027 18.1781C63.4875 18.1286 63.5535 18.059 63.6007 17.9695C63.6478 17.8799 63.6714 17.7785 63.6714 17.6654C63.6714 17.5522 63.6478 17.452 63.6007 17.3648C63.5535 17.2753 63.4875 17.2057 63.4027 17.1562C63.3178 17.1067 63.2212 17.082 63.1127 17.082ZM63.9649 17.6654C63.9649 17.8257 63.9201 17.9848 63.8305 18.1427L63.0951 19.4368L62.8405 19.2954L63.3001 18.4928C63.2271 18.5069 63.1622 18.514 63.1057 18.514C62.9407 18.514 62.7933 18.4774 62.6637 18.4044C62.534 18.3313 62.4327 18.2311 62.3596 18.1038C62.2865 17.9742 62.25 17.828 62.25 17.6654C62.25 17.5004 62.2865 17.3542 62.3596 17.2269C62.4327 17.0996 62.534 17.0006 62.6637 16.9299C62.7933 16.8568 62.9418 16.8203 63.1092 16.8203C63.2742 16.8203 63.4215 16.8568 63.5512 16.9299C63.6808 17.0006 63.7822 17.0996 63.8553 17.2269C63.9283 17.3542 63.9649 17.5004 63.9649 17.6654Z" fill="white"/>
<path d="M61.7076 19.4001H61.4142V17.1761L60.9298 17.5085L60.7812 17.2751L61.4142 16.8438H61.7076V19.4001Z" fill="white"/>
<path d="M60.377 17.9531V18.2466H58.8672V17.9531H60.377Z" fill="white"/>
<path d="M58.0477 18.4946C58.0477 18.3531 58.0136 18.2388 57.9452 18.1516C57.8768 18.062 57.7873 18.0172 57.6765 18.0172C57.5987 18.0172 57.5256 18.042 57.4573 18.0915C57.3889 18.1386 57.3347 18.2035 57.2946 18.286C57.2545 18.3661 57.2345 18.4533 57.2345 18.5476V19.3997H56.9375V16.9141H57.2345V18.0526L57.2098 18.042C57.2569 17.9571 57.3229 17.8888 57.4078 17.8369C57.4926 17.7827 57.5822 17.7556 57.6765 17.7556C57.8038 17.7556 57.9181 17.7862 58.0195 17.8475C58.1208 17.9088 58.1998 17.9937 58.2564 18.1021C58.3153 18.2105 58.3448 18.3331 58.3448 18.4698V19.3997H58.0477V18.4946Z" fill="white"/>
<path d="M55.8709 17.1953H56.1679V19.4158H55.8709V17.1953ZM55.5703 17.7646H56.5568V18.0262H55.5703V17.7646Z" fill="white"/>
<path d="M54.3458 19.4284C54.1902 19.4284 54.0488 19.3954 53.9215 19.3294C53.7942 19.2634 53.6929 19.1738 53.6174 19.0607C53.5443 18.9452 53.5078 18.8167 53.5078 18.6753H53.8013C53.8013 18.7672 53.8249 18.8509 53.872 18.9263C53.9215 18.9994 53.9875 19.0583 54.07 19.1031C54.1525 19.1456 54.2444 19.1668 54.3458 19.1668C54.4519 19.1668 54.5497 19.142 54.6393 19.0925C54.7312 19.043 54.8019 18.9758 54.8514 18.891C54.9033 18.8061 54.9292 18.713 54.9292 18.6117C54.9292 18.5127 54.9033 18.4219 54.8514 18.3394C54.8019 18.2569 54.7324 18.1921 54.6428 18.1449C54.5556 18.0978 54.4589 18.0742 54.3529 18.0742H54.215V17.809H54.3529C54.5132 17.809 54.6593 17.8444 54.7913 17.9151C54.9257 17.9858 55.0306 18.0825 55.106 18.205C55.1814 18.3253 55.2191 18.4596 55.2191 18.6081C55.2191 18.759 55.1803 18.8981 55.1025 19.0253C55.027 19.1503 54.9221 19.2493 54.7878 19.3224C54.6534 19.3931 54.5061 19.4284 54.3458 19.4284ZM54.0064 17.8833L54.7241 17.1054H55.0989L54.215 18.0742L54.0064 17.8833ZM53.628 16.8438H55.0636L55.0989 17.1054H53.628V16.8438Z" fill="white"/>
<path d="M52.9654 19.4001H52.672V17.1761L52.1876 17.5085L52.0391 17.2751L52.672 16.8438H52.9654V19.4001Z" fill="white"/>
<path d="M50.8247 16.9141V19.4103H50.5312V16.9141H50.8247Z" fill="white"/>
<path d="M50.0284 17.7621V19.4133H49.7349V17.7621H50.0284ZM49.8835 16.9453C49.9353 16.9453 49.9777 16.9618 50.0107 16.9948C50.0437 17.0278 50.0602 17.0702 50.0602 17.1221C50.0602 17.174 50.0437 17.2176 50.0107 17.2529C49.9777 17.2859 49.9353 17.3024 49.8835 17.3024C49.8316 17.3024 49.788 17.2859 49.7526 17.2529C49.7196 17.2176 49.7031 17.174 49.7031 17.1221C49.7031 17.0702 49.7196 17.0278 49.7526 16.9948C49.788 16.9618 49.8316 16.9453 49.8835 16.9453Z" fill="white"/>
<path d="M48.7226 18.1046C48.7532 18.0362 48.798 17.9749 48.8569 17.9207C48.9182 17.8665 48.9878 17.8253 49.0656 17.797C49.1433 17.7687 49.2235 17.7557 49.306 17.7581V18.0409C49.207 18.0362 49.1151 18.0598 49.0302 18.1117C48.9477 18.1612 48.8805 18.2283 48.8287 18.3132C48.7792 18.3957 48.7544 18.4853 48.7544 18.5819V19.4199H48.4609V17.7722H48.7544V18.1152L48.7226 18.1046Z" fill="white"/>
<path d="M47.2835 19.1764C47.4343 19.1764 47.5557 19.1234 47.6477 19.0173C47.7396 18.9089 47.7856 18.7698 47.7856 18.6001C47.7856 18.4869 47.7643 18.3867 47.7219 18.2995C47.6795 18.2123 47.6205 18.1451 47.5451 18.098C47.4697 18.0485 47.3825 18.0237 47.2835 18.0237C47.1963 18.0237 47.1137 18.0497 47.036 18.1015C46.9582 18.1534 46.8957 18.2241 46.8486 18.3137C46.8038 18.4009 46.7814 18.4964 46.7814 18.6001C46.7814 18.7038 46.8038 18.8004 46.8486 18.89C46.8934 18.9772 46.9546 19.0468 47.0324 19.0986C47.1126 19.1505 47.1963 19.1764 47.2835 19.1764ZM47.2941 17.7656C47.4473 17.7656 47.5828 17.8022 47.7007 17.8752C47.8209 17.946 47.914 18.045 47.98 18.1722C48.046 18.2972 48.079 18.4398 48.079 18.6001C48.079 18.7604 48.046 18.9042 47.98 19.0314C47.914 19.1587 47.8209 19.2589 47.7007 19.332C47.5828 19.4027 47.4473 19.4381 47.2941 19.4381C47.1974 19.4381 47.0972 19.4086 46.9935 19.3497C46.8898 19.2907 46.8097 19.213 46.7531 19.1163L46.7778 19.0986V20.17H46.4844V17.7656H46.7778V18.1015L46.7531 18.0874C46.8073 17.986 46.8863 17.9071 46.99 17.8505C47.0937 17.7939 47.1951 17.7656 47.2941 17.7656Z" fill="white"/>
<path d="M46.0163 19.41H45.7016L45.4293 18.6816H44.3085L44.0256 19.41H43.7109L44.6974 16.8359H45.0475L46.0163 19.41ZM45.3303 18.4235L44.8742 17.2107L44.404 18.4235H45.3303Z" fill="white"/>
<path d="M33.4075 6.1276C33.4468 6.0403 33.5415 5.99226 33.635 6.01235C33.7285 6.03245 33.7952 6.11523 33.7952 6.21098V9.23086C34.7807 10.0476 36.0664 10.5587 37.2934 10.8634C38.5485 11.175 39.7242 11.2662 40.417 11.2552C40.4713 11.2544 40.5238 11.2754 40.5625 11.3136C40.6012 11.3518 40.623 11.4039 40.623 11.4583V13.3203C40.623 13.4165 40.5557 13.4995 40.4617 13.5191C39.1606 13.7911 35.7296 14.4087 32.3937 14.7075C28.2218 15.0812 21.6867 14.9791 17.6922 14.7079C14.4873 14.4902 11.0644 13.8244 9.75061 13.5181C9.65877 13.4967 9.59375 13.4148 9.59375 13.3203V11.4583L9.59474 11.4383C9.60442 11.3395 9.68495 11.2608 9.78593 11.2555C13.231 11.0739 15.5151 9.85136 16.2863 9.23026V6.21098C16.2863 6.11523 16.3531 6.03245 16.4466 6.01235C16.54 5.99226 16.6348 6.0403 16.6741 6.1276C16.7761 6.35464 16.9746 6.56125 17.1973 6.73049C17.4085 6.89098 17.626 7.0061 17.7641 7.0646C19.1474 7.31847 19.9152 7.50054 20.9037 7.62167C21.8926 7.74287 23.0997 7.80212 25.345 7.80212C28.9271 7.80212 31.3133 7.30707 32.0419 7.06745L32.0444 7.06665C32.9479 6.78225 33.3347 6.2897 33.4075 6.1276ZM33.3896 6.78366C33.1237 7.02406 32.724 7.27861 32.166 7.45425L32.1659 7.45419C31.3821 7.71133 28.9519 8.20836 25.345 8.20836C23.0948 8.20836 21.8682 8.14912 20.8544 8.02488C19.8453 7.9012 19.0442 7.71214 17.6695 7.46027C17.6558 7.45776 17.6424 7.45383 17.6295 7.44857C17.4618 7.38016 17.2028 7.24455 16.9522 7.05409C16.8647 6.98761 16.7762 6.91271 16.692 6.83001V9.32555C16.692 9.38466 16.6662 9.44082 16.6215 9.47941C15.8648 10.1324 13.5278 11.4226 9.99936 11.6498V13.1584C11.4003 13.475 14.6635 14.095 17.7197 14.3025C21.7023 14.573 28.2143 14.674 32.3575 14.3029C35.5437 14.0175 38.821 13.4387 40.2174 13.1546V11.6619C39.4797 11.6542 38.3707 11.5494 37.1958 11.2577C35.9073 10.9378 34.5214 10.3887 33.4606 9.47994C33.4155 9.44135 33.3896 9.38492 33.3896 9.32555V6.78366Z" fill="white"/>
<path d="M32.1926 8.28569C32.2524 8.27297 32.3148 8.28792 32.3624 8.32634C32.41 8.36477 32.4376 8.42259 32.4376 8.48367V9.86892C33.4904 10.6701 36.4524 12.1942 40.4136 12.1942C40.5255 12.1942 40.6163 12.2848 40.6163 12.3966C40.6163 12.5084 40.5255 12.599 40.4136 12.599C36.2553 12.599 33.1559 10.9626 32.1081 10.1259C32.06 10.0875 32.032 10.0294 32.032 9.96788V8.73343C30.1458 9.13212 29.307 9.27708 28.4925 9.33072C27.658 9.38569 26.8296 9.34429 24.9063 9.39437C21.9822 9.4705 19.13 9.01973 17.8375 8.73745V9.96788C17.8375 10.0267 17.8118 10.0827 17.7672 10.1211C16.6511 11.0818 15.0811 11.6989 13.5959 12.0807C12.1075 12.4633 10.6809 12.6155 9.83185 12.6326C9.71989 12.6349 9.62731 12.5462 9.62504 12.4344C9.62278 12.3227 9.7117 12.2303 9.82366 12.228C10.6419 12.2114 12.0373 12.0633 13.4948 11.6887C14.9231 11.3215 16.3888 10.7422 17.432 9.87399V8.48367C17.432 8.42169 17.4604 8.36314 17.5092 8.32476C17.558 8.28638 17.6217 8.27241 17.6821 8.28687C18.7954 8.55356 21.8078 9.07011 24.8957 8.98971C26.8589 8.9386 27.6359 8.98152 28.4658 8.92686C29.2814 8.87314 30.1297 8.72449 32.1926 8.28569Z" fill="white"/>
<path d="M13.4729 13.9656V11.8671C13.4729 11.755 13.5632 11.6641 13.6746 11.6641C13.786 11.6641 13.8762 11.755 13.8762 11.8671V13.9656C13.8762 14.0777 13.786 14.1687 13.6746 14.1687C13.5632 14.1687 13.4729 14.0777 13.4729 13.9656ZM11.5234 13.6948V12.2733C11.5234 12.1611 11.6137 12.0702 11.7251 12.0702C11.8365 12.0702 11.9268 12.1611 11.9268 12.2733V13.6948C11.9268 13.807 11.8365 13.8979 11.7251 13.8979C11.6137 13.8979 11.5234 13.807 11.5234 13.6948Z" fill="white"/>
<path d="M17.5512 14.3855V8.55382C17.5512 8.44212 17.643 8.35156 17.7562 8.35156C17.8693 8.35156 17.9611 8.44212 17.9611 8.55382V14.3855C17.9611 14.4972 17.8693 14.5878 17.7562 14.5878C17.643 14.5878 17.5512 14.4972 17.5512 14.3855ZM15.5703 14.217V11.1831C15.5703 11.0714 15.6621 10.9809 15.7752 10.9809C15.8884 10.9809 15.9802 11.0714 15.9802 11.1831V14.217C15.9802 14.3287 15.8884 14.4192 15.7752 14.4192C15.6621 14.4192 15.5703 14.3287 15.5703 14.217Z" fill="white"/>
<path d="M19.3906 14.5657V8.87511C19.3906 8.76287 19.4812 8.67188 19.593 8.67188C19.7048 8.67188 19.7954 8.76287 19.7954 8.87511V14.5657C19.7954 14.678 19.7048 14.7689 19.593 14.7689C19.4812 14.7689 19.3906 14.678 19.3906 14.5657Z" fill="white"/>
<path d="M21.2031 14.632V9.05438C21.2031 8.94237 21.2937 8.85156 21.4055 8.85156C21.5173 8.85156 21.6079 8.94237 21.6079 9.05438V14.632C21.6079 14.744 21.5173 14.8348 21.4055 14.8348C21.2937 14.8348 21.2031 14.744 21.2031 14.632Z" fill="white"/>
<path d="M22.9688 14.6461V9.25679C22.9688 9.14517 23.0622 9.05469 23.1775 9.05469C23.2927 9.05469 23.3862 9.14517 23.3862 9.25679V14.6461C23.3862 14.7577 23.2927 14.8482 23.1775 14.8482C23.0622 14.8482 22.9688 14.7577 22.9688 14.6461Z" fill="white"/>
<path d="M24.7891 14.6461V9.25679C24.7891 9.14517 24.8825 9.05469 24.9978 9.05469C25.1131 9.05469 25.2065 9.14517 25.2065 9.25679V14.6461C25.2065 14.7577 25.1131 14.8482 24.9978 14.8482C24.8825 14.8482 24.7891 14.7577 24.7891 14.6461Z" fill="white"/>
<path d="M26.6406 14.6461V9.25679C26.6406 9.14517 26.7284 9.05469 26.8367 9.05469C26.945 9.05469 27.0328 9.14517 27.0328 9.25679V14.6461C27.0328 14.7577 26.945 14.8482 26.8367 14.8482C26.7284 14.8482 26.6406 14.7577 26.6406 14.6461Z" fill="white"/>
<path d="M28.4609 14.6478L28.4609 9.1315C28.4609 9.02004 28.5487 8.92969 28.657 8.92969C28.7653 8.92969 28.8531 9.02004 28.8531 9.1315L28.8531 14.6478C28.8531 14.7593 28.7653 14.8497 28.657 14.8497C28.5487 14.8497 28.4609 14.7593 28.4609 14.6478Z" fill="white"/>
<path d="M30.2813 14.4622L30.2813 8.85878C30.2813 8.74693 30.369 8.65625 30.4773 8.65625C30.5856 8.65625 30.6734 8.74693 30.6734 8.85878L30.6734 14.4622C30.6734 14.5741 30.5856 14.6648 30.4773 14.6648C30.369 14.6648 30.2813 14.5741 30.2813 14.4622Z" fill="white"/>
<path d="M32.0312 14.4622V8.85878C32.0312 8.74693 32.1219 8.65625 32.2336 8.65625C32.3454 8.65625 32.436 8.74693 32.436 8.85878V14.4622C32.436 14.5741 32.3454 14.6648 32.2336 14.6648C32.1219 14.6648 32.0312 14.5741 32.0312 14.4622Z" fill="white"/>
<path d="M34.1172 14.293V11.2571C34.1172 11.1453 34.2135 11.0547 34.3322 11.0547C34.451 11.0547 34.5473 11.1453 34.5473 11.2571V14.293C34.5473 14.4047 34.451 14.4954 34.3322 14.4954C34.2135 14.4954 34.1172 14.4047 34.1172 14.293Z" fill="white"/>
<path d="M33.1328 16.2181L33.1328 14.4606C33.1328 14.3486 33.2206 14.2578 33.3289 14.2578C33.4372 14.2578 33.5249 14.3486 33.5249 14.4606L33.5249 16.2181C33.5249 16.3301 33.4372 16.4209 33.3289 16.4209C33.2206 16.4209 33.1328 16.3301 33.1328 16.2181Z" fill="white"/>
<path d="M16.5469 16.1983L16.5469 14.4305C16.5469 14.3179 16.6403 14.2266 16.7556 14.2266C16.8709 14.2266 16.9643 14.3179 16.9643 14.4305L16.9643 16.1983C16.9643 16.311 16.8709 16.4023 16.7556 16.4023C16.6403 16.4023 16.5469 16.311 16.5469 16.1983Z" fill="white"/>
<path d="M13.8672 17.6035L13.8672 16.1868C13.8672 16.075 13.955 15.9844 14.0633 15.9844C14.1715 15.9844 14.2593 16.075 14.2593 16.1868L14.2593 17.6035C14.2593 17.7153 14.1715 17.8059 14.0633 17.8059C13.955 17.8059 13.8672 17.7153 13.8672 17.6035Z" fill="white"/>
<path d="M35.5391 17.6035L35.5391 16.1868C35.5391 16.075 35.6268 15.9844 35.7351 15.9844C35.8434 15.9844 35.9312 16.075 35.9312 16.1868L35.9312 17.6035C35.9312 17.7153 35.8434 17.8059 35.7351 17.8059C35.6268 17.8059 35.5391 17.7153 35.5391 17.6035Z" fill="white"/>
<path d="M35.731 16.4219L14.265 16.4219C14.1532 16.4219 14.0625 16.3313 14.0625 16.2195C14.0625 16.1077 14.1532 16.0171 14.265 16.0171L35.731 16.0171L35.7414 16.0174C35.8484 16.0228 35.9335 16.1112 35.9335 16.2195C35.9335 16.3278 35.8484 16.4162 35.7414 16.4216L35.731 16.4219Z" fill="white"/>
<path d="M38.1268 17.8125L11.9684 17.8125C11.8564 17.8125 11.7656 17.7191 11.7656 17.6038C11.7656 17.4885 11.8564 17.3951 11.9684 17.3951L38.1268 17.3951C38.2388 17.3951 38.3296 17.4885 38.3296 17.6038C38.3296 17.7191 38.2388 17.8125 38.1268 17.8125Z" fill="white"/>
<path d="M11.7656 19.1252V13.8513C11.7656 13.7393 11.8562 13.6484 11.968 13.6484C12.0798 13.6484 12.1704 13.7393 12.1704 13.8513V19.1252C12.1704 19.2373 12.0798 19.3281 11.968 19.3281C11.8562 19.3281 11.7656 19.2373 11.7656 19.1252Z" fill="white"/>
<path d="M37.9062 19.1252V13.8513C37.9062 13.7393 37.9997 13.6484 38.115 13.6484C38.2302 13.6484 38.3237 13.7393 38.3237 13.8513V19.1252C38.3237 19.2373 38.2302 19.3281 38.115 19.3281C37.9997 19.3281 37.9062 19.2373 37.9062 19.1252Z" fill="white"/>
<path d="M38.1268 19.3281L11.9684 19.3281C11.8564 19.3281 11.7656 19.2403 11.7656 19.1321C11.7656 19.0238 11.8564 18.936 11.9684 18.936L38.1268 18.936C38.2388 18.936 38.3296 19.0238 38.3296 19.1321C38.3296 19.2403 38.2388 19.3281 38.1268 19.3281Z" fill="white"/>
<path d="M32.1719 16.2001L32.1719 14.5708C32.1719 14.4584 32.2597 14.3672 32.3679 14.3672C32.4762 14.3672 32.564 14.4584 32.564 14.5708L32.564 16.2001C32.564 16.3126 32.4762 16.4038 32.3679 16.4038C32.2597 16.4038 32.1719 16.3126 32.1719 16.2001Z" fill="white"/>
<path d="M17.9141 16.2001L17.9141 14.5708C17.9141 14.4584 17.8234 14.3672 17.7117 14.3672C17.5999 14.3672 17.5093 14.4584 17.5093 14.5708L17.5093 16.2001C17.5093 16.3126 17.5999 16.4038 17.7117 16.4038C17.8234 16.4038 17.9141 16.3126 17.9141 16.2001Z" fill="white"/>
<path d="M15.5547 19.1282L15.5547 17.6473C15.5547 17.5357 15.4612 17.4453 15.346 17.4453C15.2307 17.4453 15.1373 17.5357 15.1373 17.6473L15.1373 19.1282C15.1373 19.2397 15.2307 19.3301 15.346 19.3301C15.4612 19.3301 15.5547 19.2397 15.5547 19.1282Z" fill="white"/>
<path d="M22.0234 19.1282L22.0234 17.6473C22.0234 17.5357 21.9357 17.4453 21.8274 17.4453C21.7191 17.4453 21.6313 17.5357 21.6313 17.6473L21.6313 19.1282C21.6313 19.2397 21.7191 19.3301 21.8274 19.3301C21.9357 19.3301 22.0234 19.2397 22.0234 19.1282Z" fill="white"/>
<path d="M28.4609 19.1282L28.4609 17.6473C28.4609 17.5357 28.3675 17.4453 28.2522 17.4453C28.1369 17.4453 28.0435 17.5357 28.0435 17.6473L28.0435 19.1282C28.0435 19.2397 28.1369 19.3301 28.2522 19.3301C28.3675 19.3301 28.4609 19.2397 28.4609 19.1282Z" fill="white"/>
<path d="M34.8906 19.1282L34.8906 17.6473C34.8906 17.5357 34.8 17.4453 34.6882 17.4453C34.5765 17.4453 34.4858 17.5357 34.4858 17.6473L34.4858 19.1282C34.4858 19.2397 34.5765 19.3301 34.6882 19.3301C34.8 19.3301 34.8906 19.2397 34.8906 19.1282Z" fill="white"/>
<path d="M21.3516 16.2041L21.3516 14.7677C21.3516 14.6544 21.4422 14.5625 21.554 14.5625C21.6657 14.5625 21.7563 14.6544 21.7563 14.7677L21.7563 16.2041C21.7563 16.3175 21.6657 16.4093 21.554 16.4093C21.4422 16.4093 21.3516 16.3175 21.3516 16.2041Z" fill="white"/>
<path d="M22.25 16.2041L22.25 14.7677C22.25 14.6544 22.3378 14.5625 22.4461 14.5625C22.5544 14.5625 22.6421 14.6544 22.6421 14.7677L22.6421 16.2041C22.6421 16.3175 22.5544 16.4093 22.4461 16.4093C22.3378 16.4093 22.25 16.3175 22.25 16.2041Z" fill="white"/>
<path d="M27.5859 16.2041L27.5859 14.7677C27.5859 14.6544 27.6737 14.5625 27.782 14.5625C27.8903 14.5625 27.9781 14.6544 27.9781 14.7677L27.9781 16.2041C27.9781 16.3175 27.8903 16.4093 27.782 16.4093C27.6737 16.4093 27.5859 16.3175 27.5859 16.2041Z" fill="white"/>
<path d="M28.4609 16.2041L28.4609 14.7677C28.4609 14.6544 28.5487 14.5625 28.657 14.5625C28.7653 14.5625 28.8531 14.6544 28.8531 14.7677L28.8531 16.2041C28.8531 16.3175 28.7653 16.4093 28.657 16.4093C28.5487 16.4093 28.4609 16.3175 28.4609 16.2041Z" fill="white"/>
<path d="M36.1484 13.9656L36.1484 11.8671C36.1484 11.755 36.2447 11.6641 36.3635 11.6641C36.4822 11.6641 36.5785 11.755 36.5785 11.8671L36.5785 13.9656C36.5785 14.0777 36.4822 14.1687 36.3635 14.1687C36.2447 14.1687 36.1484 14.0777 36.1484 13.9656Z" fill="white"/>
<path d="M38.1406 13.6738L38.1406 12.2571C38.1406 12.1453 38.2284 12.0547 38.3367 12.0547C38.445 12.0547 38.5328 12.1453 38.5328 12.2571L38.5328 13.6738C38.5328 13.7856 38.445 13.8762 38.3367 13.8762C38.2284 13.8762 38.1406 13.7856 38.1406 13.6738Z" fill="white"/>
<path d="M6.625 19.1231V10.7495C6.625 10.6376 6.71278 10.5469 6.82107 10.5469C6.92935 10.5469 7.01714 10.6376 7.01714 10.7495V19.1231C7.01714 19.2349 6.92935 19.3256 6.82107 19.3256C6.71278 19.3256 6.625 19.2349 6.625 19.1231Z" fill="white"/>
<path d="M8.51024 19.1234C8.51024 19.2353 8.41951 19.3261 8.30759 19.3261C8.19567 19.3261 8.10494 19.2353 8.10494 19.1234V10.7441C8.10494 10.035 7.53034 9.46014 6.82152 9.46014C6.11271 9.46014 5.5381 10.035 5.5381 10.7441V19.1234C5.5381 19.2353 5.44738 19.3261 5.33546 19.3261C5.22354 19.3261 5.13281 19.2353 5.13281 19.1234V10.7441C5.13281 9.81105 5.88887 9.05469 6.82152 9.05469C7.75417 9.05469 8.51024 9.81105 8.51024 10.7441V19.1234Z" fill="white"/>
<path d="M4.45412 19.1229C4.45412 19.235 4.36296 19.3258 4.2505 19.3258C4.13804 19.3258 4.04688 19.235 4.04688 19.1229V10.5115C4.04688 8.91733 5.34379 7.625 6.94362 7.625C8.54344 7.625 9.84036 8.91733 9.84036 10.5115C9.84036 10.5152 9.84022 10.5188 9.84003 10.5224C9.84022 10.526 9.84036 10.5296 9.84036 10.5333V19.1229C9.84036 19.235 9.74919 19.3258 9.63673 19.3258C9.52427 19.3258 9.43311 19.235 9.43311 19.1229V10.5333C9.43311 10.5298 9.4332 10.5263 9.43337 10.5229V10.5219C9.4332 10.5185 9.43311 10.515 9.43311 10.5115C9.43311 9.16285 8.35307 8.06555 7.00785 8.0316C6.9865 8.03106 6.96509 8.03081 6.94362 8.03081C5.56871 8.03081 4.45412 9.14145 4.45412 10.5115V19.1229Z" fill="white"/>
<path d="M13.3984 5.71832V4.88071C13.3984 4.76969 13.4891 4.67969 13.6008 4.67969C13.7126 4.67969 13.8032 4.76969 13.8032 4.88071V5.71832C13.8032 5.82934 13.7126 5.91934 13.6008 5.91934C13.4891 5.91934 13.3984 5.82934 13.3984 5.71832Z" fill="white"/>
<path d="M13.5871 3.1875C14.5198 3.1875 15.2759 3.94191 15.2759 4.87253V7.50118L15.2756 7.51158C15.2702 7.61842 15.1816 7.70338 15.0732 7.70338C14.9648 7.70337 14.8763 7.61841 14.8708 7.51158L14.8706 7.50118V4.87253C14.8706 4.16526 14.296 3.59191 13.5871 3.59191C12.8783 3.59192 12.3037 4.16527 12.3037 4.87253V5.58024C12.3037 5.69192 12.213 5.78245 12.1011 5.78245C11.9892 5.78243 11.8984 5.69191 11.8984 5.58024V4.87253C11.8984 3.94192 12.6545 3.18752 13.5871 3.1875Z" fill="white"/>
<path d="M13.6903 1.75781C15.2796 1.75782 16.568 3.04758 16.568 4.63858C16.568 4.64223 16.5679 4.64585 16.5677 4.64946C16.5679 4.65306 16.568 4.65668 16.568 4.66033V9.38537C16.568 9.4972 16.4775 9.58787 16.3657 9.58787C16.254 9.58787 16.1635 9.4972 16.1635 9.38537V4.66033C16.1635 4.65684 16.1635 4.65337 16.1637 4.64992V4.64899C16.1635 4.64554 16.1635 4.64207 16.1635 4.63858C16.1635 3.27126 15.0562 2.16282 13.6903 2.16282C12.3244 2.16282 11.2171 3.27125 11.2171 4.63858V5.90909C11.2171 6.02093 11.1265 6.11159 11.0148 6.11159C10.9031 6.11159 10.8125 6.02093 10.8125 5.90909V4.63858C10.8125 3.04758 12.1009 1.75781 13.6903 1.75781Z" fill="white"/>
<path d="M8 8.04509V3.12411C8 3.01242 8.08778 2.92188 8.19607 2.92188C8.30435 2.92188 8.39214 3.01242 8.39214 3.12411V8.04509C8.39214 8.15678 8.30435 8.24732 8.19607 8.24732C8.08778 8.24732 8 8.15678 8 8.04509Z" fill="white"/>
<path d="M9.88524 9.44969C9.88524 9.56136 9.79451 9.65188 9.68259 9.65188C9.57067 9.65188 9.47994 9.56136 9.47994 9.44969V3.11456C9.47994 2.40736 8.90534 1.83406 8.19652 1.83406C7.48771 1.83406 6.9131 2.40736 6.9131 3.11456V7.79852C6.9131 7.91018 6.82238 8.0007 6.71046 8.0007C6.59854 8.0007 6.50781 7.91018 6.50781 7.79852V3.11456C6.50781 2.18403 7.26387 1.42969 8.19652 1.42969C9.12917 1.42969 9.88524 2.18403 9.88524 3.11456V9.44969Z" fill="white"/>
<path d="M5.81172 8.18373C5.81172 8.29579 5.72095 8.38663 5.60899 8.38663C5.49702 8.38663 5.40625 8.29579 5.40625 8.18373V2.88647C5.40625 2.78449 5.41151 2.68375 5.42182 2.5845C5.42477 2.55615 5.42816 2.52792 5.43192 2.49982C5.43568 2.47173 5.43983 2.44377 5.44439 2.41594C5.44896 2.38809 5.45389 2.36036 5.45924 2.33278C5.46995 2.27765 5.48227 2.22308 5.49607 2.16911C5.50297 2.14213 5.5102 2.11528 5.51785 2.0886C5.52167 2.07526 5.52558 2.06196 5.52959 2.04871C5.55366 1.96917 5.58111 1.8911 5.61169 1.81463C5.61679 1.80189 5.62193 1.78917 5.6272 1.77652C5.64829 1.7259 5.67081 1.67603 5.69465 1.62692C5.73635 1.54098 5.7822 1.45743 5.83191 1.37653C5.84612 1.35341 5.86064 1.33051 5.87547 1.30784C5.88289 1.29649 5.89034 1.28518 5.89791 1.27395C5.91305 1.25149 5.92849 1.22925 5.94424 1.20724C5.95211 1.19625 5.96004 1.1853 5.96806 1.17442C6.00818 1.11999 6.05017 1.06704 6.09391 1.01564C6.10266 1.00536 6.11149 0.995143 6.12038 0.984988C6.24483 0.842827 6.383 0.71304 6.53278 0.597677C6.79126 0.398587 7.08452 0.242354 7.40179 0.139628C7.42045 0.133585 7.43919 0.127728 7.45802 0.122059C7.49567 0.110718 7.53364 0.100113 7.57192 0.090289C7.62935 0.0755501 7.68747 0.06255 7.74622 0.0513201C7.78539 0.043833 7.82483 0.037125 7.86454 0.0312412C8.00351 0.0106489 8.1457 0 8.29034 0C9.88317 3.68105e-06 11.1744 1.29232 11.1744 2.88647C11.1744 2.89013 11.1743 2.89376 11.1741 2.89737C11.1743 2.90098 11.1744 2.90461 11.1744 2.90827V6.01944C11.1744 6.1315 11.0837 6.22234 10.9717 6.22234C10.8597 6.22234 10.769 6.1315 10.769 6.01944V2.90827C10.769 2.90477 10.7691 2.90129 10.7692 2.89783V2.89691C10.7691 2.89345 10.769 2.88997 10.769 2.88647C10.769 1.53784 9.69364 0.440547 8.35429 0.406597C8.33304 0.406059 8.31172 0.405805 8.29034 0.405805C8.16594 0.405805 8.04371 0.41494 7.92427 0.432621C7.89016 0.437671 7.85628 0.443434 7.82264 0.44986C7.80579 0.453077 7.78901 0.456474 7.77228 0.460031C7.73888 0.467137 7.70572 0.474908 7.67283 0.483346C7.6564 0.487562 7.64003 0.491948 7.62373 0.49649C7.5748 0.510129 7.52647 0.525215 7.47881 0.541734C7.46291 0.547243 7.4471 0.552952 7.43136 0.558774C7.19527 0.646066 6.97613 0.768304 6.78012 0.91927C6.37501 1.2313 6.06921 1.66549 5.91764 2.16667C5.91075 2.18946 5.90416 2.21237 5.89791 2.23543C5.89166 2.25848 5.88575 2.28167 5.88016 2.30498C5.87176 2.33996 5.86415 2.37524 5.85726 2.41079C5.84807 2.45816 5.84022 2.50602 5.83376 2.55431C5.81924 2.66297 5.81172 2.77384 5.81172 2.88647V8.18373Z" fill="white"/>
<path d="M12.1641 11.0667V8.52127C12.1641 8.41028 12.2547 8.32031 12.3665 8.32031C12.4782 8.32031 12.5688 8.41028 12.5688 8.52127V11.0667C12.5688 11.1777 12.4782 11.2677 12.3665 11.2677C12.2547 11.2677 12.1641 11.1777 12.1641 11.0667Z" fill="white"/>
<path d="M10.6875 19.1279V13.6633C10.6875 13.5516 10.7753 13.4609 10.8836 13.4609C10.9919 13.4609 11.0796 13.5516 11.0796 13.6633V19.1279C11.0796 19.2397 10.9919 19.3303 10.8836 19.3303C10.7753 19.3303 10.6875 19.2397 10.6875 19.1279Z" fill="white"/>
<path d="M14.0649 10.4645C14.0649 10.5761 13.9742 10.6665 13.8623 10.6665C13.7504 10.6665 13.6596 10.5761 13.6596 10.4645V8.51163C13.6596 7.805 13.085 7.23217 12.3762 7.23217C11.6674 7.23217 11.0928 7.805 11.0928 8.51163V11.2052C11.0928 11.3168 11.0021 11.4073 10.8901 11.4073C10.7782 11.4073 10.6875 11.3168 10.6875 11.2052V8.51163C10.6875 7.58185 11.4436 6.82812 12.3762 6.82812C13.3089 6.82812 14.0649 7.58185 14.0649 8.51163V10.4645Z" fill="white"/>
<path d="M10.0001 11.5203C10.0001 11.6323 9.90914 11.7232 9.79693 11.7232C9.68472 11.7232 9.59375 11.6323 9.59375 11.5203V8.28535C9.59375 6.69096 10.8878 5.39844 12.4842 5.39844C14.0805 5.39844 15.3746 6.69096 15.3746 8.28535C15.3746 8.28901 15.3744 8.29264 15.3743 8.29625C15.3744 8.29986 15.3746 8.30349 15.3746 8.30715V9.99826C15.3746 10.1103 15.2836 10.2012 15.1714 10.2012C15.0592 10.2012 14.9682 10.1103 14.9682 9.99826V8.30715C14.9682 8.30365 14.9683 8.30017 14.9685 8.29671V8.29579C14.9683 8.29233 14.9682 8.28885 14.9682 8.28535C14.9682 6.93651 13.8905 5.83905 12.5483 5.8051C12.527 5.80456 12.5056 5.8043 12.4842 5.8043C11.1123 5.8043 10.0001 6.91511 10.0001 8.28535V11.5203Z" fill="white"/>
<path d="M2.57031 19.1233L2.57031 6.76508C2.57031 6.6532 2.66376 6.5625 2.77903 6.5625C2.8943 6.5625 2.98775 6.6532 2.98775 6.76508L2.98775 19.1233C2.98775 19.2352 2.8943 19.3259 2.77903 19.3259C2.66376 19.3259 2.57031 19.2352 2.57031 19.1233Z" fill="white"/>
<path d="M1.10156 6.61915C1.10156 6.60457 1.10172 6.59003 1.10209 6.57553C1.11495 6.06838 1.35121 5.61676 1.71608 5.31549C1.73693 5.29828 1.7582 5.28155 1.77987 5.26534C2.06161 5.05453 2.41135 4.92969 2.79024 4.92969C3.70492 4.92969 4.44966 5.65728 4.478 6.5655C4.47862 6.57199 4.47899 6.57857 4.47899 6.58523V10.4045C4.47899 10.5164 4.38826 10.6072 4.27634 10.6072C4.16443 10.6072 4.0737 10.5164 4.0737 10.4045V6.62173C4.07369 6.62088 4.07364 6.62 4.07364 6.61915C4.07362 5.91004 3.49903 5.33516 2.79024 5.33516C2.71272 5.33516 2.6368 5.34204 2.56306 5.35522C2.54199 5.35899 2.5211 5.36324 2.5004 5.36802C2.02435 5.47797 1.6496 5.85289 1.5397 6.32917C1.53492 6.34988 1.53066 6.37079 1.5269 6.39187C1.51373 6.46564 1.50685 6.54159 1.50685 6.61915L1.50691 19.1221C1.5069 19.2341 1.41617 19.3248 1.30427 19.3248C1.19236 19.3248 1.10164 19.2341 1.10163 19.1221L1.10156 6.61915Z" fill="white"/>
<path d="M5.35095 6.46255C5.35094 5.60689 4.91842 4.85246 4.26055 4.40698C4.22765 4.3847 4.19419 4.3632 4.16019 4.3425C3.80325 4.12511 3.38704 3.99574 2.94158 3.98443C2.92037 3.9839 2.8991 3.98364 2.87777 3.98364C2.85643 3.98364 2.83516 3.9839 2.81396 3.98443C2.77152 3.98551 2.72934 3.98771 2.68746 3.9909C2.64561 3.9941 2.60405 3.99832 2.56281 4.00358C2.23272 4.04563 1.92292 4.15287 1.64671 4.31207C1.61219 4.33196 1.57821 4.35269 1.54477 4.37418C0.94265 4.7611 0.518874 5.40246 0.424468 6.14686C0.419225 6.1882 0.41501 6.22986 0.411824 6.27181C0.407044 6.33476 0.404582 6.39837 0.404581 6.46255V19.124C0.404568 19.236 0.314004 19.3268 0.202291 19.3268C0.0905867 19.3268 1.33434e-05 19.236 0 19.124V6.46255C3.98059e-07 6.41277 0.00126645 6.36328 0.00375344 6.31411C0.00623992 6.26496 0.00997024 6.21613 0.014882 6.16766C0.0197944 6.11917 0.0259103 6.07105 0.0331883 6.02331C0.222423 4.78199 1.20109 3.80106 2.43954 3.61139C2.48717 3.6041 2.53518 3.59797 2.58355 3.59304C2.63191 3.58812 2.68063 3.58438 2.72967 3.58189C2.77872 3.57939 2.8281 3.57813 2.87777 3.57812C2.9771 3.57813 3.07525 3.58319 3.17198 3.59304C3.22035 3.59796 3.26837 3.6041 3.316 3.61139C4.55445 3.80106 5.53311 4.78199 5.72235 6.02331C5.72962 6.07105 5.73574 6.11917 5.74065 6.16766C5.74556 6.21613 5.74929 6.26496 5.75178 6.31411C5.75427 6.36328 5.75553 6.41277 5.75553 6.46255V8.17505C5.75552 8.28701 5.66495 8.3778 5.55324 8.37781C5.44154 8.37779 5.35097 8.28701 5.35095 8.17505V6.46255Z" fill="white"/>
<path d="M40.4089 1.72228C40.4089 2.67347 39.6406 3.44456 38.6928 3.44456C37.7449 3.44456 36.9766 2.67347 36.9766 1.72228C36.9766 0.771091 37.7449 0 38.6928 0C39.6406 0 40.4089 0.771091 40.4089 1.72228Z" fill="white"/>
<path d="M35.2805 1.72228C35.2805 2.67347 34.5094 3.44456 33.5582 3.44456C32.607 3.44456 31.8359 2.67347 31.8359 1.72228C31.8359 0.771091 32.607 0 33.5582 0C34.5094 0 35.2805 0.771091 35.2805 1.72228Z" fill="white"/>
</svg>
