<svg width="67" height="20" viewBox="0 0 67 20" fill="none" xmlns="http://www.w3.org/2000/svg">
<g clip-path="url(#clip0_363_2672)">
<path d="M12.0479 1.68525C10.7129 0.94225 8.83687 0.53125 6.47487 0.53125H6.04688V4.78825H7.06488C9.86488 4.78825 11.5859 6.66125 11.5859 10.0452C11.5859 13.5072 9.83888 15.2522 7.03988 15.2522H6.04688V19.5083H6.80788C12.7419 19.5083 16.4399 16.2773 16.4399 10.0203C16.4399 6.14625 14.7449 3.22425 12.0479 1.68525Z" fill="white"/>
<path d="M4.858 0.53125H0V19.5093H4.858V0.53125Z" fill="white"/>
<path d="M26.4832 8.25506L26.2742 8.16406L25.1572 11.9991C26.1372 12.4871 26.8982 13.0901 26.8982 13.9991C26.8992 14.2391 26.8522 14.4761 26.7612 14.6971C26.6702 14.9191 26.5362 15.1201 26.3662 15.2891C26.1962 15.4591 25.9952 15.5931 25.7732 15.6841C25.5512 15.7751 25.3142 15.8211 25.0742 15.8201C23.8672 15.8201 23.0962 14.7941 23.0702 13.2301H18.2422V13.6401C18.2422 17.7181 20.9642 19.8721 25.0992 19.8721C29.2092 19.8721 31.7262 17.7181 31.7262 14.0501C31.7232 11.5631 30.6702 10.0501 26.4832 8.25506Z" fill="white"/>
<path d="M23.0669 11.1231C23.3909 11.2541 23.7249 11.3821 24.0629 11.5171L25.1879 7.66809C23.9759 7.07709 23.3749 6.57509 23.3749 5.71209C23.3749 4.86609 24.1459 4.22509 25.0449 4.22509C25.9949 4.22509 26.5569 4.71209 26.7659 6.07109H31.5649C31.5399 3.53209 30.5629 2.01909 28.5349 0.968091C27.4949 0.436091 26.3419 0.163091 25.1729 0.172091C21.6829 0.172091 18.5469 2.53209 18.5469 5.76309C18.5469 8.22509 19.9599 9.86609 23.0669 11.1231Z" fill="white"/>
<path d="M43.5864 7.35225C43.5864 8.47625 43.1364 9.24725 42.3374 9.67325L44.7404 12.6892C46.9314 11.7852 48.2324 9.62325 48.2324 7.07125C48.2324 4.37925 46.7934 2.14725 44.7394 1.22425C43.7374 0.78725 42.2224 0.53125 40.2444 0.53125H39.7734V4.78825H40.5274C42.3534 4.78825 43.5864 5.71125 43.5864 7.35225Z" fill="white"/>
<path d="M46.1194 16.3122L45.1264 15.0653L43.5134 13.0463H43.5174L41.1184 10.0363C40.9074 10.0603 40.6954 10.0723 40.4824 10.0723H38.6854V10.0592H38.5914V0.53125H33.7344V19.5093H38.5874V13.3792H38.7364L43.1284 19.5093H48.6764L46.1214 16.3112L46.1194 16.3122Z" fill="white"/>
<path d="M61.9865 0.53125L56.4375 19.5083H60.5905L66.9605 0.53125H61.9865Z" fill="white"/>
<path d="M54.2164 0.53125H49.2344L55.3784 18.9103L57.4574 11.7992L54.2164 0.53125Z" fill="white"/>
</g>
<defs>
<clipPath id="clip0_363_2672">
<rect width="67" height="20" fill="white"/>
</clipPath>
</defs>
</svg>
