<svg width="292" height="55" viewBox="0 0 292 55" fill="none" xmlns="http://www.w3.org/2000/svg">
<mask id="mask0_581_71" style="mask-type:luminance" maskUnits="userSpaceOnUse" x="0" y="0" width="292" height="55">
<path d="M291.042 0H-7.62939e-06V55H291.042V0Z" fill="white"/>
</mask>
<g mask="url(#mask0_581_71)">
<path d="M99.2161 40.8586L97.1201 34.3075C96.3694 32.464 95.7534 31.4209 94.5321 30.9497V30.5833C98.9464 28.9154 101.472 25.1724 101.472 20.2965C101.472 13.3154 96.4131 8.80212 88.5837 8.80212H73.4497V47.9669H79.6826V33.3615H88.6345C89.9467 33.3615 90.2311 33.5858 90.8107 35.0704L93.9783 44.0296C95.3413 47.4135 96.209 47.9669 100.167 47.9669H102.289V41.9392H100.78C99.8103 41.9392 99.6025 41.7971 99.2161 40.855V40.8586ZM79.6863 14.7812H87.7708C92.1557 14.7812 94.988 17.2977 94.988 21.1902C94.988 24.866 92.3525 27.3376 88.4343 27.3376H79.6863V14.7812Z" fill="#AE0822"/>
<path d="M116.548 19.8521C108.81 19.8521 103.608 25.6478 103.608 34.278C103.608 42.9081 108.912 48.704 116.803 48.704C122.945 48.704 127.917 45.047 129.178 39.6102L129.233 39.3783H123.674L123.627 39.4943C122.613 42.0444 120.138 43.5663 117.007 43.5663C112.699 43.5663 109.812 40.7769 109.251 36.0879H129.59V34.278C129.59 25.6478 124.348 19.8521 116.548 19.8521ZM116.548 25.0421C120.616 25.0421 123.284 27.667 123.893 32.2588H109.255C109.863 27.6709 112.513 25.0421 116.548 25.0421Z" fill="#AE0822"/>
<path d="M151.628 24.3537H151.304C149.649 21.4895 146.7 19.8517 143.187 19.8517C140.242 19.8517 137.624 20.9473 135.612 23.0227C133.079 25.64 131.697 29.6374 131.727 34.2778C131.727 42.7732 136.44 48.7038 143.187 48.7038C146.824 48.7038 149.737 47.0511 151.406 44.0446H151.628V47.9707H157.504V8.80603H151.628V24.3537ZM144.615 43.095C140.482 43.095 137.704 39.55 137.704 34.2778C137.704 29.0054 140.482 25.5129 144.615 25.5129C148.749 25.5129 151.577 29.0354 151.577 34.2778C151.577 39.5202 148.778 43.095 144.615 43.095Z" fill="#AE0822"/>
<path d="M180.142 25.4009L173.862 24.511C170.312 24.0623 168.358 22.2487 168.358 19.4106C168.358 15.9518 171.34 13.6297 175.779 13.6297C180.219 13.6297 183.401 16.1163 184.072 20.2781L184.097 20.4352H190.64L190.607 20.222C189.506 12.6987 183.787 8.02087 175.681 8.02087C167.574 8.02087 161.976 12.7884 161.976 19.8817C161.976 25.771 165.865 29.6712 172.645 30.591L178.972 31.4809C182.818 31.9931 184.935 33.9339 184.935 36.9477C184.935 40.5971 181.673 43.1473 177.004 43.1473C171.886 43.1473 168.223 40.0774 167.436 35.1379L167.41 34.9807H160.97L161.002 35.1978C162.242 43.4015 168.562 48.7039 177.102 48.7039C185.643 48.7039 191.369 43.6746 191.369 36.4765C191.369 30.3516 187.381 26.4179 180.139 25.4009H180.142Z" fill="#AE0822"/>
<path d="M202.869 13.8317H197.045V20.6371H191.993V25.9318H196.994V42.2872C196.994 46.1649 198.754 47.971 202.534 47.971H208.84V42.6238H203.912C203.201 42.6238 202.869 42.2835 202.869 41.5543V25.9318H208.84V20.6371H202.869V13.8317Z" fill="#AE0822"/>
<path d="M223.121 19.8521C215.197 19.8521 209.875 25.6478 209.875 34.278C209.875 42.9081 215.197 48.704 223.121 48.704C231.046 48.704 236.317 42.9081 236.317 34.278C236.317 25.6478 231.011 19.8521 223.121 19.8521ZM223.121 43.0951C218.773 43.0951 215.853 39.5504 215.853 34.278C215.853 29.0057 218.773 25.5132 223.121 25.5132C227.47 25.5132 230.338 29.0355 230.338 34.278C230.338 39.5204 227.437 43.0951 223.121 43.0951Z" fill="#AE0822"/>
<path d="M253.227 19.8521C249.801 19.8521 246.771 21.7105 245.105 24.8253H244.837V20.6373H239.266V47.9711H245.142V34.0162C245.142 29.088 247.592 25.775 251.238 25.775C254.567 25.775 256.719 28.3327 256.719 32.2888V47.9711H262.595V29.933C262.595 23.9017 258.83 19.8521 253.227 19.8521Z" fill="#AE0822"/>
<path d="M291.039 34.278C291.039 25.6478 285.798 19.8521 277.997 19.8521C270.199 19.8521 265.059 25.6478 265.059 34.278C265.059 42.9081 270.362 48.704 278.254 48.704C284.396 48.704 289.366 45.047 290.629 39.6102L290.682 39.3783H285.125L285.076 39.4943C284.064 42.0444 281.589 43.5663 278.458 43.5663C274.15 43.5663 271.262 40.7769 270.701 36.0879H291.039V34.278ZM278.002 25.0421C282.07 25.0421 284.737 27.667 285.347 32.2588H270.708C271.317 27.6709 273.966 25.0421 278.002 25.0421Z" fill="#AE0822"/>
<path d="M48.0556 1.23562L48.001 1.14587H17.0258L1.45802 27.5L16.9711 53.7644L17.0258 53.8542H48.001L63.5688 27.5L48.0556 1.23562ZM21.6659 12.7861L14.1936 25.4359H7.10047L18.1011 6.81456L21.6622 12.7861H21.6659ZM24.9464 43.9228H40.0586L43.5941 49.9728H21.4107L24.9464 43.9228ZM40.0987 10.8305H24.9317L21.469 5.0272H43.5577L40.095 10.8305H40.0987ZM24.9501 40.0414L17.4705 27.3767L24.9501 14.7118H40.073L47.5525 27.3767L40.073 40.0414H24.9501ZM50.8331 25.4359L43.3645 12.7899L46.9258 6.8183L57.9225 25.4359H50.8331ZM21.6732 41.9822L18.0755 48.1406L6.95831 29.321H14.1936L21.6732 41.9822ZM58.072 29.3173L46.9439 48.1555L43.3462 41.9971L50.8367 29.3173H58.072Z" fill="#AE0822"/>
</g>
</svg>
