<svg width="121" height="15" viewBox="0 0 121 15" fill="none" xmlns="http://www.w3.org/2000/svg">
<g clip-path="url(#clip0_523_4873)">
<path d="M0 0.21875C0 0.21875 0.42478 0.713529 0.42478 1.52155V13.5208C0.42478 14.2221 0 14.8236 0 14.8236H3.31768C3.31768 14.8236 2.8929 14.3146 2.8929 13.5208V8.37727H4.99483C5.97255 8.37727 6.60972 8.70475 6.60972 8.70475V6.25933C6.60972 6.25933 6.04945 6.61529 4.99483 6.61529H2.8929V2.17295H5.78579C6.77817 2.17295 7.27619 2.81723 7.27619 2.81723V0.21875H0Z" fill="#231815"/>
<path d="M63.5045 12.8694H60.6116V1.80276C60.6116 1.01253 61.0364 0.21875 61.0364 0.21875H57.7188C57.7188 0.21875 58.1435 0.795399 58.1435 1.80276V13.5173C58.1435 14.2434 57.7188 14.8201 57.7188 14.8201H64.9949V12.154C64.9949 12.154 64.4164 12.8659 63.5045 12.8659" fill="#231815"/>
<path d="M88.1061 12.8694H85.2132V1.80276C85.2132 1.01253 85.638 0.21875 85.638 0.21875H82.3203C82.3203 0.21875 82.7451 0.795399 82.7451 1.80276V13.5173C82.7451 14.2434 82.3203 14.8201 82.3203 14.8201H89.5965V12.154C89.5965 12.154 89.0179 12.8659 88.1061 12.8659" fill="#231815"/>
<path d="M22.7778 6.72919H21.6976V1.88819H22.7595C23.8984 1.88819 25.3155 2.22278 25.3155 4.3514C25.3155 6.61173 23.7739 6.72919 22.7778 6.72919ZM27.1025 10.3493C26.5935 8.2776 25.0409 7.85045 25.0409 7.85045C25.0409 7.85045 27.6372 7.60484 27.6225 4.22682C27.6042 0.339775 24.1511 0.21875 22.5984 0.21875H18.8047C18.8047 0.21875 19.2295 0.759804 19.2295 1.52155V13.5208C19.2295 14.4285 18.8047 14.8236 18.8047 14.8236H22.1224C22.1224 14.8236 21.6976 14.3253 21.6976 13.5208V8.5766C22.8511 8.75102 24.4037 9.0785 24.8981 11.2712C25.4327 13.6419 25.3558 14.8236 25.3558 14.8236H28.4098C27.5823 14.1153 27.52 12.0401 27.1025 10.3528" fill="#231815"/>
<path d="M69.8074 9.26143L71.111 3.73343L72.5209 9.26143H69.8074ZM73.1141 14.825H76.5233C76.5233 14.825 75.8239 14.0846 75.5199 12.6644C75.216 11.2441 72.7149 1.71515 72.6563 1.44819C72.5172 0.803905 72.7479 0.234375 72.7479 0.234375H69.6426C69.6426 0.234375 69.866 0.860858 69.7341 1.44819C69.6756 1.71515 67.1781 11.2441 66.8705 12.6644C66.5666 14.0846 65.8672 14.825 65.8672 14.825H69.2764C68.6942 14.3872 68.9725 13.2553 68.9725 13.2553L69.4082 11.1551H72.942L73.4144 13.2553C73.4144 13.2553 73.7146 14.4584 73.1104 14.825" fill="#231815"/>
<path d="M94.4636 9.26143L95.7673 3.73343L97.1771 9.26143H94.4636ZM97.7703 14.825H101.18C101.18 14.825 100.48 14.0846 100.176 12.6644C99.8723 11.2441 97.3712 1.71515 97.3126 1.44819C97.1734 0.803905 97.4041 0.234375 97.4041 0.234375H94.2989C94.2989 0.234375 94.5222 0.860858 94.3904 1.44819C94.3318 1.71515 91.8344 11.2441 91.5268 12.6644C91.2229 14.0846 90.5234 14.825 90.5234 14.825H93.9327C93.3504 14.3872 93.6287 13.2553 93.6287 13.2553L94.0682 11.1551H97.6019L98.0743 13.2553C98.0743 13.2553 98.3745 14.4584 97.7703 14.825Z" fill="#231815"/>
<path d="M106.251 13.0118H104.669V8.17793H106.075C107.335 8.17793 109.133 8.28116 109.133 10.5023C109.133 12.8766 107.416 13.0118 106.251 13.0118ZM104.669 2.07328C104.669 2.07328 105.277 2.05193 105.947 2.05193C106.899 2.05193 108.525 2.49687 108.525 4.31581C108.525 5.79659 107.145 6.49426 106.13 6.49426H104.669V2.07328ZM108.36 7.0104C108.36 7.0104 111.037 6.6758 111.037 3.96341C111.037 0.688613 107.668 0.21875 105.68 0.21875H101.703C101.703 0.21875 102.15 0.653017 102.15 2.58586V13.8412C102.15 14.514 101.967 14.5709 101.703 14.8236H107.141C108.884 14.8236 111.729 13.9693 111.729 10.6625C111.729 6.8609 108.36 7.00684 108.36 7.00684" fill="#231815"/>
<path d="M120.152 0.968201V4.00451C120.152 4.00451 118.892 1.93284 117.087 1.93284C115.498 1.93284 115.04 2.74798 114.996 3.65211C114.963 4.31419 115.161 5.02966 116.97 6.215C119.383 7.79544 120.822 8.6355 120.98 10.4829C121.199 13.06 119.401 15 116.135 15C114.308 15 112.766 14.1137 112.766 14.1137V10.9172C112.766 10.9172 114.169 12.6934 116.032 12.7361C117.552 12.7717 118.208 12.1844 118.263 11.2055C118.318 10.2302 117.574 9.45776 115.044 7.86664C112.902 6.52112 112.422 5.43901 112.422 4.08282C112.422 2.24608 113.597 0 117.069 0C118.449 0 120.152 0.968201 120.152 0.968201Z" fill="#231815"/>
<path d="M44.6585 1.59986C44.6585 0.969818 44.9844 0.21875 45.1858 0.21875H41.9377L37.1223 11.8372L32.3106 0.21875H29.0625C29.2639 0.21875 29.5898 0.969818 29.5898 1.59986V13.0901C29.5898 14.1544 29.0625 14.8201 29.0625 14.8201H32.2703C32.1495 14.7026 31.8236 13.7914 31.8236 13.083V4.87466C31.8236 4.87466 35.5184 12.453 35.6393 13.1649C35.7601 13.8732 35.5514 14.8201 35.5514 14.8201H38.7189C38.7189 14.8201 38.4919 13.8732 38.6164 13.1649C38.7372 12.453 42.4321 4.87466 42.4321 4.87466V13.0866C42.4321 13.8804 42.1062 14.7026 41.9853 14.8236H45.1931C45.1931 14.8236 44.6658 14.1438 44.6658 13.0795V1.59986H44.6585Z" fill="#231815"/>
<path d="M13.1079 13.0977C12.4487 13.0977 10.5189 13.087 10.5189 7.55191C10.5189 2.01679 12.4267 1.85661 13.0786 1.85661C13.7304 1.85661 15.6309 1.88865 15.6309 7.55191C15.6309 13.2152 13.7743 13.0977 13.1042 13.0977M13.0786 0.0234375C11.5442 0.0234375 7.99219 0.215654 7.99219 7.55191C7.99219 14.8882 11.7017 14.9914 13.1079 14.9914C14.6092 14.9914 18.0697 14.7173 18.0697 7.55191C18.0697 0.386513 14.7118 0.0234375 13.0786 0.0234375Z" fill="#231815"/>
<path d="M53.1134 0.21875C53.1134 0.21875 53.6407 1.21187 53.6407 2.36873V10.3813C53.6407 12.5598 52.4469 12.9299 51.4069 12.9299C50.3669 12.9299 49.1732 12.5598 49.1732 10.3813V2.36873C49.1732 1.04813 49.7005 0.21875 49.7005 0.21875H46.1484C46.1484 0.21875 46.6574 0.692172 46.6574 2.35093V10.3813C46.6574 11.232 46.8772 14.9945 51.4069 14.9945C55.9367 14.9945 56.1564 10.9935 56.1564 10.3813V2.35093C56.1564 0.692172 56.6654 0.21875 56.6654 0.21875H53.1134Z" fill="#231815"/>
</g>
<defs>
<clipPath id="clip0_523_4873">
<rect width="121" height="15" fill="white"/>
</clipPath>
</defs>
</svg>
