<svg width="56" height="17" viewBox="0 0 56 17" fill="none" xmlns="http://www.w3.org/2000/svg">
<g clip-path="url(#clip0_363_2672)">
<path d="M10.0704 1.43403C8.95463 0.802475 7.38663 0.453125 5.41242 0.453125H5.05469V4.07158H5.90555C8.24585 4.07158 9.6843 5.66363 9.6843 8.54003C9.6843 11.4827 8.22412 12.966 5.88466 12.966H5.05469V16.5836H5.69075C10.6505 16.5836 13.7414 13.8372 13.7414 8.51878C13.7414 5.22588 12.3247 2.74218 10.0704 1.43403Z" fill="white"/>
<path d="M4.06042 0.453125H0V16.5844H4.06042V0.453125Z" fill="white"/>
<path d="M22.1302 7.01485L21.9555 6.9375L21.0219 10.1973C21.841 10.6121 22.4771 11.1246 22.4771 11.8973C22.4779 12.1013 22.4386 12.3027 22.3625 12.4906C22.2865 12.6793 22.1745 12.8501 22.0324 12.9938C21.8903 13.1383 21.7223 13.2522 21.5368 13.3295C21.3512 13.4069 21.1531 13.446 20.9525 13.4451C19.9437 13.4451 19.2993 12.573 19.2775 11.2436H15.2422V11.5921C15.2422 15.0584 17.5173 16.8893 20.9734 16.8893C24.4086 16.8893 26.5124 15.0584 26.5124 11.9406C26.5099 9.82665 25.6298 8.5406 22.1302 7.01485Z" fill="white"/>
<path d="M19.2779 9.45697C19.5487 9.56832 19.8279 9.67712 20.1104 9.79187L21.0507 6.52022C20.0377 6.01787 19.5353 5.59117 19.5353 4.85762C19.5353 4.13852 20.1798 3.59367 20.9312 3.59367C21.7252 3.59367 22.1949 4.00762 22.3696 5.16277H26.3807C26.3598 3.00462 25.5432 1.71857 23.8482 0.825221C22.9789 0.373021 22.0152 0.140971 21.0381 0.148621C18.1211 0.148621 15.5 2.15462 15.5 4.90097C15.5 6.99367 16.681 8.38852 19.2779 9.45697Z" fill="white"/>
<path d="M36.4292 6.25098C36.4292 7.20638 36.0531 7.86173 35.3852 8.22383L37.3937 10.7874C39.225 10.019 40.3124 8.18133 40.3124 6.01213C40.3124 3.72393 39.1096 1.82672 37.3929 1.04217C36.5554 0.670725 35.2891 0.453125 33.6359 0.453125H33.2422V4.07158H33.8724C35.3986 4.07158 36.4292 4.85613 36.4292 6.25098Z" fill="white"/>
<path d="M38.547 13.867L37.717 12.807L36.3688 11.0909H36.3721L34.367 8.53237C34.1907 8.55277 34.0135 8.56297 33.8354 8.56297H32.3335V8.55192H32.2549V0.453125H28.1953V16.5844H32.2516V11.3739H32.3761L36.047 16.5844H40.6841L38.5486 13.8661L38.547 13.867Z" fill="white"/>
<path d="M51.8098 0.453125L47.1719 16.5836H50.643L55.9672 0.453125H51.8098Z" fill="white"/>
<path d="M45.3203 0.453125H41.1562L46.2915 16.0753L48.0292 10.0309L45.3203 0.453125Z" fill="white"/>
</g>
<defs>
<clipPath id="clip0_363_2672">
<rect width="56" height="17" fill="white"/>
</clipPath>
</defs>
</svg>
