<svg width="7511" height="2400" viewBox="0 0 7511 2400" fill="none" xmlns="http://www.w3.org/2000/svg">
<path d="M1000 400C1110.46 400 1200 489.543 1200 600C1200 710.026 1111.15 799.301 1001.29 799.996L998.707 800.004C888.845 800.699 800 889.974 800 1000C800 1110.46 889.543 1200 1000 1200L1001.29 1200C1111.16 1200.7 1200 1289.97 1200 1400C1200 1510.03 1111.15 1599.3 1001.29 1600L998.707 1600C889.276 1600.7 800.697 1689.28 800.004 1798.71L799.996 1801.29C799.301 1911.15 710.026 2000 600 2000C489.543 2000 400 1910.46 400 1800C400 1689.97 488.845 1600.7 598.707 1600L601.293 1600C711.155 1599.3 800 1510.03 800 1400C800 1289.97 711.155 1200.7 601.293 1200L598.707 1200C488.845 1199.3 400 1110.03 400 1000C400 889.974 488.845 800.699 598.707 800.004L601.293 799.996C711.155 799.301 800 710.026 800 600L800.004 598.706C800.7 488.845 889.975 400 1000 400ZM1400 800C1510.46 800 1600 889.543 1600 1000C1600 1110.46 1510.46 1200 1400 1200C1289.54 1200 1200 1110.46 1200 1000C1200 889.543 1289.54 800 1400 800Z" fill="#FAFAFA"/>
<path d="M2652.12 2000C2252.71 2000 2005.81 1796.73 2000 1470.05H2280.31C2289.02 1668.97 2442.98 1773.5 2657.93 1773.5C2842.38 1773.5 2967.29 1687.84 2967.29 1547.01C2967.29 1432.3 2888.86 1375.68 2711.67 1339.38L2461.86 1288.57C2164.12 1229.04 2036.31 1092.56 2036.31 882.033C2036.31 610.526 2255.62 400 2627.43 400C3010.86 400 3211.29 619.238 3222.91 908.167H2948.41C2939.69 729.583 2814.79 622.142 2621.62 622.142C2437.17 622.142 2318.07 715.063 2318.07 848.639C2318.07 950.272 2386.33 1006.9 2535.93 1035.93L2814.79 1089.66C3089.29 1143.38 3246.14 1279.85 3246.14 1506.35C3246.14 1830.13 2984.72 2000 2652.12 2000ZM2553.36 1191.29C2553.36 1243.56 2604.19 1288.57 2655.02 1288.57C2704.41 1288.57 2749.43 1243.56 2749.43 1191.29C2749.43 1137.57 2701.5 1092.56 2652.12 1092.56C2601.29 1092.56 2553.36 1137.57 2553.36 1191.29Z" fill="#FAFAFA"/>
<path d="M4068.9 2000C3673.86 2000 3379.02 1747.37 3379.02 1197.1C3379.02 709.256 3673.86 400 4068.9 400C4456.69 400 4718.12 672.958 4718.12 1172.41V1262.43H3771.17C3708.71 1262.43 3662.24 1214.52 3662.24 1154.99C3662.24 1095.46 3708.71 1047.55 3771.17 1047.55H4433.45C4414.57 761.524 4283.86 625.045 4066 625.045C3864.12 625.045 3715.98 757.169 3670.95 1006.9C3665.14 1038.84 3646.26 1050.45 3611.4 1050.45H3588.17C3531.52 1050.45 3489.4 1092.56 3489.4 1149.18C3489.4 1205.81 3531.52 1247.91 3588.17 1247.91H3611.4C3640.45 1247.91 3656.43 1256.62 3659.33 1291.47C3679.67 1622.5 3855.4 1773.5 4087.79 1773.5C4272.24 1773.5 4408.76 1660.25 4437.81 1452.63H4709.41C4676 1776.41 4440.71 2000 4068.9 2000Z" fill="#FAFAFA"/>
<path d="M4908.88 1957.89V442.105H5176.12V593.103C5176.12 607.623 5161.6 625.045 5142.71 625.045H5104.95C5048.31 625.045 4997.48 667.151 4997.48 729.583C4997.48 789.111 5039.59 834.12 5099.14 834.12C5155.79 834.12 5184.83 789.111 5202.26 729.583C5221.14 668.603 5247.29 614.882 5280.69 569.873C5356.21 468.24 5472.4 411.615 5630.71 411.615C5658.31 411.615 5684.45 414.519 5701.88 417.423V684.573C5664.12 675.862 5630.71 672.958 5592.95 672.958C5343.14 672.958 5176.12 831.216 5176.12 1175.32V1957.89H4908.88Z" fill="#FAFAFA"/>
<path d="M6431.97 2000C6020.94 2000 5753.7 1686.39 5753.7 1198.55C5753.7 710.708 6020.94 400 6431.97 400C6842.99 400 7110.23 710.708 7110.23 1198.55C7110.23 1686.39 6842.99 2000 6431.97 2000ZM5795.82 1200C5795.82 1256.62 5837.94 1297.28 5893.13 1297.28C5946.87 1297.28 5991.9 1256.62 5991.9 1200C5991.9 1146.28 5946.87 1101.27 5893.13 1101.27C5837.94 1101.27 5795.82 1146.28 5795.82 1200ZM6034.01 1198.55C6034.01 1564.43 6182.16 1773.5 6431.97 1773.5C6681.78 1773.5 6829.92 1564.43 6829.92 1198.55C6829.92 832.668 6681.78 626.497 6431.97 626.497C6182.16 626.497 6034.01 832.668 6034.01 1198.55ZM6872.04 1200C6872.04 1256.62 6914.16 1297.28 6970.8 1297.28C7024.54 1297.28 7068.11 1256.62 7068.11 1200C7068.11 1146.28 7024.54 1101.27 6970.8 1101.27C6914.16 1101.27 6872.04 1146.28 6872.04 1200Z" fill="#FAFAFA"/>
</svg>
