<svg width="335" height="84" viewBox="0 0 335 84" fill="none" xmlns="http://www.w3.org/2000/svg">
<g opacity="0.9">
<path d="M137.057 37.1084L141.352 28.4739H148.562L141.252 41.3612L148.748 54.5492H141.517L137.157 45.7286L132.79 54.5492H125.58L133.076 41.3612L125.766 28.4739H132.983L137.057 37.1084ZM160.018 45.2632H156.602V54.4705H150.352V28.4739H160.59C163.719 28.4739 166.089 29.1398 167.8 30.5645C168.666 31.2523 169.358 32.1344 169.82 33.1395C170.281 34.1446 170.499 35.2444 170.456 36.3495C170.51 37.9439 170.116 39.5216 169.318 40.903C168.482 42.1879 167.297 43.2085 165.903 43.8456L171.308 54.3703V54.6566H164.571L160.018 45.2632ZM156.695 40.4305H160.683C161.169 40.4816 161.66 40.4225 162.12 40.2576C162.58 40.0928 162.997 39.8264 163.34 39.4783C163.971 38.7395 164.308 37.7936 164.285 36.822C164.319 36.338 164.253 35.852 164.091 35.3948C163.928 34.9376 163.672 34.5191 163.34 34.1658C162.991 33.8263 162.573 33.5662 162.115 33.403C161.656 33.2399 161.168 33.1778 160.683 33.2207H156.695V40.4305ZM180.229 45.6427V54.4705H173.979V28.4739H184.417C186.253 28.4363 188.071 28.826 189.73 29.6123C191.184 30.3131 192.421 31.3942 193.31 32.7411C194.168 34.1377 194.597 35.7563 194.541 37.3948C194.579 38.5499 194.351 39.6983 193.875 40.7511C193.398 41.8039 192.685 42.7329 191.792 43.4662C189.988 44.984 187.496 45.7429 184.296 45.7429H180.222L180.229 45.6427ZM180.229 40.8099H184.303C184.804 40.8606 185.31 40.8017 185.786 40.6372C186.262 40.4728 186.696 40.2068 187.059 39.8577C187.398 39.5276 187.658 39.1262 187.821 38.6828C187.985 38.2394 188.047 37.7652 188.004 37.2946C188.069 36.2321 187.732 35.1842 187.059 34.3591C186.731 33.9812 186.322 33.6824 185.862 33.4852C185.402 33.2881 184.903 33.1977 184.403 33.2207H180.229V40.8099ZM212.447 49.7237H223.38V54.5636H206.125V28.4739H212.39V49.7237H212.447ZM241.859 43.4662H232.022V49.7237H243.692V54.5636H225.793V28.4739H243.821V33.3138H232.151V38.8124H241.924L241.859 43.4662ZM245.84 54.4705V28.4739H254.281C256.493 28.4506 258.674 29.0007 260.61 30.0705C262.449 31.1033 263.943 32.6546 264.906 34.531C265.938 36.4933 266.493 38.6716 266.524 40.8887V42.1202C266.57 44.3617 266.048 46.5784 265.006 48.5638C263.997 50.4416 262.488 52.003 260.645 53.0748C258.802 54.1465 256.699 54.6866 254.567 54.6352H245.876L245.84 54.4705ZM252.105 33.3138V49.7237H254.252C255.055 49.7681 255.856 49.619 256.589 49.2887C257.322 48.9585 257.964 48.457 258.462 47.8264C259.417 46.5042 259.894 44.6069 259.894 42.1345V40.9961C259.894 38.4329 259.417 36.5357 258.462 35.3042C257.952 34.6654 257.295 34.1592 256.547 33.8289C255.799 33.4986 254.982 33.3538 254.166 33.4069H252.083L252.105 33.3138ZM290.559 51.3346C289.362 52.5324 287.886 53.4133 286.263 53.8977C284.278 54.5669 282.193 54.8891 280.099 54.8499C276.683 54.8499 273.927 53.8046 271.937 51.714C269.946 49.6234 268.808 46.7023 268.615 42.9865V40.7097C268.58 38.3976 269.033 36.1042 269.946 33.9797C270.789 32.1515 272.138 30.6034 273.834 29.5192C275.616 28.4755 277.654 27.9498 279.719 28.0014C282.941 28.0014 285.504 28.7603 287.308 30.2781C289.113 31.796 290.172 33.9797 290.437 36.9151H284.366C284.284 35.733 283.775 34.621 282.934 33.7864C282.091 33.1052 281.022 32.7676 279.941 32.8413C279.204 32.8233 278.476 32.9974 277.827 33.3463C277.178 33.6953 276.631 34.2072 276.24 34.8317C275.262 36.576 274.803 38.563 274.915 40.5594V42.1703C274.915 44.7334 275.388 46.7238 276.24 48.0555C277.092 49.3872 278.516 50.0458 280.414 50.0458C281.746 50.1379 283.065 49.7323 284.115 48.9075V44.8265H279.755V40.5307H290.38V51.3346H290.559ZM310.012 43.459H300.146V49.7165H311.809V54.5564H293.91V28.4739H311.937V33.3138H300.267V38.8124H310.133V43.4662L310.012 43.459ZM323.765 45.2561H320.35V54.4705H313.992V28.4739H324.238C327.374 28.4739 329.743 29.1398 331.447 30.5645C332.315 31.2511 333.008 32.1331 333.469 33.1385C333.931 34.1438 334.148 35.2441 334.104 36.3495C334.158 37.9439 333.763 39.5216 332.965 40.903C332.129 42.1879 330.945 43.2085 329.55 43.8456L334.963 54.3703V54.6566H328.226L323.765 45.2561ZM320.35 40.4233H324.331C324.817 40.4744 325.308 40.4153 325.768 40.2505C326.227 40.0856 326.644 39.8192 326.987 39.4711C327.609 38.7311 327.938 37.7884 327.911 36.822C327.944 36.3381 327.877 35.8526 327.714 35.3957C327.552 34.9387 327.297 34.5201 326.965 34.1658C326.619 33.8292 326.205 33.5707 325.751 33.4077C325.296 33.2446 324.812 33.1809 324.331 33.2207H320.343L320.35 40.4233Z" fill="black"/>
<path d="M25.345 5.15493H27.3497V6.34776e-06H25.345C23.2196 -0.00187705 21.1147 0.415365 19.1507 1.22786C17.1867 2.04035 15.4022 3.23214 13.8993 4.73503C12.3964 6.23793 11.2046 8.02243 10.3922 9.98641C9.57967 11.9504 9.16243 14.0553 9.16431 16.1807V27.9225C9.16861 30.4087 8.22174 32.8024 6.51779 34.6128C4.81383 36.4233 2.48189 37.5133 0 37.6596L0.143192 40.2371L0 42.8145C2.48189 42.9608 4.81383 44.0508 6.51779 45.8613C8.22174 47.6717 9.16861 50.0654 9.16431 52.5516V66.0833C9.1567 70.5735 10.9322 74.883 14.1005 78.0648C17.2688 81.2465 21.5708 83.0402 26.061 83.0516V77.8966C22.9475 77.8947 19.962 76.6571 17.7604 74.4555C15.5588 72.2539 14.3211 69.2684 14.3192 66.1549V52.5516C14.3214 50.123 13.7287 47.7308 12.593 45.5841C11.4572 43.4375 9.81299 41.6016 7.80398 40.2371C9.80726 38.8667 11.4471 37.0297 12.5822 34.8843C13.7172 32.7389 14.3134 30.3496 14.3192 27.9225V16.1807C14.3324 13.2606 15.4983 10.4638 17.5632 8.39888C19.6281 6.33399 22.4249 5.16811 25.345 5.15493Z" fill="black"/>
<path d="M84.9132 5.15492H82.9085V0H84.9132C89.1945 0.0113798 93.2961 1.72207 96.3168 4.75613C99.3374 7.7902 101.03 11.8994 101.022 16.1807V27.9225C101.018 30.4087 101.965 32.8024 103.669 34.6128C105.373 36.4233 107.705 37.5133 110.187 37.6596L110.043 40.237L110.187 42.8145C107.705 42.9608 105.373 44.0508 103.669 45.8613C101.965 47.6717 101.018 50.0654 101.022 52.5516V66.0833C101.03 70.5735 99.2545 74.883 96.0861 78.0647C92.9178 81.2465 88.6158 83.0402 84.1256 83.0516V77.8966C87.2391 77.8947 90.2246 76.657 92.4262 74.4554C94.6278 72.2539 95.8655 69.2684 95.8674 66.1549V52.5516C95.8652 50.123 96.4579 47.7308 97.5937 45.5841C98.7294 43.4374 100.374 41.6016 102.383 40.237C100.379 38.8667 98.7395 37.0296 97.6044 34.8843C96.4694 32.7389 95.8732 30.3496 95.8674 27.9225V16.1807C95.8749 14.7367 95.5972 13.3054 95.0503 11.969C94.5034 10.6325 93.6979 9.41724 92.6801 8.39283C91.6624 7.36842 90.4524 6.55506 89.1195 5.99942C87.7867 5.44378 86.3572 5.15679 84.9132 5.15492Z" fill="black"/>
<path d="M73.8872 20.7628H81.548L65.582 35.7264C62.7175 38.3184 58.9921 39.7537 55.129 39.7537C51.2658 39.7537 47.5404 38.3184 44.6759 35.7264L28.71 20.7628H36.3708L48.4705 32.075C50.2774 33.7333 52.6407 34.6534 55.0932 34.6534C57.5457 34.6534 59.9089 33.7333 61.7158 32.075L73.8872 20.7628Z" fill="black"/>
<path d="M36.2992 62.2885H28.6384L44.6759 47.2533C47.5246 44.6293 51.2559 43.1727 55.1289 43.1727C59.0019 43.1727 62.7333 44.6293 65.582 47.2533L81.6195 62.2885H73.9587L61.7874 50.8331C59.9805 49.1748 57.6173 48.2547 55.1647 48.2547C52.7122 48.2547 50.349 49.1748 48.5421 50.8331L36.2992 62.2885Z" fill="black"/>
</g>
</svg>
