<svg width="575" height="111" viewBox="0 0 575 111" fill="none" xmlns="http://www.w3.org/2000/svg">
<g clip-path="url(#clip0_763_4590)">
<path d="M148.619 29.1719H168.339C172.569 29.1719 176.059 29.6519 178.819 30.6019C181.579 31.5619 183.769 32.8219 185.389 34.3919C187.009 35.9619 188.149 37.7919 188.789 39.8819C189.429 41.9719 189.759 44.1519 189.759 46.4219C189.759 48.8419 189.439 51.1619 188.789 53.3819C188.139 55.6019 187.009 57.5419 185.389 59.2219C183.769 60.9019 181.599 62.2219 178.889 63.2019C176.179 64.1819 172.769 64.6719 168.639 64.6719H159.979V84.3919H148.609V29.1719H148.619ZM168.259 55.0819C170.269 55.0819 171.929 54.8819 173.249 54.4619C174.569 54.0419 175.609 53.4819 176.379 52.7619C177.149 52.0419 177.679 51.1519 177.969 50.0919C178.249 49.0319 178.389 47.8819 178.389 46.6519C178.389 45.4219 178.239 44.2319 177.929 43.2519C177.619 42.2719 177.079 41.4519 176.309 40.7819C175.539 40.1119 174.489 39.5919 173.179 39.2319C171.869 38.8719 170.199 38.6919 168.189 38.6919H159.989V55.0919H168.269L168.259 55.0819Z" fill="#231815"/>
<path d="M217.77 79.2913C216.17 81.1013 214.38 82.5712 212.39 83.7012C210.4 84.8312 207.84 85.4013 204.69 85.4013C202.88 85.4013 201.17 85.1712 199.55 84.7012C197.93 84.2312 196.51 83.5213 195.3 82.5312C194.09 81.5512 193.12 80.3012 192.4 78.7812C191.68 77.2613 191.32 75.4413 191.32 73.3313C191.32 70.5513 191.94 68.2812 193.18 66.5212C194.42 64.7712 196.04 63.4012 198.05 62.4212C200.06 61.4412 202.32 60.7513 204.82 60.3313C207.32 59.9213 209.86 59.6613 212.44 59.5613L217.62 59.3313V57.3213C217.62 54.8513 216.94 53.1413 215.57 52.2213C214.2 51.2913 212.59 50.8313 210.74 50.8313C206.46 50.8313 204.01 52.4513 203.39 55.7013L193.49 54.7713C194.21 50.5413 196.07 47.4912 199.06 45.6012C202.05 43.7212 206.07 42.7812 211.13 42.7812C214.22 42.7812 216.85 43.1513 219.02 43.9013C221.19 44.6513 222.93 45.7213 224.24 47.1113C225.55 48.5013 226.51 50.1913 227.1 52.1813C227.69 54.1713 227.99 56.3913 227.99 58.8713V84.3913H217.78V79.2913H217.77ZM217.54 66.3713L212.75 66.6012C210.48 66.7012 208.65 66.9413 207.26 67.3013C205.87 67.6613 204.8 68.1113 204.05 68.6513C203.3 69.1913 202.8 69.8213 202.54 70.5413C202.28 71.2613 202.15 72.0613 202.15 72.9413C202.15 74.2813 202.61 75.3413 203.54 76.1113C204.47 76.8813 205.76 77.2712 207.41 77.2712C210.19 77.2712 212.46 76.6312 214.22 75.3412C215.2 74.6212 216 73.7012 216.62 72.6012C217.24 71.4912 217.55 70.1113 217.55 68.4613V66.3713H217.54Z" fill="#231815"/>
<path d="M271.92 69.7834C271.51 74.6334 269.84 78.4834 266.93 81.3434C264.02 84.2034 259.65 85.6334 253.82 85.6334C250.42 85.6334 247.48 85.1134 245 84.0834C242.53 83.0534 240.5 81.6134 238.93 79.7534C237.36 77.8934 236.18 75.6534 235.41 73.0234C234.64 70.3934 234.25 67.4834 234.25 64.2834C234.25 61.0834 234.7 58.1634 235.6 55.5034C236.5 52.8534 237.81 50.5834 239.51 48.6934C241.21 46.8134 243.3 45.3534 245.78 44.3234C248.25 43.2934 251.09 42.7734 254.29 42.7734C257.02 42.7734 259.41 43.1234 261.44 43.8134C263.48 44.5134 265.19 45.4734 266.58 46.7134C267.97 47.9534 269.05 49.4334 269.83 51.1634C270.6 52.8934 271.12 54.7834 271.38 56.8534L260.47 58.3234C260.21 56.2634 259.62 54.6034 258.69 53.3334C257.76 52.0634 256.16 51.4334 253.89 51.4334C252.24 51.4334 250.87 51.7834 249.79 52.4734C248.71 53.1734 247.84 54.1134 247.2 55.2934C246.56 56.4734 246.1 57.8334 245.85 59.3534C245.59 60.8734 245.46 62.4634 245.46 64.1134C245.46 65.7634 245.59 67.4434 245.85 68.9834C246.11 70.5334 246.55 71.8934 247.16 73.0834C247.78 74.2734 248.63 75.2134 249.71 75.9034C250.79 76.6034 252.16 76.9434 253.81 76.9434C255.98 76.9434 257.65 76.3234 258.84 75.0834C260.02 73.8434 260.72 72.0634 260.93 69.7434H271.91L271.92 69.7834Z" fill="#231815"/>
<path d="M279.57 29.1719H290.71V38.9219H279.57V29.1719ZM279.73 44.0219H290.56V84.3919H279.73V44.0219Z" fill="#231815"/>
<path d="M302.848 52.4525H296.508V44.0225H302.848V42.7125C302.848 40.2425 303.208 38.1025 303.928 36.2925C304.648 34.4925 305.638 33.0225 306.908 31.8825C308.168 30.7525 309.658 29.9125 311.358 29.3725C313.058 28.8325 314.918 28.5625 316.928 28.5625C318.218 28.5625 319.568 28.6425 320.988 28.7925C322.408 28.9425 323.858 29.2525 325.358 29.7225L323.888 37.6125C322.238 37.2025 320.668 36.9925 319.168 36.9925C317.778 36.9925 316.508 37.3925 315.378 38.1925C314.248 38.9925 313.678 40.4225 313.678 42.4825V44.0325H323.038V52.4625H313.678V84.4025H302.848V52.4625V52.4525ZM329.458 29.1725H340.598V38.9225H329.458V29.1725ZM329.608 44.0225H340.438V84.3925H329.608V44.0225Z" fill="#231815"/>
<path d="M386.381 69.7834C385.971 74.6334 384.301 78.4834 381.391 81.3434C378.481 84.2034 374.111 85.6334 368.281 85.6334C364.881 85.6334 361.941 85.1134 359.461 84.0834C356.991 83.0534 354.961 81.6134 353.391 79.7534C351.821 77.8934 350.641 75.6534 349.871 73.0234C349.101 70.3934 348.711 67.4834 348.711 64.2834C348.711 61.0834 349.161 58.1634 350.061 55.5034C350.961 52.8534 352.271 50.5834 353.971 48.6934C355.671 46.8134 357.761 45.3534 360.241 44.3234C362.711 43.2934 365.551 42.7734 368.751 42.7734C371.481 42.7734 373.871 43.1234 375.901 43.8134C377.941 44.5134 379.651 45.4734 381.041 46.7134C382.431 47.9534 383.511 49.4334 384.291 51.1634C385.061 52.8934 385.581 54.7834 385.841 56.8534L374.931 58.3234C374.671 56.2634 374.081 54.6034 373.151 53.3334C372.221 52.0634 370.621 51.4334 368.351 51.4334C366.701 51.4334 365.331 51.7834 364.251 52.4734C363.171 53.1734 362.301 54.1134 361.661 55.2934C361.021 56.4834 360.561 57.8334 360.311 59.3534C360.061 60.8734 359.921 62.4634 359.921 64.1134C359.921 65.7634 360.051 67.4434 360.311 68.9834C360.571 70.5334 361.011 71.8934 361.621 73.0834C362.241 74.2734 363.091 75.2134 364.171 75.9034C365.251 76.6034 366.621 76.9434 368.271 76.9434C370.441 76.9434 372.111 76.3234 373.301 75.0834C374.481 73.8434 375.181 72.0634 375.391 69.7434H386.371L386.381 69.7834Z" fill="#231815"/>
<path d="M405.551 28.8594H419.391L433.161 70.0894L447.311 28.8594H460.771V84.0894H450.171V47.2694L437.561 84.0894H428.591L415.911 47.3494V84.0894H405.551V28.8594Z" fill="#231815"/>
<path d="M505.09 71.4788C504.37 76.0188 502.55 79.4587 499.64 81.8087C496.73 84.1487 492.49 85.3288 486.92 85.3288C480.22 85.3288 475.18 83.4688 471.8 79.7588C468.42 76.0488 466.73 70.7887 466.73 63.9787C466.73 60.5787 467.22 57.5487 468.2 54.8887C469.18 52.2387 470.56 49.9787 472.34 48.1187C474.12 46.2587 476.25 44.8588 478.72 43.8988C481.2 42.9488 483.93 42.4688 486.92 42.4688C493.11 42.4688 497.76 44.2488 500.88 47.8088C504 51.3688 505.56 56.1587 505.56 62.1987V66.5287H477.56C477.66 69.7787 478.49 72.3188 480.04 74.1488C481.59 75.9788 483.91 76.8988 487 76.8988C491.28 76.8988 493.81 75.0987 494.58 71.4887H505.1L505.09 71.4788ZM495.11 59.4087C495.11 56.6287 494.43 54.4587 493.06 52.9087C491.69 51.3587 489.57 50.5887 486.68 50.5887C485.24 50.5887 483.97 50.8187 482.89 51.2887C481.81 51.7587 480.89 52.3887 480.14 53.1887C479.39 53.9887 478.81 54.9188 478.4 55.9688C477.99 57.0287 477.75 58.1687 477.7 59.4087H495.1H495.11Z" fill="#231815"/>
<path d="M514.602 52.1409H508.262V43.7109H514.602V32.9609H525.432V43.7109H534.712V52.1409H525.432V70.7809C525.432 72.8909 525.872 74.3209 526.742 75.0709C527.612 75.8209 528.752 76.1909 530.142 76.1909C530.862 76.1909 531.602 76.1509 532.352 76.0709C533.102 75.9909 533.832 75.8509 534.552 75.6409L536.102 83.6109C534.602 84.0709 533.152 84.4009 531.732 84.5809C530.312 84.7609 528.962 84.8509 527.672 84.8509C523.232 84.8509 519.952 83.7909 517.812 81.6809C515.672 79.5709 514.602 76.0109 514.602 71.0109V52.1409Z" fill="#231815"/>
<path d="M563.872 78.9788C562.272 80.7888 560.482 82.2587 558.492 83.3887C556.502 84.5187 553.942 85.0887 550.792 85.0887C548.982 85.0887 547.272 84.8587 545.652 84.3887C544.032 83.9187 542.612 83.2088 541.402 82.2188C540.192 81.2387 539.222 79.9887 538.502 78.4688C537.782 76.9488 537.422 75.1287 537.422 73.0187C537.422 70.2387 538.042 67.9687 539.282 66.2087C540.522 64.4587 542.142 63.0887 544.152 62.1087C546.162 61.1287 548.422 60.4387 550.922 60.0187C553.422 59.6087 555.962 59.3487 558.542 59.2487L563.722 59.0187V57.0087C563.722 54.5387 563.042 52.8287 561.672 51.9087C560.302 50.9787 558.692 50.5187 556.842 50.5187C552.562 50.5187 550.112 52.1387 549.492 55.3887L539.592 54.4587C540.312 50.2287 542.172 47.1787 545.162 45.2887C548.152 43.4087 552.172 42.4688 557.232 42.4688C560.322 42.4688 562.952 42.8387 565.122 43.5887C567.292 44.3387 569.032 45.4087 570.342 46.7987C571.652 48.1887 572.612 49.8787 573.202 51.8687C573.792 53.8587 574.092 56.0788 574.092 58.5588V84.0788H563.882V78.9788H563.872ZM563.642 66.0587L558.852 66.2887C556.582 66.3887 554.752 66.6287 553.362 66.9887C551.972 67.3487 550.902 67.7987 550.152 68.3387C549.402 68.8787 548.902 69.5088 548.642 70.2288C548.382 70.9488 548.252 71.7487 548.252 72.6287C548.252 73.9687 548.712 75.0288 549.642 75.7988C550.572 76.5688 551.862 76.9587 553.512 76.9587C556.292 76.9587 558.562 76.3187 560.322 75.0287C561.302 74.3087 562.102 73.3887 562.722 72.2887C563.342 71.1787 563.652 69.7988 563.652 68.1488V66.0587H563.642Z" fill="#231815"/>
<path d="M110.01 55C110.01 58.15 109.75 61.22 109.23 64.22C99.74 63.1 88.53 66.05 82.63 70.21C72.77 77.15 60.23 83.65 53.97 72.9C49.06 64.48 28.57 67.57 7.45 82.64C5.94 80.06 4.64 77.33 3.57 74.5C15.72 66.53 31.12 58.75 40.42 58.75C48.48 58.75 52.08 62.03 53.68 64.78C54.26 65.75 54.9 66.58 55.65 67.24C55.88 67.46 56.15 67.67 56.47 67.88C56.58 67.96 56.71 68.04 56.83 68.11C57.17 68.3 57.45 68.43 57.73 68.53C58.61 68.88 59.59 69.06 60.66 69.06H61.1L61.38 69.02C61.38 69.02 71.02 69.74 74.82 50.43C75.24 48.28 75.68 46.26 76.24 44.37C79.84 31.97 84.89 23.97 89.4 18.91C79.23 21.08 68.31 25.05 56.89 30.71C38.71 39.71 16.61 54.91 1.77 68.89C0.62 64.45 0 59.8 0 55C0 24.63 24.62 0 55 0C85.38 0 110.01 24.63 110.01 55Z" fill="#2C00FF"/>
<path d="M108.027 69.817C107.357 72.197 106.527 74.527 105.557 76.757H105.537C98.6069 77.497 91.8569 79.817 87.7169 82.737C77.8569 89.677 65.3169 96.177 59.0369 85.427C54.3669 77.407 35.4769 79.857 15.4069 93.187C13.7569 91.477 12.2169 89.657 10.7969 87.737C31.5469 73.317 51.4569 70.457 56.2869 78.727C62.5569 89.467 75.0869 82.977 84.9469 76.037C90.1269 72.377 99.3969 69.687 107.987 69.817H108.027Z" fill="#2C00FF"/>
<path d="M102.013 83.5781C101.673 84.1281 101.343 84.6681 100.983 85.1981C100.863 85.3781 100.743 85.5681 100.613 85.7481C100.323 86.1781 100.023 86.6081 99.7225 87.0281C98.9225 88.1581 98.0625 89.2481 97.1725 90.3081C96.7325 90.8381 96.2725 91.3481 95.8125 91.8681C95.7725 91.9081 95.7425 91.9381 95.7125 91.9781C95.2825 92.4381 94.8625 92.8881 94.4325 93.3381C94.4225 93.3581 94.3925 93.3881 94.3725 93.3981C93.9025 93.8781 93.4225 94.3481 92.9425 94.8181C92.9425 94.8181 92.9325 94.8281 92.9225 94.8281C92.4325 95.2981 91.9125 95.7681 91.3925 96.2181C91.3525 96.2381 91.3325 96.2681 91.2925 96.2781C91.2925 96.2781 91.2858 96.2848 91.2725 96.2981C81.9025 102.648 70.6425 107.888 64.5525 98.6681C64.4125 98.4381 64.2525 98.1981 64.1125 97.9481C59.9125 90.7281 44.2025 91.9781 26.4625 102.028C24.2125 100.658 22.0825 99.1481 20.0625 97.4881C39.2525 85.4881 56.8525 83.5381 61.3425 91.2481C67.6225 101.998 80.1625 95.4981 90.0225 88.5581C92.9725 86.4681 97.2625 84.6881 102.003 83.5781H102.013Z" fill="#2C00FF"/>
<path d="M70.2381 107.887C69.3781 108.137 68.4981 108.367 67.6181 108.587C67.6081 108.577 67.5981 108.567 67.5781 108.567C68.4581 108.347 69.3281 108.127 70.1981 107.867H70.2081C70.2081 107.867 70.2181 107.887 70.2281 107.887H70.2381Z" fill="#2C00FF"/>
<path d="M70.1975 107.873C69.3375 108.123 68.4575 108.353 67.5775 108.573C63.5275 109.513 59.3175 110.013 54.9975 110.013C51.1575 110.013 47.3975 109.613 43.7675 108.873H43.7575C40.0875 108.103 36.5575 106.973 33.1875 105.523C38.2775 103.003 43.1175 101.253 47.4675 100.243H47.4775C50.4575 99.5331 53.2075 99.2031 55.6475 99.2031C56.4175 99.2031 57.1475 99.2431 57.8475 99.3031C61.9175 99.6831 64.9175 101.193 66.4375 103.793C67.5175 105.643 68.7875 106.983 70.2075 107.883L70.1975 107.873Z" fill="#2C00FF"/>
<path d="M102.013 83.5781C101.673 84.1281 101.343 84.6681 100.983 85.1981C100.863 85.3781 100.743 85.5681 100.613 85.7481C100.323 86.1781 100.023 86.6081 99.7225 87.0281C98.9225 88.1581 98.0625 89.2481 97.1725 90.3081C96.7325 90.8381 96.2725 91.3481 95.8125 91.8681C95.7725 91.9081 95.7425 91.9381 95.7125 91.9781C95.2825 92.4381 94.8625 92.8881 94.4325 93.3381C94.4225 93.3581 94.3925 93.3881 94.3725 93.3981C93.9025 93.8781 93.4225 94.3481 92.9425 94.8181C92.9425 94.8181 92.9325 94.8281 92.9225 94.8281C92.4325 95.2981 91.9125 95.7681 91.3925 96.2181C91.3525 96.2381 91.3325 96.2681 91.2925 96.2781C91.2925 96.2781 91.2858 96.2848 91.2725 96.2981C81.9025 102.648 70.6425 107.888 64.5525 98.6681C64.4125 98.4381 64.2525 98.1981 64.1125 97.9481C59.9125 90.7281 44.2025 91.9781 26.4625 102.028C24.2125 100.658 22.0825 99.1481 20.0625 97.4881C39.2525 85.4881 56.8525 83.5381 61.3425 91.2481C67.6225 101.998 80.1625 95.4981 90.0225 88.5581C92.9725 86.4681 97.2625 84.6881 102.003 83.5781H102.013Z" fill="#2C00FF"/>
<path d="M107.989 69.817C107.319 72.207 106.499 74.527 105.529 76.757C98.5991 77.497 91.8491 79.817 87.7091 82.737C77.8491 89.677 65.3091 96.177 59.0291 85.427C54.3591 77.407 35.4691 79.857 15.3991 93.187C13.7491 91.477 12.2091 89.657 10.7891 87.737C31.5391 73.317 51.4491 70.457 56.2791 78.727C62.5491 89.467 75.0791 82.977 84.9391 76.037C90.1191 72.377 99.3891 69.687 107.979 69.817H107.989Z" fill="#2C00FF"/>
<path d="M110.01 55C110.01 58.15 109.75 61.22 109.23 64.22C99.74 63.1 88.53 66.05 82.63 70.21C72.77 77.15 60.23 83.65 53.97 72.9C49.06 64.48 28.57 67.57 7.45 82.64C5.94 80.06 4.64 77.33 3.57 74.5C15.72 66.53 31.12 58.75 40.42 58.75C48.48 58.75 52.08 62.03 53.68 64.78C54.26 65.75 54.9 66.58 55.65 67.24C55.88 67.46 56.15 67.67 56.47 67.88C56.58 67.96 56.71 68.04 56.83 68.11C57.17 68.3 57.45 68.43 57.73 68.53C58.61 68.88 59.59 69.06 60.66 69.06H61.1L61.38 69.02C61.38 69.02 71.02 69.74 74.82 50.43C75.24 48.28 75.68 46.26 76.24 44.37C79.84 31.97 84.89 23.97 89.4 18.91C79.23 21.08 68.31 25.05 56.89 30.71C38.71 39.71 16.61 54.91 1.77 68.89C0.62 64.45 0 59.8 0 55C0 24.63 24.62 0 55 0C85.38 0 110.01 24.63 110.01 55Z" fill="#2C00FF"/>
</g>
<defs>
<clipPath id="clip0_763_4590">
<rect width="574.08" height="110.01" fill="white"/>
</clipPath>
</defs>
</svg>
