<svg width="237" height="68" viewBox="0 0 237 68" fill="none" xmlns="http://www.w3.org/2000/svg">
<path d="M102.34 33.7485C102.393 31.9337 102.034 30.1302 101.287 28.4731C100.541 26.8161 99.4271 25.3485 98.0294 24.1798C94.8918 21.651 90.9364 20.3431 86.9006 20.5002H71.938V27.1386H86.9006C88.9502 27.0579 90.9575 27.7336 92.5368 29.0352C93.2644 29.6502 93.8444 30.4187 94.2352 31.285C94.6261 32.1511 94.8179 33.0933 94.7968 34.0425C94.8254 34.9822 94.6372 35.916 94.2472 36.7723C93.8571 37.6289 93.2755 38.3852 92.5461 38.9834C90.9559 40.2719 88.9509 40.9455 86.9006 40.8802H79.5479V30.8276H71.9187V47.4902H86.8816C90.9459 47.6305 94.911 46.2266 97.9722 43.5641C99.3773 42.3444 100.496 40.8335 101.251 39.1377C102.005 37.4421 102.377 35.6026 102.34 33.7485Z" fill="#414042"/>
<path d="M110.641 33.7579C110.605 35.6115 110.978 37.4506 111.733 39.1462C112.487 40.8418 113.605 42.3527 115.01 43.5732C118.068 46.2346 122.031 47.6383 126.093 47.4993H139.218V40.861H126.093C124.047 40.9313 122.046 40.2568 120.465 38.9642C119.741 38.3678 119.162 37.616 118.772 36.7652C118.382 35.9143 118.192 34.9866 118.214 34.0519C118.193 33.1035 118.384 32.1622 118.773 31.2962C119.162 30.4304 119.74 29.6611 120.465 29.0444C122.039 27.7384 124.045 27.0623 126.093 27.148H139.218V20.5094H126.093C122.053 20.3507 118.094 21.6586 114.952 24.189C113.555 25.3576 112.441 26.8254 111.694 28.4825C110.947 30.1396 110.588 31.9428 110.641 33.7579Z" fill="#414042"/>
<path d="M163.944 27.1402L170.116 20.4965H143.377V47.5086H168.812V40.8932H150.852V37.1346H168.812V30.7944H150.852V27.1402H163.944Z" fill="#414042"/>
<path d="M204.437 20.399H196.81V36.1459L180.344 21.5467C179.947 21.1614 179.471 20.8634 178.948 20.6721C178.426 20.4808 177.869 20.4006 177.313 20.4367C176.86 20.4117 176.406 20.4828 175.984 20.645C175.561 20.8073 175.179 21.057 174.862 21.3774C174.284 22.0134 173.979 22.8469 174.014 23.7007V47.2178H181.64V31.5085L198.097 46.1171C198.535 46.5532 199.061 46.8937 199.641 47.1156C200.22 47.3377 200.842 47.4365 201.463 47.4059C203.465 47.4059 204.437 46.2769 204.437 43.9442V20.399Z" fill="#414042"/>
<path d="M236.956 20.4965H207.451V27.1405H218.463V47.5088H225.955V27.1405H236.956V20.4965Z" fill="#414042"/>
<path d="M108.15 27.0167H104.838L102.34 20.4965H110.638L108.15 27.0167Z" fill="#27C4B8"/>
<path d="M30.3328 12.842L35.3584 9.91593V2.92603L30.3328 0V12.842Z" fill="#A4A7A9"/>
<path d="M11.8245 43.2592V23.6088L28.6653 13.8269V0L0.853402 16.1888C0.594426 16.3407 0.379375 16.5583 0.229647 16.8199C0.0799186 17.0817 0.000770627 17.3783 0 17.6804V50.1918L11.8245 43.2592Z" fill="#27C4B8"/>
<path d="M46.2864 44.6493L29.4742 54.4313L12.7662 44.7066L0.894226 51.6201L28.6682 67.7706C28.928 67.9209 29.2222 68 29.5216 68C29.8212 68.0013 30.1159 67.922 30.3749 67.7706L58.1964 51.5722L46.2864 44.6493Z" fill="#6D6E71"/>
<path d="M58.1516 16.1907L47.1237 9.77454V16.7645L35.3086 23.6587L47.1615 30.5531V43.1465L59.0144 50.0983V17.6824C59.0126 17.3794 58.9322 17.0821 58.7808 16.8203C58.6294 16.5585 58.4122 16.3414 58.1516 16.1907Z" fill="#A4A7A9"/>
<path d="M23.5862 30.4677L23.5957 44.1607L35.1263 37.448V23.7456L23.5862 30.4677Z" fill="#6D6E71"/>
</svg>
