<svg width="187" height="82" viewBox="0 0 187 82" fill="none" xmlns="http://www.w3.org/2000/svg">
<mask id="mask0_581_94" style="mask-type:luminance" maskUnits="userSpaceOnUse" x="0" y="0" width="82" height="82">
<path d="M81.451 0H9.15527e-05V81.7504H81.451V0Z" fill="white"/>
</mask>
<g mask="url(#mask0_581_94)">
<path d="M80.9982 34.7685L80.99 34.7161L80.7652 34.7243C80.7652 34.7243 80.7603 34.7931 80.7587 34.7995L80.6838 34.8028C80.5861 36.0716 80.3791 37.2765 80.0696 38.3835C79.3105 41.109 78.0382 43.8624 76.489 46.1367C74.7753 48.6546 72.7797 50.5201 70.7175 51.5322C69.4305 52.165 68.155 52.6293 66.9267 52.9121C65.9737 53.1279 65.0338 53.2359 64.1362 53.2359C61.0248 53.2359 58.174 51.9214 55.8901 49.4361C52.36 45.5923 50.3156 38.9851 50.8027 32.9928C50.9721 30.8968 51.3061 28.9462 51.6285 27.061C52.3145 23.0585 52.9057 19.6021 51.7996 15.9887C51.2067 14.0529 49.9539 12.552 48.2696 11.7606C47.1228 11.2211 45.9254 10.948 44.7085 10.948C40.7973 10.948 37.5702 13.7128 35.9965 16.0803C33.5938 19.6953 32.3964 24.2471 32.7141 28.5669C33.0106 32.6102 34.4066 35.2754 36.5016 38.8838C37.5523 40.6921 38.6469 42.2895 39.6146 43.7006C41.2501 46.0876 42.6625 48.1494 43.3597 50.4105C44.3257 53.5449 43.6545 55.0524 43.3206 55.556C42.9085 56.1773 42.247 56.5353 41.3527 56.6204C41.2388 56.6317 41.1263 56.6367 41.0171 56.6367C38.287 56.6367 38.2348 52.8958 38.2039 50.6592V50.6084C38.2023 50.4613 38.199 50.3207 38.1974 50.1866C38.1044 45.8063 36.4282 43.1887 34.304 39.873C32.9714 37.7933 31.4614 35.4372 30.1353 32.2277C28.0143 27.1003 27.4817 22.1544 28.5535 17.5289C28.5911 17.3638 28.6318 17.1987 28.6741 17.0319C29.9756 11.8832 33.193 5.28925 41.123 3.11632C42.625 2.7043 44.1677 2.49503 45.7071 2.49503C50.3694 2.49503 54.4306 4.42106 56.848 7.77773C58.8045 10.4935 59.8129 13.5722 59.9334 17.1888C59.9626 18.0488 59.9399 18.9497 59.8665 19.867C59.6955 21.9352 59.2589 24.203 58.5341 26.7978C57.0679 32.0428 56.7128 36.4869 57.48 40.0038C58.0681 42.7015 59.3535 44.7567 61.0053 45.6412C62.3443 46.3574 63.7714 46.7204 65.2456 46.7204C69.0118 46.7204 72.4425 44.3088 74.1726 41.9199C76.8931 38.1627 78.3265 31.5376 78.0921 27.5532C78.0057 26.0915 77.8819 24.8537 77.7108 23.7584L77.7059 23.7419L77.7027 23.7338C74.4838 16.7474 69.3784 10.8254 62.9388 6.6087C56.3332 2.28738 48.6508 0 40.7256 0C29.847 0 19.62 4.25102 11.9278 11.9715C4.23718 19.692 9.15527e-05 29.9567 9.15527e-05 40.8752C9.15527e-05 44.0487 0.364991 47.2142 1.08665 50.2863L1.09968 50.3403L1.32611 50.3075C1.32611 50.3075 1.32286 50.2406 1.32123 50.2357L1.39616 50.2241C1.25607 47.7913 1.47598 45.4484 2.03311 43.4488C2.79224 40.7247 4.06449 37.9697 5.61369 35.6956C7.32742 33.1792 9.32297 31.312 11.3853 30.2999C12.6625 29.6721 13.9315 29.2094 15.1548 28.925C16.1159 28.7058 17.0641 28.5962 17.9698 28.5962C21.0812 28.5962 23.9336 29.9092 26.2159 32.3945C29.7459 36.2367 31.7904 42.8453 31.3033 48.8393C31.1339 50.937 30.7999 52.886 30.4758 54.7712C29.7899 58.7736 29.1987 62.2301 30.3048 65.8434C30.8961 67.7793 32.1505 69.2803 33.8348 70.0716C34.9816 70.6111 36.1789 70.8841 37.3958 70.8841C41.3071 70.8841 44.5342 68.1194 46.1078 65.7503C48.5106 62.1353 49.708 57.5833 49.3903 53.2637C49.0938 49.2219 47.6978 46.5553 45.6028 42.9468C44.5554 41.1433 43.4591 39.5428 42.4915 38.1301C40.8559 35.7429 39.4435 33.6811 38.7464 31.4183C37.7803 28.284 38.4515 26.7765 38.7838 26.2746C39.1959 25.6532 39.8574 25.2952 40.7517 25.2101C40.8656 25.1987 40.9797 25.1938 41.0872 25.1938C43.8174 25.1938 43.8696 28.9314 43.9005 31.1632L43.9021 31.227C43.9037 31.3725 43.907 31.5099 43.9087 31.6423C44.0016 36.0225 45.6778 38.6401 47.802 41.956C49.1346 44.0357 50.6446 46.3934 51.9707 49.6013C54.0249 54.5652 54.5885 59.3638 53.6486 63.8634C53.6225 63.9876 53.5949 64.1119 53.5672 64.2363C52.3225 69.6089 49.1281 76.4824 40.9813 78.7159C39.4794 79.1279 37.9366 79.3355 36.3973 79.3371C31.7349 79.3371 27.6738 77.4112 25.2564 74.0544C23.2999 71.3387 22.2915 68.26 22.171 64.6433C22.1531 64.1185 22.1548 63.5757 22.1743 63.0329C22.2689 60.6785 22.7266 58.0624 23.572 55.0343C25.0381 49.7893 25.3932 45.3453 24.626 41.8285C24.0379 39.129 22.7525 37.0755 21.1007 36.1909C19.7617 35.4748 18.3363 35.1118 16.8605 35.1118C13.0958 35.1118 9.66343 37.5235 7.93341 39.9122C5.21296 43.6694 3.77941 50.2945 4.01399 54.279C4.15898 56.7545 4.40985 58.5742 4.83013 60.1879L4.83502 60.2011L4.83827 60.2075C11.9538 73.4936 25.7076 81.7504 40.7256 81.7504C51.6042 81.7504 61.8311 77.4995 69.5234 69.7789C77.2157 62.0584 81.451 51.7939 81.451 40.8752C81.451 38.8347 81.2995 36.7795 80.9982 34.7685Z" fill="#BC8EE4"/>
</g>
<path d="M111.875 41.3577C109.847 37.7591 107.954 34.3781 105.247 30.9068C103.714 28.9415 102.263 26.7902 102.067 24.3075C101.858 21.6781 105.19 20.4045 105.745 23.3076C106.28 26.1092 106.042 28.949 107.27 31.6203C107.856 32.8952 108.962 33.7641 110.329 33.1596C112.69 32.114 110.439 28.9496 109.766 27.5858C108.664 25.3574 108.514 23.0213 108.259 20.6156C108.075 18.8859 107.392 17.1725 106.154 15.9246C104.666 14.4248 102.759 14.0483 100.761 14.743C97.6269 15.8331 91.6149 21.8905 99.5958 31.5113C101.181 33.422 103.185 34.9381 105.052 36.5751C108.186 39.3222 110.774 42.4089 112.063 46.2303C113.394 50.1758 113.663 54.867 111.027 58.0927C107.712 62.1497 104.016 60.8141 102.032 58.9028C99.3065 56.2772 100.263 54.0481 99.6485 50.7691C99.3153 48.9912 98.4303 47.336 97.3125 45.9128C96.5192 44.9028 95.1924 43.9837 94.0294 44.5301C92.9078 45.057 92.734 46.6545 93.2448 47.7821C93.7557 48.9097 94.7298 49.75 95.4648 50.746C96.0259 51.5059 97.1801 53.4122 96.9246 56.0617C96.6962 58.431 97.1267 60.9845 98.2834 63.0939C101.858 69.6149 110.515 69.1099 113.805 58.8702C116.492 50.5111 113.483 44.2144 111.875 41.3589V41.3577Z" fill="#BC8EE4"/>
<path d="M153.626 22.6358C152.92 22.003 152.581 21.0276 152.592 20.0803C152.601 19.1337 152.929 18.2128 153.385 17.3821C153.951 16.3497 154.746 15.4075 155.796 14.8725C156.846 14.3374 158.175 14.2673 159.181 14.8812C160.187 15.4946 160.734 16.8559 160.253 17.9303C159.78 18.9853 158.804 19.0742 158.031 19.7577C157.343 20.366 157.519 20.621 157.329 21.4348C156.919 23.1858 155.048 23.9113 153.626 22.6358H153.626Z" fill="#BC8EE4"/>
<path d="M162.29 24.2064C160.906 23.6074 159.382 24.732 158.488 25.9455C156.547 28.5779 155.525 31.6808 155.532 34.9542C155.541 39.2443 157.302 43.2275 158.812 47.1605C160.226 50.846 160.192 54.8261 158.577 58.4702C157.762 60.3102 156.101 61.6119 155.34 63.4689C154.79 64.8127 155.062 66.6796 156.4 67.2491C157.788 67.8398 159.325 66.7196 160.191 65.4867C163.917 60.1862 161.615 50.3917 160.614 47.5343C155.996 34.3427 162.109 30.9992 163.326 27.9928C163.871 26.6465 163.624 24.784 162.29 24.2064Z" fill="#BC8EE4"/>
<path d="M135.704 24.6229C133.455 14.8668 126.703 13.8056 123.655 14.7572C116.217 17.0795 115.503 24.9318 116.818 30.0852C118.833 37.9782 125.409 37.4375 127.669 36.0292C129.48 34.9009 130.035 32.8385 130.915 33.4801C132.123 34.3615 129.594 37.15 129.162 37.6129C124.309 42.8083 119.4 46.0527 117.953 55.9606C117.525 58.8849 118.236 62.4453 119.663 65.0401C120.102 65.8382 121.506 68.1737 123.466 67.2209C125.746 66.112 124.72 63.4144 124.315 62.5736C123.91 61.7329 121.709 58.3455 121.451 55.5207C120.382 43.8239 130.233 41.7357 133.726 37.1124C137.312 32.3674 136.305 27.2316 135.703 24.6229H135.704ZM125.471 23.5222C125.335 23.7427 125.231 23.9395 125.155 24.1274C124.945 24.6461 124.943 25.0959 125.064 25.7838C125.39 27.6225 124.136 29.329 122.12 28.6813C121.184 28.3799 120.45 27.5993 120.057 26.6984C119.665 25.7976 119.585 24.7871 119.664 23.8079C119.762 22.5913 120.116 21.3627 120.883 20.413C121.651 19.4626 122.879 18.8349 124.092 18.9909C125.304 19.1469 126.399 20.2044 126.399 21.4248C126.399 22.2517 125.879 22.855 125.47 23.5216L125.471 23.5222Z" fill="#BC8EE4"/>
<path d="M183.639 44.8106C180.145 40.1878 170.483 38.0998 171.552 26.4023C171.81 23.5781 173.823 20.1901 174.227 19.3494C174.632 18.5086 175.658 15.8117 173.378 14.7022C171.419 13.7493 170.014 16.0848 169.575 16.883C168.148 19.4778 167.438 23.0381 167.865 25.9625C169.313 35.8708 174.222 39.1147 179.075 44.3102C179.507 44.7729 182.035 47.5615 180.827 48.4429C179.948 49.0844 179.392 47.0221 177.582 45.8938C175.321 44.4854 168.745 43.9449 166.73 51.8379C165.415 56.9911 166.13 64.8435 173.567 67.1659C176.615 68.1175 183.367 67.0562 185.616 57.3001C186.218 54.6914 187.225 49.5555 183.639 44.8106H183.639ZM176.311 60.4976C176.311 61.718 175.216 62.7754 174.003 62.9315C172.791 63.0874 171.563 62.4598 170.795 61.5093C170.027 60.5595 169.674 59.3306 169.576 58.1145C169.497 57.1352 169.577 56.1247 169.969 55.2239C170.361 54.3231 171.096 53.5426 172.032 53.2412C174.047 52.5933 175.301 54.3 174.976 56.1386C174.854 56.8258 174.856 57.2763 175.067 57.795C175.143 57.9829 175.247 58.1797 175.382 58.4002C175.791 59.0666 176.312 59.67 176.312 60.4969L176.311 60.4976Z" fill="#BC8EE4"/>
<path d="M148.094 31.1289C147.922 30.0056 147.834 28.5842 147.845 27.4352C147.863 25.4806 147.036 23.9952 145.476 23.9533C143.279 23.895 142.865 25.7393 142.812 26.513C142.701 28.1481 143.138 29.4832 143.845 30.9623C145.123 33.6392 147.722 37.2728 148.815 40.0525C150.167 43.4879 150.428 46.8171 149.783 50.3869C148.907 55.2387 145.954 61.3858 140.124 61.2103C139.235 61.1835 138.26 60.8325 137.572 60.2908C136.427 59.3879 135.559 57.7893 135.283 56.3539C134.688 53.2605 136.115 50.1913 136.69 47.2099C137.089 45.1413 136.481 41.6632 133.616 41.8637C131.752 41.9939 130.72 44.0994 130.431 45.9426C129.905 49.2956 129.977 52.7002 130.405 56.0638C130.82 59.3366 132.242 62.603 134.423 64.921C136.973 67.6317 141.371 68.1174 144.637 66.3432C147.907 64.5677 150.501 60.763 151.694 56.2883C152.761 52.2876 152.681 47.6221 151.521 43.6233C150.933 41.5956 150.324 39.5739 149.752 37.5415C149.12 35.2993 148.445 33.4381 148.093 31.1289H148.094Z" fill="#BC8EE4"/>
</svg>
