<svg width="74" height="27" viewBox="0 0 74 27" fill="none" xmlns="http://www.w3.org/2000/svg">
<g clip-path="url(#clip0_363_2539)">
<path d="M4.80465 5.48936C5.09529 5.13994 5.40398 4.80056 5.7307 4.47323C11.6839 -1.49107 21.3373 -1.49107 27.2905 4.47323C33.2437 10.4375 33.2437 20.1089 27.2905 26.0732C26.9638 26.4006 26.625 26.7098 26.2762 27.001C31.2833 21.0006 30.9767 12.0541 25.3502 6.41714C19.7217 0.780178 10.7939 0.470918 4.80465 5.48936ZM3.3835 8.55787C3.54586 8.2727 3.78238 8.03574 4.06501 7.87508C4.48995 7.63209 5.14741 7.30878 5.63649 7.30878C5.15543 7.30878 4.50599 6.99148 4.08105 6.7505C3.78639 6.58181 3.54185 6.33883 3.37548 6.04362C3.13495 5.61789 2.81825 4.96724 2.81825 4.48527C2.81825 4.97326 2.49353 5.63395 2.25299 6.05969C2.09063 6.34485 1.85411 6.58182 1.57148 6.74247C1.14654 6.98546 0.489084 7.30878 0 7.30878C0.489084 7.30878 1.14855 7.6341 1.57349 7.87709C1.85812 8.03975 2.09264 8.27672 2.255 8.56188C2.49754 8.98762 2.82025 9.6463 2.82025 10.1343C2.82025 9.6463 3.14497 8.98561 3.3855 8.55987L3.3835 8.55787ZM9.71754 24.5209C9.45095 24.3663 9.1142 24.4125 8.83157 24.6052C8.90173 24.3964 9.03603 24.2157 9.20841 24.0851C9.98012 23.5369 11.2088 23.9325 11.5797 24.798C11.5797 24.798 11.5797 24.796 11.5797 24.794C11.6639 24.9908 11.8523 25.4306 11.9345 25.6234C12.1048 26.1074 12.5799 26.511 13.1111 26.4427C13.1111 26.4427 13.1111 26.4427 13.1131 26.4427C13.1311 26.4407 13.1471 26.4367 13.1652 26.4327C13.1652 26.4327 13.1652 26.4327 13.1672 26.4347C13.991 26.3363 14.5062 24.9808 13.7445 24.5209C13.4779 24.3663 13.1411 24.4125 12.8585 24.6052C12.9287 24.3964 13.063 24.2157 13.2353 24.0851C14.0151 23.5409 15.2137 23.9225 15.6066 24.798C15.6066 24.798 15.6066 24.796 15.6066 24.794C15.7028 25.0189 15.8652 25.3985 15.9614 25.6234C16.1318 26.1074 16.6068 26.511 17.138 26.4427C17.138 26.4427 17.138 26.4427 17.14 26.4427C17.158 26.4407 17.1741 26.4367 17.1921 26.4327C17.1921 26.4327 17.1921 26.4327 17.1941 26.4347C18.0179 26.3363 18.5331 24.9808 17.7714 24.5209C17.5048 24.3663 17.168 24.4125 16.8854 24.6052C16.9556 24.3964 17.0899 24.2157 17.2623 24.0851C18.042 23.5409 19.2406 23.9225 19.6335 24.798C19.6335 24.798 19.6335 24.796 19.6335 24.794C19.7297 25.0189 19.8921 25.3985 19.9883 25.6234C20.1587 26.1074 20.6337 26.511 21.1649 26.4427C21.1649 26.4427 21.1649 26.4427 21.1669 26.4427C21.185 26.4407 21.201 26.4367 21.219 26.4327C21.219 26.4327 21.219 26.4327 21.221 26.4347C22.0449 26.3363 22.56 24.9808 21.7983 24.5209C21.5317 24.3663 21.195 24.4125 20.9123 24.6052C20.9825 24.3964 21.1168 24.2157 21.2892 24.0851C22.0529 23.553 23.2195 23.9084 23.6324 24.7458C24.8531 23.5188 25.7751 21.9966 26.2782 20.2917C24.7749 21.5066 22.8607 22.2336 20.7801 22.2336C20.1787 22.2336 19.5914 22.1733 19.0242 22.0569C20.754 21.6793 22.2934 20.7937 23.476 19.5587C22.3074 18.7695 21.5377 17.432 21.5377 15.9138C21.5377 13.5602 23.3858 11.6404 25.707 11.526C24.9513 8.1743 22.2814 5.54961 18.9099 4.86281C18.3427 4.74634 17.7554 4.68609 17.154 4.68609C12.3113 4.68609 8.38458 8.62012 8.38458 13.4719C8.38458 17.4702 11.0505 20.8439 14.7006 21.9083C10.3449 21.3962 6.96544 17.6851 6.96544 13.1847C6.96544 12.7911 6.9915 12.4035 7.04161 12.024C6.14963 13.5743 5.6385 15.3736 5.6385 17.2914C5.6385 20.7837 7.33225 23.8803 9.94204 25.8021C10.1705 25.3523 10.1605 24.784 9.71954 24.5189L9.71754 24.5209Z" fill="white"/>
<path d="M39.3145 21.7374V9.51562H46.3902C46.9935 9.51562 47.5427 9.65017 48.0378 9.91726C48.5309 10.1843 48.9298 10.5579 49.2325 11.0338C49.5352 11.5118 49.6855 12.0761 49.6855 12.7267C49.6855 13.1103 49.6073 13.4778 49.449 13.8272C49.2926 14.1766 49.0862 14.4859 48.8296 14.753C48.573 15.0221 48.2764 15.2369 47.9396 15.3996C48.3345 15.5502 48.6853 15.7812 48.994 16.0884C49.3026 16.3977 49.5452 16.7491 49.7256 17.1447C49.906 17.5403 49.9962 17.9721 49.9962 18.436C49.9962 19.0886 49.8418 19.665 49.5352 20.165C49.2265 20.665 48.8176 21.0526 48.3064 21.3257C47.7953 21.5989 47.22 21.7354 46.5806 21.7354H39.3125L39.3145 21.7374ZM42.243 14.4035H45.5363C45.7568 14.4035 45.9612 14.3453 46.1456 14.2288C46.3321 14.1124 46.4764 13.9617 46.5806 13.775C46.6848 13.5882 46.737 13.3914 46.737 13.1806C46.737 12.9476 46.6848 12.7408 46.5806 12.56C46.4764 12.3793 46.3341 12.2367 46.1537 12.1323C45.9733 12.0279 45.7668 11.9756 45.5343 11.9756H42.241V14.4035H42.243ZM42.243 19.3115H45.833C46.0875 19.3115 46.31 19.2533 46.4944 19.1368C46.6808 19.0203 46.8272 18.8637 46.9394 18.6649C47.0496 18.4661 47.1058 18.2512 47.1058 18.0183C47.1058 17.7853 47.0496 17.5524 46.9394 17.3556C46.8292 17.1588 46.6808 17.0041 46.4944 16.8937C46.308 16.7832 46.0875 16.727 45.833 16.727H42.243V19.3115Z" fill="white"/>
<path d="M50.627 21.7353L54.5657 10.9454C54.7742 10.3991 55.1069 9.98747 55.5599 9.71436C56.0129 9.44124 56.5241 9.30469 57.0933 9.30469C57.6626 9.30469 58.1757 9.43522 58.6347 9.69829C59.0938 9.95936 59.4225 10.371 59.6189 10.9293L63.5757 21.7373H60.4207L59.653 19.3797H54.4775L53.6758 21.7373H50.625L50.627 21.7353ZM55.2452 16.9699H58.9054L57.3539 12.0639C57.3299 12.0057 57.2998 11.9615 57.2577 11.9334C57.2176 11.9053 57.1675 11.8892 57.1094 11.8892C57.0512 11.8892 57.0011 11.9073 56.961 11.9414C56.9209 11.9756 56.8929 12.0177 56.8829 12.0639L55.2452 16.9699Z" fill="white"/>
<path d="M64.7102 21.7374V19.2754H69.9218C70.1543 19.2754 70.3628 19.2212 70.5492 19.1087C70.7356 18.9983 70.8799 18.8497 70.9842 18.6629C71.0884 18.4761 71.1405 18.2733 71.1405 18.0524C71.1405 17.8195 71.0844 17.6106 70.9741 17.4238C70.8639 17.2371 70.7176 17.0865 70.5392 16.97C70.3588 16.8535 70.1523 16.7953 69.9198 16.7953H68.0376C67.3301 16.7953 66.6866 16.6547 66.1114 16.3756C65.5361 16.0964 65.0751 15.6868 64.7263 15.1446C64.3775 14.6044 64.2031 13.9537 64.2031 13.1986C64.2031 12.4436 64.3655 11.805 64.6902 11.2527C65.0149 10.7005 65.4539 10.2727 66.0051 9.96947C66.5563 9.66624 67.1697 9.51562 67.8432 9.51562H73.2291V11.9777H68.192C67.9835 11.9777 67.7911 12.0279 67.6167 12.1263C67.4423 12.2247 67.308 12.3612 67.2158 12.5359C67.1236 12.7106 67.0775 12.8974 67.0775 13.0942C67.0775 13.3151 67.1236 13.5099 67.2158 13.6786C67.308 13.8473 67.4423 13.9818 67.6167 14.0802C67.7911 14.1786 67.9835 14.2288 68.192 14.2288H70.1623C70.9401 14.2288 71.6176 14.3774 72.1928 14.6746C72.7681 14.9719 73.2131 15.3875 73.5258 15.9237C73.8385 16.4599 73.9968 17.0885 73.9968 17.8094C73.9968 18.6368 73.8345 19.3457 73.5098 19.9401C73.185 20.5345 72.7421 20.9823 72.1848 21.2856C71.6276 21.5888 71.0122 21.7394 70.3367 21.7394H64.7062L64.7102 21.7374Z" fill="white"/>
</g>
<defs>
<clipPath id="clip0_363_2539">
<rect width="74" height="27" fill="white"/>
</clipPath>
</defs>
</svg>
