<svg width="95" height="16" viewBox="0 0 95 16" fill="none" xmlns="http://www.w3.org/2000/svg">
<mask id="mask0_524_4919" style="mask-type:luminance" maskUnits="userSpaceOnUse" x="0" y="0" width="95" height="16">
<path d="M95 0H0V16H95V0Z" fill="white"/>
</mask>
<g mask="url(#mask0_524_4919)">
<mask id="mask1_524_4919" style="mask-type:luminance" maskUnits="userSpaceOnUse" x="0" y="0" width="95" height="16">
<path d="M95 0H0V16H95V0Z" fill="white"/>
</mask>
<g mask="url(#mask1_524_4919)">
<path d="M2.78225 2.45073L7.20779 0L11.6333 2.45073L10.0063 3.35609L7.20779 1.81073L4.40928 3.35609L2.78225 2.45073ZM11.6333 5.54146L10.0063 4.63609L7.20779 6.18146L4.40928 4.63609L2.78225 5.54146V7.3522L5.58073 8.89757V11.9883L7.20779 12.8937L8.83482 11.9883V8.89757L11.6333 7.3522V5.54146ZM11.6333 10.4429V8.6322L10.0063 9.53757V11.3483L11.6333 10.4429ZM12.7885 11.0829L9.99001 12.6283V14.439L14.4155 11.9883V7.08683L12.7885 7.9922V11.0829ZM11.1615 3.99609L12.7885 4.90146V6.7122L14.4155 5.80683V3.99609L12.7885 3.09074L11.1615 3.99609ZM5.58073 13.2839V15.0946L7.20779 16L8.83482 15.0946V13.2839L7.20779 14.1893L5.58073 13.2839ZM2.78225 10.4429L4.40928 11.3483V9.53757L2.78225 8.6322V10.4429ZM5.58073 3.99609L7.20779 4.90146L8.83482 3.99609L7.20779 3.09074L5.58073 3.99609ZM1.62703 4.90146L3.25406 3.99609L1.62703 3.09074L0 3.99609V5.80683L1.62703 6.7122V4.90146ZM1.62703 7.9922L0 7.08683V11.9883L4.42554 14.439V12.6283L1.62703 11.0829V7.9922Z" fill="white"/>
<path d="M27.2406 10.0402V10.0148C27.2406 8.81904 26.5777 8.22118 25.5037 7.82684C26.1667 7.47067 26.7236 6.91095 26.7236 5.90601V5.88058C26.7236 4.4813 25.5568 3.57812 23.6607 3.57812H19.3516V12.4826H23.7668C25.8617 12.4826 27.2406 11.6685 27.2406 10.0402ZM24.6949 6.23675C24.6949 6.89824 24.1248 7.17807 23.2232 7.17807H21.3404V5.29541H23.3558C24.2176 5.29541 24.6949 5.62615 24.6949 6.2113V6.23675ZM25.212 9.79852C25.212 10.46 24.6684 10.7653 23.7668 10.7653H21.3404V8.80633H23.7005C24.748 8.80633 25.212 9.17521 25.212 9.7731V9.79852Z" fill="white"/>
<path d="M37.3017 12.4826V3.57812H35.2864V9.06073L30.9376 3.57812H29.0547V12.4826H31.0701V6.8219L35.5649 12.4826H37.3017Z" fill="white"/>
<path d="M47.5532 10.0402V10.0148C47.5532 8.81904 46.8903 8.22118 45.8161 7.82684C46.479 7.47067 47.0359 6.91095 47.0359 5.90601V5.88058C47.0359 4.4813 45.8691 3.57812 43.9733 3.57812H39.6641V12.4826H44.0793C46.1741 12.4826 47.5532 11.6685 47.5532 10.0402ZM45.0076 6.23675C45.0076 6.89824 44.4373 7.17807 43.5358 7.17807H41.6528V5.29541H43.6684C44.5302 5.29541 45.0076 5.62615 45.0076 6.2113V6.23675ZM45.5246 9.79852C45.5246 10.46 44.9808 10.7653 44.0793 10.7653H41.6528V8.80633H44.0129C45.0606 8.80633 45.5246 9.17521 45.5246 9.7731V9.79852Z" fill="white"/>
<path d="M59.8607 10.9136L58.8133 9.89599C58.0179 10.6084 57.2885 11.0536 56.1482 11.0536C54.3715 11.0536 53.0856 9.62888 53.0856 7.87342C53.0856 6.11796 54.3715 4.71868 56.1482 4.71868C57.209 4.71868 58.0045 5.16391 58.7472 5.82539L59.7946 4.66782C58.9062 3.85368 57.8719 3.28125 56.1616 3.28125C53.3506 3.28125 51.375 5.35474 51.375 7.89885C51.375 10.4684 53.3906 12.491 56.0952 12.491C57.8323 12.491 58.8928 11.8804 59.8607 10.9136Z" fill="white"/>
<path d="M67.7623 8.58154V12.3341H69.3934V3.42969H67.7623V7.1314H63.3339V3.42969H61.7031V12.3341H63.3339V8.58154H67.7623Z" fill="white"/>
<path d="M76.7124 3.36719H75.201L71.1172 12.3352H72.7879L73.7423 10.1854H78.1311L79.0725 12.3352H80.7962L76.7124 3.36719ZM77.5346 8.7989H74.3391L75.9303 5.23713L77.5346 8.7989Z" fill="white"/>
<path d="M82.6094 3.42969V12.3341H84.2402V3.42969H82.6094Z" fill="white"/>
<path d="M93.3429 9.58649L88.3707 3.42969H86.8594V12.3341H88.4637V5.99926L93.5817 12.3341H94.9472V3.42969H93.3429V9.58649Z" fill="white"/>
</g>
</g>
</svg>
