<?xml version="1.0" encoding="UTF-8"?>
<svg id="Layer_1" data-name="Layer 1" xmlns="http://www.w3.org/2000/svg" viewBox="0 0 3959 1125">
  <defs>
    <style>
      .cls-1 {
        fill: #1a1a2e;
      }
    </style>
  </defs>
  <path class="cls-1" d="M1793.55,0l415.47,240.19.75,81.21,69.74,39.61-1.38,402.5-68.36,38.09-2.3,82.64-413.92,240.76h-2l-414.93-241.75-1.98-79.95-66.99-38.95-1.98-4.01,1.3-400.85,67.7-39.76,1.41-79.54L1791.55,0h2ZM2071.48,399.64l67.01-37.94v-81.98l-345.92-199.09-347.09,199.96-1.52,80.77,69.66,38.28v79.93l-137.95-77.93c-.51,22.96.58,46.05.06,69.02-.12,5.25-2.08,10.11-2.18,15.81-1.38,78.21.41,156.7,1.08,234.9l68.57,40.36c3.14,5.4-1.38,61.94.33,74.63.37,2.77.41,5.22,2.98,7.01l343.03,198.88,7.38-.68,340.55-197.29,2.96-80.96,68.99-40.95v-320.71l-137.97,77.93v-79.93l.03-.02Z"/>
  <path class="cls-1" d="M3519.11,763.32l-44.77-24.2-3.34-6.65.45-105.7,45.66-29.3h-285.93l45.66,29.3.45,105.7c.45,3.69-1.22,4.54-3.34,6.65-8.17,8.14-33.67,18.59-44.77,24.2v-330.71l94.08-55.85,100.39-.62,95.46,56.47v330.71h0ZM3233.18,541.52h281.93l-43.57-26.38c-2.98-5.13,1.48-42.37-.47-52.51-.78-4.07-2.34-4.61-5.26-6.73-4.41-3.19-40.53-23.66-43.79-24.18-10.56-1.7-93.14-1.29-100.32,1.45-3.89,1.48-41.24,23.26-42.7,25.26-5.48,7.49.56,45.39-2.17,56.79l-43.66,26.29h.01Z"/>
  <path class="cls-1" d="M2660.33,375.67l94.65,54.27.44,108.7-2.09,5.91-95,54.93h-188.95l45.6,29.36v107.13l-49.59,29.35.37-276.36,49.6-29.36v52.95c-12.55,11.38-29.3,17.48-43.41,26.49-1.99,1.27-3.54-.22-2.58,4.48h188.95c4.24,0,38.97-24.81,47.01-26.95l1.65-58.66-46.66-26.29h-191.95l-3-3v-52.95h194.96Z"/>
  <polygon class="cls-1" points="2859.28 375.67 2905.3 403.05 2905.23 679.98 2954.25 709.37 3147.21 709.37 3147.21 765.32 2954.25 765.32 2859.28 708.37 2859.28 375.67"/>
  <path class="cls-1" d="M3621.09,375.67l47.6,29.36,1.36,110.54,95.81,53.95,96.84-54.29.24-112.25,48.07-27.31v279.75l-193.95,109.9v-55.95l144.98-83.91v-53.98l-47-27.96v52.95c-7.89,5.46-43.67,29.67-50.51,28.64l-143.44-82.59v-166.85h0Z"/>
  <path class="cls-1" d="M486.2,449.92l.1,225.08c14.86,5.45,32.41,21.63,46.12,26.83,7.1,2.69,88.4,3.07,97.97,1.1,12.23-2.52,34.12-22.07,47.47-26.5l1.65-58.66-46.99-25.85-49.47,25.55-47.14-27,96.79-55.02,96.13,56.01-.87,111.05-92.02,53.91c-32.12,6.31-67.61,1.69-100.65,2.49l-96.42-55.51-.65-281.46,95.11-53.81,102.41.65,92.04,53.85-47.14,27c-8.78.42-37.59-24-47.89-25.91-10.91-2.02-95.56-1.1-103.68,2.11-13.86,5.47-28.05,19.33-42.87,24.09h0Z"/>
  <path class="cls-1" d="M874.1,449.92l.1,225.08c14.86,5.45,32.41,21.63,46.12,26.83,7.1,2.69,88.4,3.07,97.97,1.1,12.23-2.52,34.12-22.07,47.47-26.5l1.65-58.66-48.69-26.21-47.77,25.92-47.14-27,96.79-55.02,96.13,56.01-.87,111.05-92.02,53.91c-32.12,6.31-67.61,1.69-100.65,2.49l-96.42-55.51-.65-281.46,95.11-53.81,102.41.65,92.04,53.85-47.14,27c-8.78.42-37.59-24-47.89-25.91-10.91-2.02-95.56-1.1-103.68,2.11-13.86,5.47-28.05,19.33-42.87,24.09h0Z"/>
  <polygon class="cls-1" points="49.99 367.67 98.01 395.06 98.3 507.23 195.14 561.52 290.95 507.57 291.85 394.99 341.91 367.67 341.91 532.53 196.84 617.47 49.99 534.52 49.99 367.67"/>
  <path class="cls-1" d="M145.96,757.33v-52.95c47.46-29.77,97.2-56.97,145.96-84.92v54.95l-145.96,82.93h0Z"/>
  <polygon class="cls-1" points="1583.6 281.75 1653.2 323.1 1654.57 481.58 1790.85 561.09 1930.5 481.56 1931.48 321.13 2001.49 281.75 2001.49 520.54 1792.56 641.36 1583.6 520.54 1583.6 281.75"/>
  <polygon class="cls-1" points="1931.51 643.43 1931.51 723.36 1723.56 841.25 1723.56 761.32 1931.51 643.43"/>
  <polygon class="cls-1" points="1861.53 359.68 1792.36 321.69 1723.56 359.68 1723.56 280.75 1792.36 241.76 1861.53 280.75 1861.53 359.68"/>
</svg>